<svg version="1.1" xmlns="http://www.w3.org/2000/svg" xmlns:xlink="http://www.w3.org/1999/xlink" width="1299.77142" height="1020.38718" viewBox="0,0,1299.77142,1020.38718"><defs><linearGradient x1="-49.56557" y1="-29.41721" x2="-22.67916" y2="894.15531" gradientUnits="userSpaceOnUse" id="color-1"><stop offset="0" stop-color="#ffffff"/><stop offset="1" stop-color="#29abe2"/></linearGradient></defs><g transform="translate(683.60258,559.10748)"><g data-paper-data="{&quot;isPaintingLayer&quot;:true}" fill-rule="nonzero" stroke-linecap="butt" stroke-linejoin="miter" stroke-miterlimit="10" stroke-dasharray="" stroke-dashoffset="0" style="mix-blend-mode: normal"><path d="M598.16354,426.58333c0,2.04294 -1.65803,3.70096 -3.70096,3.70096h-1274.36419c-2.04294,0 -3.70096,-1.65803 -3.70096,-3.70096v-981.98985c0,-2.04294 1.65803,-3.70096 3.70096,-3.70096h1274.36603c2.04294,0 3.70096,1.65803 3.70096,3.70096v981.98985z" fill="#a9ebff" stroke="none" stroke-width="0"/><path d="M-680.95758,36.3776c0,0 729.38169,-162.40907 1280.11323,38.78065v386.12145h-1280.11323z" fill="url(#color-1)" stroke="none" stroke-width="1"/><g stroke="#000000" stroke-width="0.25"><path d="M448.8638,-114.9982c-5.52802,6.75772 -30.49623,9.00652 -30.49623,9.00652c29.27593,57.42745 100.21693,102.47139 100.21693,102.47139c-7.88588,4.50326 -36.03364,9.00276 -36.03364,9.00276c13.51357,20.26939 78.8175,38.2881 78.8175,38.2881c-1.11876,11.26099 -42.78384,40.8152 -42.78384,40.8152c43.9139,23.92653 86.7015,31.24834 86.7015,31.24834c-184.66587,157.6425 -351.83951,67.56027 -351.83951,67.56027c33.25272,-25.90083 60.20086,-79.94378 60.20086,-79.94378c-16.88865,4.50514 -44.30499,0 -44.30499,0c40.1477,-27.02523 55.56597,-85.57896 55.56597,-85.57896c-16.89053,9.00464 -36.98694,9.00464 -36.98694,9.00464c33.94277,-37.15618 33.42194,-112.02131 33.42194,-112.02131c-10.13282,10.13659 -18.95509,7.30488 -18.95509,7.30488c37.16182,-63.05701 19.14311,-182.98677 19.14311,-182.98677c74.31424,112.03072 127.3343,145.8306 127.33242,145.82872z" fill="#13600f"/><path d="M387.40315,-100.79833c8.20929,0.34597 16.38098,-2.26198 23.70654,-5.95671c4.08397,-2.06078 7.95358,-6.48697 12.88931,-6.48697c4.75898,0 3.78689,3.52363 6.70883,0.43435c2.80914,-2.96895 6.67687,-3.32057 10.53707,-3.29424c0.01504,-0.03009 0.02068,-0.05641 0.03009,-0.0865c0.34785,-1.07739 0.90629,-1.98933 1.60952,-2.72828c-1.62269,-1.13944 -2.11531,-3.92414 -0.48134,-5.26478c7.19394,-5.89092 15.31675,-3.45032 18.5151,5.27231c2.73768,7.44777 -2.36727,11.04664 -8.20177,11.57875c-0.92322,2.66999 -2.98024,4.4713 -6.20116,4.64617c-2.16796,0.12223 -6.99275,-1.07551 -8.78654,0.43623c-1.8502,1.55123 -3.56876,3.03289 -5.95483,3.69475c-4.15353,1.13944 -7.59256,-2.07582 -9.45404,-5.3287c0.33469,0.58477 -14.10397,4.33028 -14.51198,4.45061c-6.65618,1.98933 -13.95354,2.47821 -20.6699,0.60169c-1.07551,-0.30084 -0.88373,-2.01565 0.26512,-1.96866z" fill="#fdfdfd"/><path d="M297.55406,-87.98049c10.40922,-4.01252 22.21361,-4.17233 30.86475,-11.77242c4.71197,-4.14225 9.67215,-6.42491 15.64392,-8.06074c6.77653,-1.8596 11.35501,-1.41772 17.56931,-5.93791c4.57472,-3.32997 7.65838,-3.35254 13.14315,-2.41804c1.36509,0.23503 1.02664,2.42556 -0.32341,2.38607c-12.54898,-0.37042 -9.33181,7.65273 -17.76299,10.74768c-5.00907,1.83703 -9.76429,2.73957 -14.5195,5.36443c-5.86647,3.23407 -10.23623,10.52767 -15.69279,14.71318c-5.02974,3.86021 -12.11275,5.10495 -18.39287,7.11122c-1.35381,2.66435 -4.23627,4.48446 -8.23374,3.49731c-1.50422,-0.37418 -2.78469,-0.95142 -4.11216,-1.74301c-6.03193,-3.63082 -4.1272,-11.59004 1.81635,-13.88773z" fill="#fdfdfd"/><path d="M348.3178,-151.89677c7.036,-1.59636 10.31896,-6.02441 16.03501,-9.43712c4.16293,-2.48761 8.89372,-2.48949 13.03408,-5.2441c4.32088,-2.88248 9.97487,-3.41835 15.09675,-2.16796c1.36509,-1.02852 3.09306,-1.52114 4.74017,-1.15825c1.98745,-0.52835 4.19302,0.0959 5.6164,2.59101c1.36697,2.39547 1.75994,3.99747 2.10215,6.71259c0.19742,1.59448 -0.33657,2.81666 -1.21278,3.72672c-1.42713,3.86209 -7.4835,5.84579 -10.67058,2.43496c-2.81102,-3.0122 -9.03473,-1.43465 -12.78589,-1.46849c-4.83043,-0.04137 -9.6383,-3.0705 -14.25815,-0.00564c-5.98116,3.97303 -10.6687,8.71696 -17.91529,5.65963c-0.72767,-0.30837 -0.4851,-1.48166 0.21811,-1.64337z" fill="#fdfdfd"/><path d="M324.41948,-263.48939c4.95642,8.1322 12.33086,14.08893 18.0582,21.60252c4.75334,6.22561 5.79502,13.42519 9.753,19.96479c1.34629,2.22249 -0.84988,4.24191 -3.01973,3.93354c-3.78689,-0.53587 -5.99808,-2.79222 -7.6941,-5.607c-1.37071,1.28047 -3.43903,1.80883 -5.48289,0.65058c-0.31025,-0.32717 -0.59229,-0.60357 -0.86493,-0.86304c-0.03197,0.04137 -0.06581,0.08274 -0.09402,0.12223c-0.67126,-0.67502 -1.36321,-1.18457 -2.06266,-1.61893c-0.68067,-0.10718 -0.88373,0.61297 -0.58288,2.20933c0.01128,5.19333 -8.25254,6.57909 -9.24345,1.25227c-1.77498,-9.56686 -0.69195,-18.36468 -4.13472,-27.6871c-0.33281,-0.89689 -0.36666,-1.69412 -0.19366,-2.38607c-1.12252,-2.01377 -2.3353,-4.05953 -3.58945,-6.22561c-3.42963,-5.93227 5.59571,-11.17073 9.15131,-5.3475z" fill="#fdfdfd"/><path d="M284.11008,16.41631l2.22814,-0.65246c2.05326,-0.60169 3.82824,-0.29708 5.27983,0.51331c9.89401,0.28956 21.28287,0.59417 28.89611,-5.70852c3.35066,-2.76589 8.66431,-7.10746 13.4045,-6.62045c8.53458,0.87621 16.42611,-0.13539 25.26154,-0.7352c0.04325,-0.26512 0.12411,-0.52271 0.15229,-0.79347c0.31025,-1.67158 1.98745,-3.24723 3.61577,-3.61577c4.90189,-1.115 10.99775,0.32341 15.08922,-2.61922c0.61109,-0.44187 1.56815,-0.49263 2.26762,-0.2952c10.22118,2.80914 12.18232,4.33781 21.41637,0.53776c1.15261,-0.47194 2.01941,1.24663 1.18081,2.03446c-4.3867,4.11404 -9.78309,7.60572 -16.19484,5.6239c-6.23499,-1.92353 -4.39422,-2.43308 -8.26759,1.44217c-2.10591,2.10779 -6.33277,2.32026 -9.75112,2.73016c-0.11846,0.48322 -0.20494,0.93638 -0.3629,1.44969c-0.7615,2.46317 -2.67563,3.64398 -5.12752,3.90721c-10.93758,1.17705 -19.33865,10.67622 -29.93968,2.98212c-2.67187,-1.94045 -15.26974,7.31616 -18.85355,8.81474c-9.04413,3.77749 -18.70124,4.46565 -28.34143,5.43588c-8.4951,0.8574 -9.64582,-12.1748 -1.95362,-14.43114z" fill="#fdfdfd"/><path d="M443.09511,7.54516c9.2754,2.81478 10.98271,-6.70695 19.18636,-6.70695c3.26228,0 5.02597,0.86304 7.46658,2.74897c-0.00376,-0.00376 8.10775,-1.5832 8.75457,-1.60576c13.23339,-0.43999 26.15467,-10.05761 39.46891,-12.0601c3.4804,-0.52835 7.04729,0.267 8.89184,3.61577c0.12787,0.23127 0.2576,0.46066 0.3817,0.69195c1.49106,2.70572 1.15449,6.11091 -1.07363,8.32024c-4.44873,4.41488 -13.91405,3.41083 -19.78429,4.65369c-6.71259,1.41584 -13.54363,4.02944 -20.45931,4.10464c-6.39107,0.07145 -16.04065,3.6421 -21.39193,-0.96271c-3.8132,-3.28672 -10.44307,2.26198 -14.65677,3.09494c-2.89938,0.57724 -5.82322,-1.17141 -8.28827,-2.3259c-2.02693,-0.94578 -0.58288,-4.2043 1.50422,-3.56876z" fill="#fdfdfd"/><path d="M361.54933,-45.37903c5.45281,-1.40268 11.8702,-0.08462 16.1892,-4.55027c1.13944,-1.17705 3.64022,-2.23942 5.15948,-2.08711c8.10211,0.82732 13.55304,4.55215 22.16848,-3.05357c3.83576,-3.38826 5.46597,-8.81098 10.94886,-10.31896c2.38795,-0.65998 5.62016,0.21811 7.76554,1.14697c5.56187,2.41428 5.84391,-3.63082 8.29955,-6.08458c4.71011,-4.71197 10.28888,-2.94639 14.71882,0.37794c8.17545,-1.23534 14.82223,4.2325 14.2431,13.50604c-0.28016,4.52207 -6.01313,5.75553 -8.11715,2.1642c-0.02256,0.02068 -0.04137,0.03761 -0.06769,0.05265c-1.3914,-0.23879 -2.79034,-0.47382 -4.18549,-0.70887c-2.95391,1.71105 -6.81414,1.24287 -9.22841,-1.19209c-1.37071,-1.38576 -9.90906,2.93323 -14.19609,2.36162c-10.26255,-1.35569 -14.41234,6.84608 -23.10298,10.38102c-6.1015,2.47821 -12.60163,0.37042 -18.18417,-2.13036c-2.21497,-0.99091 -6.40987,3.60637 -8.21494,4.10278c-4.14601,1.14132 -9.40515,-0.27828 -13.67902,-0.12787c-2.21497,0.07522 -2.6399,-3.29236 -0.51707,-3.83952z" fill="#fdfdfd"/><path d="M273.14806,93.46446c1.8972,1.5155 3.85456,1.74677 5.8834,0.70323c2.69632,-2.42744 6.88557,-3.42963 10.12342,-1.3068c10.90937,7.16761 29.99419,-0.68631 42.79324,-0.05829c5.85707,0.28768 7.07549,-4.91505 12.4512,-6.39107c3.17204,-0.87433 13.004,3.3657 14.54395,0.38546c1.16577,-2.2507 4.58412,-3.86209 7.03412,-2.86179c5.47349,2.2319 27.9823,5.05794 31.77293,-1.28235c0.53211,-0.88937 1.98933,-0.53587 1.96866,0.53211c-0.12035,6.10526 -1.98368,9.1908 -8.28639,10.23999c-7.29172,1.21466 -15.33179,3.11374 -23.0146,3.00468c-2.02317,3.87525 -4.92445,5.93039 -10.48068,6.53772c-4.45249,0.48698 -7.48162,-4.71761 -11.39449,0.18238c-1.90097,2.37667 -5.13316,4.03508 -8.1228,4.32464c-10.81159,1.05673 -21.13056,1.30304 -31.95721,3.18332c-7.16009,1.24287 -13.99491,1.44029 -20.48188,-0.88749c-5.23846,3.13819 -10.23059,2.78093 -17.40762,0.28956c-10.49006,-3.64398 -5.7198,-20.54015 4.57472,-16.59533z" fill="#fdfdfd"/><path d="M426.81565,107.9915c8.15288,0.86681 13.02092,-8.24126 20.56271,-9.81318c1.88968,-0.3911 3.8132,0.92322 5.43024,1.61893c4.94702,2.14164 11.84951,-2.22814 16.16099,-4.24567c8.21494,-3.84892 14.33524,-15.48221 22.93,-17.25531c6.65806,-1.37259 11.46029,-0.0865 16.37722,2.89938c2.23378,-1.65465 4.71385,-2.61922 7.99119,-3.29612c9.98615,-2.05326 12.09018,-12.34778 18.37408,-18.63356c4.61421,-4.61609 10.10838,-5.24786 13.90465,-11.8796c1.42524,-2.48197 3.32997,-4.37541 5.5017,-5.94167c0.96835,-4.37917 4.83795,-8.18673 10.36974,-6.64678c4.73641,1.31996 6.39671,3.95611 7.9517,8.40484c1.63021,4.65933 -1.83327,8.90124 -5.92288,10.44307c-8.92569,3.36006 -10.80595,14.17729 -21.19637,16.91874c-3.45972,0.91005 -8.34656,6.41927 -11.73857,8.2469c-6.51893,3.51047 -14.54959,7.62641 -18.99458,13.7768c-2.10027,2.90314 -5.41896,4.03508 -8.71696,2.28641c-8.57783,-4.54463 -19.9535,8.88244 -28.63664,10.33213c-6.82354,1.13756 -13.91593,2.31838 -20.85792,2.20369c-7.4741,-0.12599 -9.19268,-2.96143 -16.84166,1.60388c-4.93949,2.94639 -7.92537,2.72264 -12.91376,-0.03949c-0.43999,-0.24443 -0.27452,-1.04168 0.26512,-0.98339z" fill="#fdfdfd"/><path d="M249.78749,174.2036c-0.29332,-0.01504 -0.58665,-0.02821 -0.88561,-0.03949c1.57192,0.19366 3.03665,0.76714 4.319,1.60012c-1.65089,-2.71136 12.55274,1.64525 15.0911,2.83735c3.14759,1.47602 5.69912,3.31305 7.96486,5.45281c17.30796,-4.09901 40.68921,12.69751 55.91383,16.96198c18.04127,5.0523 41.22885,-1.88404 59.66875,-2.10967c10.45999,-0.12975 19.8407,-1.40832 30.00923,-3.77373c9.11559,-2.12471 18.58467,-0.69571 26.99327,-5.71604c11.4302,-6.81414 24.02055,-8.51202 35.7704,-14.2149c2.97836,-1.44405 14.00431,-0.79347 15.67399,-3.30929c2.28829,-3.4522 5.25726,-7.12626 9.47472,-8.28639c5.43964,-1.4967 9.8489,1.09431 14.25062,-3.57628c4.70823,-5.00719 11.44525,-5.47349 16.28884,-10.23059c6.62798,-6.51329 14.75265,-13.5568 23.96226,-15.78869c4.45437,-5.40391 10.62921,-4.33217 18.02811,-10.17983c4.03696,-3.19458 8.12468,-4.63301 13.02092,-5.8063c5.82134,-1.39704 8.19801,-5.72356 13.05101,-8.20177c4.22874,-2.16232 9.74548,2.38231 6.85925,6.85737c-1.78062,2.76589 -2.28829,10.46375 -9.29421,15.25846c-7.75238,5.30239 -18.0582,9.72668 -27.52538,12.99272c-1.35193,3.8226 -4.50514,6.23125 -8.61168,6.39483c-5.16324,0.20494 -10.04633,7.45153 -13.91217,10.2193c-6.64866,4.74393 -18.13904,3.49545 -22.67426,10.54835c-5.65399,8.79782 -16.59721,3.08742 -21.08356,10.7834c-5.53554,9.49729 -15.51982,4.4995 -22.6517,9.86019c-4.16857,3.13819 -8.31272,4.77026 -13.28604,6.17296c-7.03788,1.98556 -13.20144,5.70476 -20.08701,7.70539c-30.72374,8.92005 -61.71825,6.25568 -93.20913,6.95327c-14.55523,0.32153 -28.41665,0.87245 -42.43035,-3.48416c-4.82103,-1.4967 -13.25219,-0.59605 -18.67493,-1.56063c-5.22342,-0.92134 -15.61384,-8.15664 -20.28443,-2.64367c-5.10683,6.02629 -13.43459,2.92947 -17.42642,-2.24694c-6.89309,-8.92569 -22.94128,-4.89625 -26.30884,-17.43206c-1.94233,-7.26727 4.80787,-13.85576 12.00558,-11.99806z" fill="#fdfdfd"/></g><g stroke="#000000" stroke-width="0.25"><path d="M-378.17649,-265.64983c0,0 -18.01871,119.92976 19.14311,182.98677c0,0 -8.82226,2.8317 -18.95509,-7.30488c0,0 -0.52083,74.86515 33.42194,112.02131c0,0 -20.09641,0 -36.98694,-9.00464c0,0 15.41827,58.55373 55.56597,85.57896c0,0 -27.41634,4.50514 -44.30499,0c0,0 26.94814,54.04295 60.20086,79.94378c0,0 -167.17364,90.08225 -351.83951,-67.56027c0,0 42.7876,-7.3218 86.7015,-31.24834c0,0 -41.66508,-29.55421 -42.78384,-40.8152c0,0 65.30393,-18.01871 78.8175,-38.2881c0,0 -28.14775,-4.4995 -36.03364,-9.00276c0,0 70.94102,-45.04394 100.21693,-102.47139c0,0 -24.96821,-2.24882 -30.49623,-9.00652c-0.00188,0 53.01633,-33.798 127.33242,-145.82872z" fill="#13600f"/><path d="M-443.78503,-103.65448c-6.71635,1.87652 -14.01371,1.38764 -20.6699,-0.60169c-0.40803,-0.12035 -14.84667,-3.86585 -14.51198,-4.45061c-1.86148,3.25288 -5.30051,6.46816 -9.45404,5.3287c-2.38607,-0.66186 -4.10464,-2.14352 -5.95483,-3.69475c-1.79378,-1.51174 -6.61857,-0.31401 -8.78654,-0.43623c-3.22091,-0.17486 -5.27795,-1.97616 -6.20116,-4.64617c-5.83451,-0.53211 -10.93946,-4.13096 -8.20177,-11.57875c3.19834,-8.7226 11.32116,-11.16321 18.5151,-5.27231c1.63397,1.34065 1.14132,4.12532 -0.48134,5.26478c0.70323,0.73896 1.26167,1.65089 1.60952,2.72828c0.0094,0.03009 0.01504,0.05641 0.03009,0.0865c3.86021,-0.02633 7.72795,0.32529 10.53707,3.29424c2.92194,3.0893 1.94986,-0.43435 6.70883,-0.43435c4.93573,0 8.80534,4.42617 12.88931,6.48697c7.32556,3.69475 15.49725,6.30269 23.70654,5.95671c1.15073,-0.04513 1.34065,1.6697 0.26512,1.96866z" fill="#fdfdfd"/><path d="M-352.38284,-78.91565c-1.32748,0.79159 -2.60794,1.36883 -4.11216,1.74301c-3.99747,0.98715 -6.87993,-0.83296 -8.23374,-3.49731c-6.28012,-2.00625 -13.36314,-3.251 -18.39287,-7.11122c-5.45657,-4.18549 -9.82634,-11.47909 -15.69279,-14.71318c-4.75522,-2.62486 -9.51045,-3.52739 -14.5195,-5.36443c-8.43116,-3.09494 -5.21401,-11.11808 -17.76299,-10.74768c-1.35005,0.03949 -1.68848,-2.15104 -0.32341,-2.38607c5.48477,-0.9345 8.56843,-0.91193 13.14315,2.41804c6.21433,4.52019 10.79279,4.07833 17.56931,5.93791c5.97176,1.63585 10.93194,3.9185 15.64392,8.06074c8.65117,7.60008 20.45555,7.7599 30.86475,11.77242c5.94355,2.29581 7.8464,10.25691 1.81635,13.88773z" fill="#fdfdfd"/><path d="M-404.74481,-155.07632c-7.24659,3.05733 -11.93413,-1.6866 -17.91529,-5.65963c-4.61985,-3.06485 -9.42771,-0.03573 -14.25815,0.00564c-3.75116,0.03385 -9.97487,-1.54371 -12.78589,1.46849c-3.18708,3.41083 -9.24345,1.42713 -10.67058,-2.43496c-0.87621,-0.91005 -1.4102,-2.13224 -1.21278,-3.72672c0.34221,-2.71512 0.7352,-4.31712 2.10215,-6.71259c1.42336,-2.49513 3.62894,-3.11939 5.6164,-2.59101c1.64713,-0.3629 3.3751,0.12975 4.74017,1.15825c5.12187,-1.25039 10.77588,-0.71451 15.09675,2.16796c4.14037,2.75461 8.87115,2.75649 13.03408,5.2441c5.71604,3.41271 8.999,7.84076 16.03501,9.43712c0.70323,0.15981 0.9439,1.335 0.21811,1.64337z" fill="#fdfdfd"/><path d="M-371.91327,-262.96667c-1.25415,2.16608 -2.46505,4.21182 -3.58945,6.22561c0.1711,0.69195 0.13915,1.49106 -0.19366,2.38607c-3.4428,9.32241 -2.35974,18.12211 -4.13472,27.6871c-0.99091,5.32494 -9.25474,3.93918 -9.24345,-1.25227c0.30084,-1.59636 0.0959,-2.3165 -0.58288,-2.20933c-0.69947,0.43435 -1.39328,0.9439 -2.06266,1.61893c-0.02821,-0.04137 -0.06205,-0.08274 -0.09402,-0.12223c-0.27264,0.25948 -0.55468,0.53399 -0.86493,0.86304c-2.04386,1.15825 -4.11216,0.63177 -5.48289,-0.65058c-1.69788,2.81478 -3.90721,5.0711 -7.6941,5.607c-2.16984,0.30649 -4.36601,-1.71105 -3.01973,-3.93354c3.95987,-6.5396 5.00155,-13.73731 9.753,-19.96479c5.72544,-7.51171 13.0999,-13.47032 18.0582,-21.60252c3.5556,-5.82134 12.58095,-0.58288 9.15131,5.3475z" fill="#fdfdfd"/><path d="M-342.70879,26.02265c-9.64018,-0.97023 -19.2973,-1.65841 -28.34143,-5.43588c-3.58381,-1.49858 -16.18168,-10.7552 -18.85355,-8.81474c-10.60101,7.6941 -19.00208,-1.80507 -29.93968,-2.98212c-2.45188,-0.26324 -4.36601,-1.44405 -5.12752,-3.90721c-0.15793,-0.51331 -0.24443,-0.96647 -0.3629,-1.44969c-3.41835,-0.40991 -7.64521,-0.62237 -9.75112,-2.73016c-3.87337,-3.87525 -2.03257,-3.3657 -8.26759,-1.44217c-6.41175,1.9818 -11.80814,-1.50986 -16.19484,-5.6239c-0.8386,-0.78783 0.02821,-2.50642 1.18081,-2.03446c9.23405,3.80003 11.19517,2.27138 21.41637,-0.53776c0.69947,-0.19742 1.65653,-0.14667 2.26762,0.2952c4.09149,2.94263 10.18734,1.50422 15.08922,2.61922c1.62833,0.36854 3.30553,1.94421 3.61577,3.61577c0.02821,0.27076 0.10906,0.52835 0.15229,0.79347c8.83543,0.59981 16.72695,1.6114 25.26154,0.7352c4.74017,-0.48698 10.05385,3.85456 13.4045,6.62045c7.61325,6.30269 19.00208,5.99808 28.89611,5.70852c1.45157,-0.81039 3.22655,-1.115 5.27983,-0.51331l2.22814,0.65246c7.69222,2.25634 6.5396,15.28855 -1.95362,14.43114z" fill="#fdfdfd"/><path d="M-498.23788,6.28913c-2.46505,1.15449 -5.38887,2.90314 -8.28827,2.3259c-4.2137,-0.83296 -10.84356,-6.38166 -14.65677,-3.09494c-5.35126,4.6048 -15.00086,1.03416 -21.39193,0.96271c-6.91566,-0.07522 -13.74672,-2.68879 -20.45931,-4.10464c-5.87023,-1.24287 -15.33556,-0.23879 -19.78429,-4.65369c-2.22814,-2.20933 -2.56471,-5.61452 -1.07363,-8.32024c0.12411,-0.23127 0.25383,-0.46066 0.3817,-0.69195c1.84455,-3.34878 5.41144,-4.14413 8.89184,-3.61577c13.31424,2.00249 26.23552,11.62012 39.46891,12.0601c0.64682,0.02256 8.75833,1.602 8.75457,1.60576c2.4406,-1.88592 4.2043,-2.74897 7.46658,-2.74897c8.20365,0 9.91094,9.52173 19.18636,6.70695c2.08899,-0.63366 3.53116,2.62486 1.50422,3.56876z" fill="#fdfdfd"/><path d="M-418.71339,-46.36242c-4.27387,-0.15043 -9.53302,1.26919 -13.67902,0.12787c-1.80507,-0.49639 -5.99996,-5.09367 -8.21494,-4.10278c-5.58255,2.50077 -12.08266,4.60856 -18.18417,2.13036c-8.69064,-3.53492 -12.84042,-11.73669 -23.10298,-10.38102c-4.28704,0.5716 -12.82538,-3.7474 -14.19609,-2.36162c-2.41428,2.43496 -6.27448,2.90314 -9.22841,1.19209c-1.39516,0.23503 -2.7941,0.47006 -4.18549,0.70887c-0.02633,-0.01504 -0.04513,-0.03197 -0.06769,-0.05265c-2.10403,3.59133 -7.83699,2.35786 -8.11715,-2.1642c-0.57912,-9.27352 6.06766,-14.74139 14.2431,-13.50604c4.42993,-3.32433 10.00872,-5.08991 14.71882,-0.37794c2.45564,2.45376 2.73768,8.49886 8.29955,6.08458c2.1454,-0.92886 5.37759,-1.80695 7.76554,-1.14697c5.48289,1.50798 7.1131,6.9307 10.94886,10.31896c8.61544,7.60572 14.06636,3.88089 22.16848,3.05357c1.51926,-0.15229 4.02004,0.91005 5.15948,2.08711c4.319,4.46565 10.73639,3.14759 16.1892,4.55027c2.12283,0.54716 1.69976,3.91474 -0.51707,3.83952z" fill="#fdfdfd"/><path d="M-325.21846,105.23689c-7.17701,2.49137 -12.16916,2.84863 -17.40762,-0.28956c-6.48697,2.32778 -13.32177,2.13036 -20.48188,0.88749c-10.82663,-1.88028 -21.1456,-2.12659 -31.95721,-3.18332c-2.98964,-0.28956 -6.22185,-1.94798 -8.1228,-4.32464c-3.91286,-4.90001 -6.94198,0.30461 -11.39449,-0.18238c-5.55623,-0.60733 -8.45749,-2.66247 -10.48068,-6.53772c-7.68282,0.10906 -15.72288,-1.79002 -23.0146,-3.00468c-6.30269,-1.0492 -8.16604,-4.13472 -8.28639,-10.23999c-0.02068,-1.06799 1.43653,-1.42148 1.96866,-0.53211c3.79065,6.34029 26.29944,3.51423 31.77293,1.28235c2.45,-1.00031 5.86835,0.61109 7.03412,2.86179c1.53995,2.98024 11.37193,-1.25979 14.54395,-0.38546c5.37571,1.47602 6.59413,6.67875 12.4512,6.39107c12.79905,-0.62801 31.88387,7.2259 42.79324,0.05829c3.23783,-2.12283 7.42711,-1.12064 10.12342,1.3068c2.02881,1.04356 3.98619,0.81227 5.8834,-0.70323c10.29452,-3.9467 15.06478,12.94947 4.57472,16.59533z" fill="#fdfdfd"/><path d="M-483.19753,104.15008c-4.98839,2.76213 -7.97426,2.98588 -12.91376,0.03949c-7.64897,-4.56532 -9.36754,-1.72985 -16.84166,-1.60388c-6.94198,0.1147 -14.0344,-1.06611 -20.85792,-2.20369c-8.68312,-1.44969 -20.05881,-14.87676 -28.63664,-10.33213c-3.298,1.74865 -6.61669,0.61673 -8.71696,-2.28641c-4.44497,-6.15039 -12.47565,-10.26631 -18.99458,-13.7768c-3.39202,-1.82763 -8.27887,-7.33685 -11.73857,-8.2469c-10.39042,-2.74145 -12.2707,-13.55868 -21.19637,-16.91874c-4.08961,-1.54183 -7.55307,-5.78374 -5.92288,-10.44307c1.55499,-4.44873 3.21527,-7.08489 7.9517,-8.40484c5.53178,-1.53995 9.40139,2.26762 10.36974,6.64678c2.17172,1.56627 4.07645,3.45972 5.5017,5.94167c3.79629,6.63174 9.29045,7.26351 13.90465,11.8796c6.28388,6.28576 8.38791,16.58028 18.37408,18.63356c3.27732,0.6769 5.75741,1.64149 7.99119,3.29612c4.91693,-2.98588 9.71916,-4.27199 16.37722,-2.89938c8.59476,1.7731 14.71506,13.40638 22.93,17.25531c4.31148,2.01753 11.21398,6.3873 16.16099,4.24567c1.61704,-0.69571 3.54056,-2.01001 5.43024,-1.61893c7.54179,1.57192 12.40983,10.67998 20.56271,9.81318c0.54152,-0.05829 0.70511,0.74084 0.26512,0.98339z" fill="#fdfdfd"/><path d="M-294.42702,181.37686c-3.36758,12.53582 -19.41575,8.50638 -26.30884,17.43206c-3.99183,5.17641 -12.31957,8.27323 -17.42642,2.24694c-4.67062,-5.51298 -15.06102,1.72233 -20.28443,2.64367c-5.42272,0.96459 -13.85388,0.06393 -18.67493,1.56063c-14.01371,4.35661 -27.87512,3.80567 -42.43035,3.48416c-31.49089,-0.69759 -62.48539,1.96678 -93.20913,-6.95327c-6.88557,-2.00061 -13.04913,-5.7198 -20.08701,-7.70539c-4.97334,-1.40268 -9.11747,-3.03477 -13.28604,-6.17296c-7.1319,-5.36067 -17.11618,-0.3629 -22.6517,-9.86019c-4.48634,-7.69598 -15.42956,-1.98556 -21.08356,-10.7834c-4.53523,-7.05293 -16.0256,-5.80442 -22.67426,-10.54835c-3.86585,-2.76777 -8.74893,-10.01436 -13.91217,-10.2193c-4.10652,-0.16358 -7.25975,-2.57223 -8.61168,-6.39483c-9.4672,-3.26604 -19.773,-7.69034 -27.52538,-12.99272c-7.00592,-4.7947 -7.51359,-12.49257 -9.29421,-15.25846c-2.88624,-4.47506 2.6305,-9.01969 6.85925,-6.85737c4.853,2.47821 7.22966,6.80473 13.05101,8.20177c4.89625,1.17329 8.98396,2.6117 13.02092,5.8063c7.3989,5.84767 13.57372,4.7759 18.02811,10.17983c9.20961,2.2319 17.33428,9.2754 23.96226,15.78869c4.84359,4.7571 11.58063,5.22342 16.28884,10.23059c4.40174,4.67062 8.81098,2.07958 14.25062,3.57628c4.21746,1.16013 7.18642,4.83419 9.47472,8.28639c1.6697,2.51582 12.69563,1.86524 15.67399,3.30929c11.74985,5.70288 24.3402,7.40078 35.7704,14.2149c8.4086,5.02033 17.87768,3.59133 26.99327,5.71604c10.16855,2.36539 19.54926,3.64398 30.00923,3.77373c18.43988,0.22563 41.62747,7.16197 59.66875,2.10967c15.22461,-4.26447 38.60587,-21.061 55.91383,-16.96198c2.26574,-2.13976 4.81727,-3.97679 7.96486,-5.45281c2.53838,-1.19209 16.742,-5.54871 15.0911,-2.83735c1.28235,-0.83296 2.74709,-1.40644 4.319,-1.60012c-0.29896,0.01128 -0.59229,0.02445 -0.88561,0.03949c7.1977,-1.85584 13.9479,4.73265 12.00558,11.99806z" fill="#fdfdfd"/></g></g></g></svg>