<svg version="1.1" xmlns="http://www.w3.org/2000/svg" xmlns:xlink="http://www.w3.org/1999/xlink" width="27.98668" height="62.36567" viewBox="0,0,27.98668,62.36567"><g transform="translate(-226.00666,-148.81716)"><g data-paper-data="{&quot;isPaintingLayer&quot;:true}" fill-rule="nonzero" stroke="none" stroke-width="0.5" stroke-linecap="butt" stroke-linejoin="miter" stroke-miterlimit="10" stroke-dasharray="" stroke-dashoffset="0" style="mix-blend-mode: normal"><path d="M229.69941,160.52052c0.34219,-0.5659 1.07918,-0.5659 1.07918,-0.5659l0.36217,0.03732c5.29564,-1.32391 10.01903,-0.90501 15.37633,-0.36573c2.74845,0.27667 6.85356,-0.93779 7.46013,3.10535c0.09843,0.6561 -0.28024,1.29695 -0.42035,1.94542c-2.47432,4.12387 -0.6186,8.06843 -1.60163,12.45022c-0.37125,1.65482 -1.78033,3.51122 -2.36065,5.10189c-1.95291,5.35295 -3.81635,10.64453 -6.38725,15.79535c-1.2155,2.43099 -2.57836,4.20336 -4.0647,6.44705c-0.85989,1.29805 -1.38111,3.18639 -2.35997,4.37019c-1.22089,1.47651 -2.34355,2.94411 -4.48642,2.0873c-2.00783,-0.80282 -2.02313,-3.13444 -2.40453,-4.87263c-0.57793,-2.6338 -1.71726,-5.05171 -2.02038,-7.80243c-0.24774,-2.24817 0.11678,-4.4061 -0.33267,-6.65336c0,-4.03059 -0.83312,-7.98623 -1.32739,-11.94649c-0.77327,-6.1958 0.73009,-12.95587 3.0808,-18.59757c0,0 0.12707,-0.30497 0.40734,-0.536z" fill="#ff5405"/><path d="M234.52107,152.92585c0.45347,0.54024 0.75598,1.2015 0.98751,1.87454l0.75307,0.99342c0.60999,-0.88614 1.29217,-1.69166 1.99958,-2.48909l-0.4986,-0.66481l0.56318,-0.42239c-0.12949,-0.38486 -0.25526,-0.8044 -0.38219,-1.27193l1.2349,0.52842l0.46799,-0.46799l0.30695,0.30695c0.019,-0.00211 0.03813,-0.0038 0.05737,-0.00506l1.23958,-1.90542c0.2212,-0.35165 0.61273,-0.58535 1.05884,-0.58535c0.69036,0 1.25,0.55964 1.25,1.25c0,0.24076 -0.06806,0.46562 -0.186,0.65638l-0.56022,0.94293c0.03632,-0.0142 0.07296,-0.02841 0.10991,-0.04264l-0.35437,1.14281l1.06075,-0.8486c0.21512,-0.17514 0.48962,-0.28013 0.78864,-0.28013c0.69036,0 1.25,0.55964 1.25,1.25c0,0.31743 -0.11832,0.60723 -0.31327,0.82769l-1.58305,1.8092c-0.05904,0.11509 -0.12043,0.23106 -0.1852,0.3494l0.38009,0.57014c0.01907,0.02165 0.03822,0.04341 0.05744,0.06529c0.15459,0.17595 0.29274,0.41097 0.42683,0.66111c0.03445,0.05011 0.06533,0.10287 0.09229,0.15789c0.26243,-0.1862 0.51847,-0.37193 0.76934,-0.56138c0.68309,-0.72572 1.33344,-1.3621 2.038,-1.97005l-0.18584,-0.15929l1.62169,-1.89197c0.22929,-0.27078 0.57175,-0.44268 0.95436,-0.44268c0.11519,0 0.22675,0.01558 0.33267,0.04475c0.10592,-0.02917 0.21748,-0.04475 0.33267,-0.04475c0.33624,0 0.64146,0.13276 0.86613,0.34871c0.07273,0.01174 0.14337,0.02976 0.21132,0.05349c0.22838,-0.24732 0.55538,-0.4022 0.91856,-0.4022c0.69036,0 1.25,0.55964 1.25,1.25c0,0.20995 -0.05176,0.4078 -0.14321,0.58151l-0.65409,1.30818l-0.04312,-0.02156l-0.0116,0.11971c-0.56082,0.62157 -0.85286,1.75233 -1.68246,1.86471c-0.15677,0.02124 -0.32433,0.02975 -0.4969,0.02543c-1.11736,1.78392 -2.89577,3.54831 -4.37411,3.68175c-0.35059,0.03165 -0.71491,-0.02983 -1.08606,-0.1657l-0.2865,0.2292c-0.21512,0.17514 -0.48962,0.28013 -0.78864,0.28013c-0.21078,0 -0.40937,-0.05217 -0.58357,-0.1443c-0.81026,0.42132 -1.61716,0.70554 -2.37552,0.768c-0.0373,0.02505 -0.07693,0.04829 -0.11903,0.06961c-1.1125,0.56357 -2.33722,-0.90369 -3.40933,-1.54075c-0.0811,-0.04819 -0.16141,-0.09781 -0.24095,-0.14879c0.0415,0.35267 -0.0482,0.79831 -0.59314,1.1389c-1.06,0.6625 -1.7225,-0.3975 -1.7225,-0.3975c-1.19861,-1.92224 -2.21125,-3.90089 -3.10563,-5.95962c-0.42043,-0.53755 -0.89038,-1.19098 -1.54464,-2.01322l-0.01584,-0.13931l-0.04927,0.02463l-0.32142,-0.64284c-0.0081,-0.01538 -0.01589,-0.03096 -0.02336,-0.04671l-0.32056,-0.64111l0.21929,-0.10964c0.03802,-0.21829 0.13266,-0.41713 0.26824,-0.58083l-0.10038,-0.88259c0.30248,0.13685 0.58944,0.28581 0.86307,0.44538c0.06528,-0.01052 0.13224,-0.01599 0.20049,-0.01599c0.04751,0 0.09439,0.00265 0.14052,0.00781c0.0956,-0.09016 0.20541,-0.16542 0.32572,-0.22206l0.08497,-0.08497l0.03572,0.03572c0.12874,-0.04481 0.26706,-0.06916 0.41107,-0.06916c0.44077,0 0.82825,0.22813 1.05082,0.57276l1.31992,1.97988l-0.00957,0.00638c0.017,0.01975 0.03388,0.03961 0.05065,0.05958zM242.41507,158.88898c-0.14942,-0.15947 -0.29714,-0.32377 -0.44267,-0.49159c-0.10351,0.14627 -0.20897,0.29107 -0.31743,0.43339c-0.00703,0.19248 -0.00253,0.39548 0.0058,0.60279c0.27511,-0.16468 0.54227,-0.36914 0.7543,-0.54459z" fill="#05ff50"/></g></g></svg>