<svg version="1.1" xmlns="http://www.w3.org/2000/svg" xmlns:xlink="http://www.w3.org/1999/xlink" width="1370.45861" height="962.03097" viewBox="0,0,1370.45861,962.03097"><defs><radialGradient cx="-63.37408" cy="-29.08888" r="685.22931" gradientUnits="userSpaceOnUse" id="color-1"><stop offset="0" stop-color="#6bff66"/><stop offset="1" stop-color="#66e5ff"/></radialGradient></defs><g transform="translate(748.60339,510.10436)"><g data-paper-data="{&quot;isPaintingLayer&quot;:true}" fill-rule="nonzero" stroke-linecap="butt" stroke-linejoin="miter" stroke-miterlimit="10" stroke-dasharray="" stroke-dashoffset="0" style="mix-blend-mode: normal"><path d="M-748.60339,451.92661v-962.03097h1370.45861v962.03097z" fill="url(#color-1)" stroke="none" stroke-width="0"/><path d="M-424.24053,-250.44753c-8.03763,5.73417 -30.07672,-11.37652 -49.22567,-38.2178c-19.14895,-26.84128 -28.15647,-53.24889 -20.11884,-58.98306c8.03763,-5.73417 30.07672,11.37652 49.22569,38.2178c19.14895,26.84128 28.15647,53.24889 20.11884,58.98306z" data-paper-data="{&quot;index&quot;:null}" fill="#ffffff" stroke="none" stroke-width="0"/><path d="M-611.96738,-251.81008c-8.03763,-5.73417 0.96989,-32.14178 20.11884,-58.98306c19.14897,-26.84128 41.18806,-43.95197 49.22569,-38.2178c8.03763,5.73417 -0.96989,32.14178 -20.11884,58.98306c-19.14895,26.84128 -41.18804,43.95197 -49.22567,38.2178z" fill="#ffffff" stroke="none" stroke-width="0"/><path d="M-567.1864,-305.7276c0,-25.23156 20.45423,-45.68579 45.68579,-45.68579c25.23156,0 45.68579,20.45423 45.68579,45.68579c0,25.23156 -20.45423,45.68579 -45.68579,45.68579c-25.23156,0 -45.68579,-20.45423 -45.68579,-45.68579z" fill="#ffffff" stroke="#ffffff" stroke-width="2"/><path d="M-691.03218,-157.34182v-227.22673h343.84573v227.22673z" fill="none" stroke="none" stroke-width="0"/><path d="M-508.68974,-296.00223c0,4.4266 -5.47241,11.22108 -12.22295,11.22108c-6.75055,0 -12.22295,-6.79448 -12.22295,-11.22108c0,-4.4266 5.47241,-8.01504 12.22295,-8.01504c6.75055,0 12.22295,3.58847 12.22295,8.01504z" fill="#ffa4a4" stroke="none" stroke-width="0"/><path d="M-545.55898,-318.84513c0,-2.87729 1.88394,-5.20978 4.20791,-5.20978c2.32397,0 4.20791,2.33249 4.20791,5.20978c0,2.87729 -1.88394,5.20978 -4.20791,5.20978c-2.32397,0 -4.20791,-2.33249 -4.20791,-5.20978z" fill="#c49191" stroke="none" stroke-width="0"/><path d="M-506.92646,-319.08557c0,-3.0986 1.88394,-5.61053 4.20791,-5.61053c2.32397,0 4.20791,2.51193 4.20791,5.61053c0,3.0986 -1.88394,5.61053 -4.20791,5.61053c-2.32397,0 -4.20791,-2.51193 -4.20791,-5.61053z" fill="#c49191" stroke="none" stroke-width="0"/><path d="M-482.64033,-224.82104c0,11.68638 0.51867,25.09064 -8.51489,32.11357c-7.31211,5.68463 -23.03749,6.17427 -33.39069,6.17427c-10.8767,0 -29.24024,0.25745 -36.6887,-5.95095c-8.40061,-7.00203 -5.21691,-21.12881 -5.21691,-32.33689c0,-12.16671 2.90282,-25.58112 12.58608,-32.59434c7.1463,-5.17577 19.49202,-5.6935 29.3195,-5.6935c11.04143,0 24.39382,0.59326 31.87908,6.96986c8.20451,6.9893 10.02651,20.26041 10.02651,31.31798z" fill="#ffffff" stroke="none" stroke-width="0"/><path d="M-615.09415,-181.02568c-2.26522,-9.74565 13.61198,-21.76329 35.46274,-26.84217c21.85076,-5.07889 41.40061,-1.29573 43.66583,8.44992c2.26522,9.74565 -13.61198,21.76329 -35.46274,26.84217c-21.85076,5.07889 -41.40061,1.29573 -43.66583,-8.44992z" fill="#ffffff" stroke="none" stroke-width="0"/><path d="M-618.64304,-189.93847c0,-10.23668 8.29847,-18.53513 18.53513,-18.53513c10.23668,0 18.53513,8.29847 18.53513,18.53513c0,10.23668 -8.29845,18.53513 -18.53513,18.53513c-10.23668,0 -18.53513,-8.29845 -18.53513,-18.53513z" fill="#ffffff" stroke="none" stroke-width="0"/><path d="M-478.40181,-173.96787c-21.85076,-5.07889 -37.72796,-17.09652 -35.46274,-26.84217c2.26522,-9.74565 21.8151,-13.52881 43.66583,-8.44992c21.85076,5.07889 37.72796,17.09652 35.46274,26.84217c-2.26522,9.74565 -21.8151,13.52881 -43.66583,8.44992z" data-paper-data="{&quot;index&quot;:null}" fill="#ffffff" stroke="none" stroke-width="0"/><path d="M-449.72221,-172.79543c-10.23668,0 -18.53513,-8.29845 -18.53513,-18.53513c0,-10.23668 8.29845,-18.53513 18.53513,-18.53513c10.23668,0 18.53513,8.29847 18.53513,18.53513c0,10.23668 -8.29847,18.53513 -18.53513,18.53513z" data-paper-data="{&quot;index&quot;:null}" fill="#ffffff" stroke="none" stroke-width="0"/><path d="M-607.3208,-214.76959c-3.64662,-6.03097 8.50884,-20.05735 27.15005,-31.32876c18.64118,-11.27144 36.70903,-15.51964 40.35567,-9.48867c3.64662,6.03097 -8.50884,20.05732 -27.15005,31.32873c-18.64118,11.27141 -36.70903,15.51964 -40.35567,9.48867z" fill="#ffffff" stroke="none" stroke-width="0"/><path d="M-435.94083,-214.5587c-3.64664,6.03097 -21.71449,1.78274 -40.35567,-9.48867c-18.6412,-11.27141 -30.79667,-25.29776 -27.15005,-31.32873c3.64664,-6.03097 21.71449,-1.78277 40.35567,9.48867c18.6412,11.27141 30.79667,25.29778 27.15005,31.32876z" data-paper-data="{&quot;index&quot;:null}" fill="#ffffff" stroke="none" stroke-width="0"/><path d="M-660.34285,-109.28837v-290.06202h290.06202v290.06202z" fill="none" stroke="#000000" stroke-width="3.5"/><path d="M-214.81152,-338.22708c9.75204,-3.0087 23.00467,24.96006 29.6006,62.46998c6.59593,37.50989 4.03734,70.3567 -5.7147,73.3654c-9.75204,3.0087 -23.00467,-24.96006 -29.60058,-62.46998c-6.59593,-37.50989 -4.03734,-70.3567 5.7147,-73.3654z" data-paper-data="{&quot;index&quot;:null}" fill="#66e5ff" stroke="#000000" stroke-width="0.5"/><path d="M-275.62445,-257.01468c-6.59593,37.50989 -19.84854,65.47865 -29.60058,62.46998c-9.75204,-3.0087 -12.3106,-35.85551 -5.7147,-73.3654c6.59593,-37.50989 19.84854,-65.47865 29.60058,-62.46998c9.75204,3.0087 12.3106,35.85551 5.7147,73.3654z" fill="#66e5ff" stroke="#000000" stroke-width="0.5"/><path d="M-291.68059,-310.60384c0,-21.37999 20.54149,-38.71187 45.88073,-38.71187c25.33922,0 45.88073,17.3319 45.88073,38.71187c0,21.37999 -20.54151,38.71187 -45.88073,38.71187c-25.33922,0 -45.88073,-17.3319 -45.88073,-38.71187z" fill="#66e5ff" stroke="#000000" stroke-width="0.5"/><path d="M-191.29234,-214.28503c0,4.43217 1.34536,18.90121 -0.49378,27.52809c-2.3337,10.94662 -8.11641,15.8609 -9.86044,15.95938c-4.10815,0.23194 -7.00651,5.23888 -14.94899,-6.33441c-7.8499,-11.43844 -13.14163,-22.86655 -23.52594,-22.86655c-7.48627,0 -11.85217,2.53489 -17.03076,9.42259c-2.13485,2.83944 -4.9787,5.65357 -7.33519,10.54232c-1.20763,2.50529 0.81205,9.21314 -2.54811,11.07345c-1.7505,0.96913 -5.30689,3.09813 -8.20389,2.66152c-2.11382,-0.31858 -3.8766,-3.29607 -4.33056,-2.70107c-2.9262,3.83532 -5.85354,1.47108 -7.70682,-2.42789c-2.26404,-4.76318 -3.2638,-11.8168 -4.92221,-12.65593c-2.33962,-1.18378 -3.62899,-21.78087 -3.62899,-30.20152c0,-4.8488 0.41532,-9.57533 1.20354,-14.12604c0.54368,-3.13882 -18.37033,-2.11947 -26.69976,-8.33545c-8.14378,-6.07741 -5.71485,-19.39627 -4.55041,-22.07463c0.7912,-1.81989 -0.07054,-9.62209 5.9772,-9.5169c12.7254,0.22137 37.18478,10.17942 39.63104,7.13651c9.43797,-11.73985 22.40096,-18.98586 36.70623,-18.98586c14.85158,0 28.25643,7.81002 37.77202,20.35044c1.38922,1.83084 24.27591,-16.46742 35.12626,-16.76871c8.1074,-0.22516 4.93828,17.33267 5.74256,18.9421c0.7732,1.54726 6.41867,14.74394 0.04156,18.07474c-8.78643,4.5892 -30.51061,-0.44226 -29.79245,1.9462c2.18295,7.26 3.37792,15.13286 3.37792,23.3576z" fill="#66e5ff" stroke="#000000" stroke-width="0.5"/><path d="M-211.43912,-237.3278c0,19.08928 -15.88758,34.56417 -35.48589,34.56417c-19.59832,0 -35.48589,-15.47491 -35.48589,-34.56417c0,-19.08928 15.88758,-34.56417 35.48589,-34.56417c19.59832,0 35.48589,15.47491 35.48589,34.56417z" fill="#ebf160" stroke="none" stroke-width="0"/><path d="M-314.81167,-267.77535c0.80004,1.42228 0.2125,4.9578 0.26555,5.63971c0.47223,6.0701 -2.91493,12.78593 -3.01036,18.93593c-0.03272,2.10909 0.21941,7.99602 -2.7592,7.99602c-3.24421,0 -2.22099,-3.66789 -2.00099,-5.48878c0.7546,-6.2462 2.60364,-12.86134 2.72955,-19.11848c0.04617,-2.29418 0.32588,-4.48609 0.45492,-6.81227c0.00295,-0.05312 0.00456,-0.10905 0.00592,-0.16661c0.08537,-1.19485 1.08174,-2.13767 2.29836,-2.13767c0.74987,0 1.41609,0.3582 1.83688,0.91283c0.06868,0.07093 0.12913,0.15004 0.17936,0.2393z" fill="#ffffff" stroke="none" stroke-width="0.5"/><path d="M-315.2229,-241.42116c0.83873,-3.2346 2.33408,-5.66571 2.45967,-9.19867c0.13674,-3.84664 0.27964,-7.9296 1.2007,-11.61391c0.47533,-1.90133 2.46081,-7.65577 5.4625,-4.65408c1.75659,1.75659 -0.66066,3.61425 -0.84153,5.40269c-0.60614,5.99343 -0.85173,12.90072 -2.83746,18.5274c-1.00174,2.83848 0.10563,6.89018 -1.50585,9.35755c-0.38602,0.59104 -2.78042,1.69896 -3.37644,0.65592c-0.67918,-0.40083 -1.13477,-1.14014 -1.13477,-1.98585c0,-0.35766 0.08148,-0.69627 0.22689,-0.9983c0.27568,-1.8321 -0.12287,-3.68347 0.34629,-5.49276z" fill="#ffffff" stroke="none" stroke-width="0.5"/><path d="M-301.20883,-264.98482c1.69053,0.96601 2.17252,1.89221 2.20596,2.97227c0.03777,1.21977 -0.49653,2.63574 -0.50826,4.52691c-0.0024,0.38879 1.20969,14.38037 -0.48627,19.74989c-0.65484,2.07323 -0.84898,5.50616 -2.18327,7.17228c-1.24565,1.55546 -3.95286,1.29872 -4.37964,-0.90169c-0.58938,-3.03874 2.41635,-6.65832 2.44062,-9.8257c0.04235,-5.52397 -0.40893,-11.06701 0.04671,-16.57233c0.09711,-1.1733 -0.11883,-5.41708 0.87828,-5.98684z" fill="#ffffff" stroke="none" stroke-width="0.5"/><path d="M-301.53494,-254.44785c-1.61207,0.07549 -4.27233,-1.21291 -5.82803,-1.58726c-3.85842,-0.92843 -7.9058,-0.83184 -11.71003,-1.88146c-1.82093,-0.5024 -7.59562,-0.39506 -5.72996,-4.12638c0.90746,-1.81489 3.49856,-1.1183 5.06286,-0.72723c4.97494,1.24374 10.18318,1.23203 15.11418,2.78956c0.86005,0.27167 4.82185,0.62063 4.89633,1.96111c0.23412,0.36068 0.37014,0.79095 0.37014,1.253c0,1.13165 -0.81575,2.07276 -1.89129,2.26735c-0.08931,0.02885 -0.18375,0.04656 -0.28417,0.05127z" fill="#3826ff" stroke="none" stroke-width="0.5"/><path d="M-298.90455,-248.27451c-0.33324,0.58314 -0.44766,1.38657 -0.91283,1.83688c-0.07093,0.06868 -0.15004,0.12913 -0.2393,0.17936c-1.81598,1.02151 -4.79233,-0.16448 -6.62983,-0.73823c-4.40253,-1.37471 -9.05277,-1.95234 -13.42991,-3.47808c-1.80654,-0.62972 -6.44958,-0.28601 -5.79489,-3.55932c0.51904,-2.59514 3.12917,-1.77004 4.76132,-1.36609c5.30347,1.31254 10.84775,2.26599 15.99388,4.09307c0.95486,0.33903 4.71372,0.34114 5.1168,1.04655z" fill="#3826ff" stroke="none" stroke-width="0.5"/><path d="M-298.90455,-239.63096c-0.94225,1.64895 -1.79465,2.21787 -2.68205,2.27347c-1.38083,0.08651 -2.84638,-1.06985 -4.8671,-1.33394c-4.79213,-0.62633 -9.01248,-1.45659 -13.61428,-2.97839c-1.77903,-0.58831 -6.0169,-1.89137 -5.16329,-4.45219c0.58455,-1.75364 1.69579,-1.63786 2.91471,-1.45735c2.30398,0.34121 5.01897,1.95708 7.27125,2.76294c2.94436,1.05351 6.25578,1.10522 9.34329,1.60625c0.93624,0.15192 2.07608,1.26633 2.90163,1.27492c0.1674,0.00176 2.48996,-0.15598 2.76103,0.3184z" fill="#3826ff" stroke="none" stroke-width="0.5"/><path d="M-184.9128,-272.84309c1.2082,1.0969 1.76709,4.63707 2.03274,5.26731c2.36474,5.61046 1.27143,13.05222 3.1228,18.9177c0.6349,2.01151 2.73297,7.51765 -0.09325,8.4582c-3.07824,1.02438 -3.26551,-2.77894 -3.63173,-4.57614c-1.25627,-6.16491 -1.5906,-13.02547 -3.44687,-19.00225c-0.68059,-2.19139 -1.1073,-4.35948 -1.71936,-6.60739c-0.01399,-0.05134 -0.03012,-0.10491 -0.04698,-0.15994c-0.29629,-1.16067 0.35142,-2.36989 1.50577,-2.75402c0.7115,-0.23677 1.45676,-0.10727 2.03115,0.28613c0.08755,0.04562 0.1699,0.10159 0.24574,0.17045z" fill="#ffffff" stroke="none" stroke-width="0.5"/><path d="M-176.98149,-247.70728c-0.22553,-3.33396 0.42567,-6.11288 -0.57073,-9.50472c-1.08486,-3.69303 -2.23848,-7.61221 -2.52788,-11.39886c-0.14934,-1.95415 -0.08242,-8.04112 3.71349,-6.14079c2.22139,1.11208 0.51438,3.63795 0.90748,5.39201c1.3173,5.87819 3.26533,12.50968 3.15782,18.47551c-0.05424,3.00954 2.27587,6.50434 1.52591,9.35431c-0.17963,0.68267 -2.10171,2.48996 -2.99659,1.6885c-0.77099,-0.16586 -1.43675,-0.72349 -1.70378,-1.52596c-0.11291,-0.33936 -0.14253,-0.68636 -0.09993,-1.01886c-0.31692,-1.82541 -1.27965,-3.45626 -1.40579,-5.3211z" fill="#ffffff" stroke="none" stroke-width="0.5"/><path d="M-171.12473,-274.49048c1.90905,0.3828 2.65887,1.10941 3.03163,2.12363c0.42101,1.14542 0.36113,2.65768 0.94713,4.4558c0.12049,0.36964 5.68847,13.26269 5.77476,18.89303c0.03331,2.17393 0.93304,5.49254 0.19313,7.49472c-0.69077,1.8692 -3.34055,2.48042 -4.4403,0.52734c-1.5187,-2.69718 0.19033,-7.08066 -0.78677,-10.09367c-1.70403,-5.25473 -3.88247,-10.37171 -5.1885,-15.73922c-0.27833,-1.14393 -1.82324,-5.10241 -1.05705,-5.95786z" fill="#ffffff" stroke="none" stroke-width="0.5"/><path d="M-168.10706,-264.38962c-1.50577,0.58066 -4.43676,0.19813 -6.03107,0.33418c-3.95417,0.33737 -7.76398,1.707 -11.70505,1.91232c-1.88639,0.09827 -7.33175,2.02352 -6.73972,-2.10602c0.28796,-2.00859 2.96647,-2.16579 4.57421,-2.28863c5.11314,-0.39077 10.05122,-2.04641 15.22177,-2.12554c0.90183,-0.0138 4.77113,-0.93366 5.26508,0.31476c0.33604,0.2683 0.60094,0.63363 0.74684,1.07203c0.35734,1.07374 -0.11952,2.22428 -1.0786,2.74855c-0.07561,0.05558 -0.15965,0.10219 -0.25344,0.13837z" fill="#3826ff" stroke="none" stroke-width="0.5"/><path d="M-163.66199,-259.36272c-0.13203,0.65855 0.01305,1.45698 -0.28613,2.03115c-0.04562,0.08755 -0.10159,0.1699 -0.17045,0.24574c-1.40051,1.54265 -4.5991,1.35715 -6.52373,1.39296c-4.61139,0.08577 -9.20613,1.006 -13.84107,0.94045c-1.91297,-0.02705 -6.20991,1.76511 -6.6223,-1.54743c-0.32695,-2.62625 2.41018,-2.66754 4.0864,-2.79962c5.44657,-0.42921 11.00829,-1.27517 16.46804,-1.16649c1.01306,0.02016 4.5803,-1.16471 5.18546,-0.62266z" fill="#3826ff" stroke="none" stroke-width="0.5"/><path d="M-160.93273,-251.16136c-0.37338,1.86212 -1.00254,2.67108 -1.82698,3.00402c-1.28287,0.51807 -3.03857,-0.11635 -5.03931,0.2711c-4.74473,0.91885 -9.01134,1.46367 -13.85821,1.47278c-1.87378,0.00354 -6.3063,0.10526 -6.30497,-2.59408c0.00092,-1.84847 1.09187,-2.08953 2.30542,-2.30312c2.29385,-0.40375 5.38017,0.27219 7.77168,0.32566c3.12637,0.06989 6.28471,-0.92663 9.37249,-1.42612c0.93631,-0.15147 2.36972,0.54601 3.15577,0.29351c0.15937,-0.05122 2.31332,-0.9342 2.72031,-0.56969z" fill="#3826ff" stroke="none" stroke-width="0.5"/><path d="M-282.51535,-178.80795c5.05409,-0.02444 10.2471,-0.98532 15.16117,0.1964c4.75637,1.14378 8.10727,7.16547 6.9443,11.81742c-0.61694,2.46777 -9.44763,4.594 -10.98186,4.42999l-0.76485,0.11769l-0.17748,-0.01642l-0.1729,0.04324h-2.28281l-1.07079,0.13384l-0.14456,-0.01751l-0.14127,0.03532h-7.88668l-0.02152,0.01436l-0.06459,-0.01436h-0.06422l-0.51366,-0.12842l-0.51686,-0.11484l-0.05743,-0.0287l-0.06422,-0.01605l-0.01285,-0.02246l-0.16881,-0.08441l-0.11056,-0.09476l-0.13713,-0.04899l-0.45492,-0.30329l-0.0686,-0.07544l-0.0927,-0.04248l-0.36548,-0.2924l-0.11868,-0.02967l-0.54997,-0.29331l-0.17929,-0.00996l-0.13379,-0.15611l-0.218,-0.10325l-0.30045,-0.06677l-0.60656,-0.30329l-0.14286,-0.12245l-0.11477,-0.00639l-0.29725,-0.34681l-0.34681,-0.29725l-0.00637,-0.11479l-0.12245,-0.14286l-0.06001,-0.12004l-0.17139,-0.12854l-0.10459,-0.12871l-0.14224,-0.08532l-0.10271,-0.10271l-0.51495,-0.30897l-0.04025,-0.04025l-0.06236,-0.00347l-0.3533,-0.41217l-0.33351,-0.33351l-0.41217,-0.3533l-0.00196,-0.03527l-0.2864,-0.42961l-0.03118,-0.0873l-0.06779,-0.03874l-0.12589,-0.50356l-0.17458,-0.48882l0.03492,-0.06982l-0.02249,-0.08995v-0.90986l0.08983,-0.35937l0.02841,-0.36932l0.15165,-0.45492l0.42507,-0.66796l0.03036,-0.1518l0.03289,-0.02093v-0.25032l0.11026,-0.44102l-0.04636,-0.17l0.15234,-0.25388l0.0718,-0.28722l0.15298,-0.0874l0.23387,-0.38983l0.95518,-0.95518l0.00508,-0.02539l0.05585,-0.03554l0.0454,-0.0454l0.45403,-0.27241l0.17114,-0.1089l0.32266,-0.37646l0.06234,-0.00347l0.04025,-0.04025l1.46939,-0.88162l0.4093,-0.27286l0.0873,-0.03118l0.03874,-0.06779l0.08346,-0.02088c0.20665,-0.21874 0.45568,-0.39701 0.73397,-0.52171c1.06091,-0.85299 2.54732,-1.25498 3.97411,-1.26187zM-287.6193,-169.46546l0.00966,0.0058c0.00324,-0.0293 0.00689,-0.05857 0.01087,-0.08782z" fill="#eaf060" stroke="none" stroke-width="0.5"/><path d="M-209.29201,-178.51135c6.08481,-3.27665 22.60159,-8.13026 22.18898,3.5241c-0.0532,1.50211 -1.15745,3.53153 -2.12987,4.60076c-0.98443,1.08243 -0.88432,2.25247 -2.32838,3.22264c-3.16456,2.12606 -9.35832,1.79703 -13.14242,2.21463c-2.33752,0.25795 -5.32457,1.25385 -7.38889,0.01526c-3.53626,-2.12175 -2.79756,-3.97411 -3.04256,-7.52686c-0.14895,-0.30498 -0.23254,-0.6477 -0.23254,-1.00997c0,-0.73161 0.34094,-1.3836 0.87263,-1.8057c1.24842,-1.55593 3.43063,-2.28038 5.20304,-3.23482z" fill="#eaf060" stroke="none" stroke-width="0.5"/><path d="M-248.25662,-289.62183c-0.02397,0.05994 -0.04834,0.11861 -0.07309,0.17607h0.80901c-0.21057,-0.20564 -0.44281,-0.32137 -0.72572,-0.25064zM-261.16267,-289.68979c-0.84574,0 -1.58503,-0.45561 -1.98585,-1.13477l-0.03036,-0.01736l-0.01649,-0.06595c-0.17327,-0.3236 -0.27154,-0.69342 -0.27154,-1.08617v-0.75821l0.08983,-0.35937l0.02841,-0.36932l0.1041,-0.31229l-0.00681,-0.02496l0.03405,-0.05677l0.02031,-0.0609l0.28425,-0.44669l0.27241,-0.45403l0.0454,-0.04542l0.03554,-0.05582l0.02539,-0.00508l0.34862,-0.34859l0.1968,-0.11809l0.07403,-0.08143l0.35902,-0.71804l0.07378,-0.08609l0.27427,-1.09705l1.04623,-0.59785l0.20722,-0.34542l0.15326,-0.15326l0.1004,-0.19207l1.21313,-1.36478l0.05721,-0.03908l0.03566,-0.05942l0.75821,-0.75821l0.31763,-0.19058l0.25032,-0.21456l0.13508,-0.3377l0.69533,-0.96276l0.19454,-0.02714l0.09746,-0.17054l0.48261,-0.12066l0.03096,-0.04864l0.08862,-0.01771l0.07727,-0.0951l0.60656,-0.45492l0.34139,-0.14375l0.31251,-0.19888l0.29958,-0.09984l0.68423,-0.3421l0.68233,-0.4094l0.32598,-0.09922l0.30067,-0.16037l0.5207,-0.13017l0.8259,-0.27531l0.0901,-0.00693l0.07972,-0.04252l0.5207,-0.13017l0.21562,-0.07187l0.32561,-0.16282l0.01285,-0.02246l0.06422,-0.01605l0.05743,-0.0287l0.51686,-0.11484l0.51366,-0.12842h0.06422l0.06459,-0.01436l0.02152,0.01436h0.22805l0.39379,-0.07876l0.31882,-0.10627l0.36932,-0.02841l0.35937,-0.08983h0.68168l0.53447,-0.10689l0.22924,0.01092l0.22265,-0.05568h0.37841l0.53447,-0.10689l0.22924,0.01092l0.22265,-0.05568h6.21861l0.02152,-0.01436l0.06459,0.01436h0.06422l0.51366,0.12842l0.51686,0.11484l0.05743,0.0287l0.06422,0.01605l0.01285,0.02246l0.16881,0.08441l0.11056,0.09476l0.13713,0.04899l0.45492,0.30329l0.0686,0.07544l0.0927,0.04248l0.49155,0.39325l0.44115,0.17646l0.07925,0.05726l0.09545,0.0212l0.60656,0.30329l0.34515,0.29584l0.17277,0.03455l0.15895,0.2498l0.22481,0.19269l0.00978,0.17594l0.1597,0.25096l0.0421,0.03609l0.24125,0.11648l0.90986,0.75821l0.02132,0.0292l0.05194,0.01038l0.29891,0.46973l0.17327,0.23709l0.02571,0.00144l0.04307,0.05025l0.05137,0.03854l0.33388,0.41093l0.34458,0.40202l0.0287,0.05743l0.04173,0.05137l-0.00322,0.02568l0.16881,0.33762l0.02246,0.01285l0.01605,0.06422l0.0287,0.05743l0.11484,0.51686l0.05778,0.23105l0.55896,1.67691l0.02841,0.36932l0.08983,0.35937v2.20692l0.14766,2.51032l-0.01283,0.06811l0.01679,0.06722v1.51771l0.01436,0.02152l-0.01436,0.06459v0.06422l-0.12842,0.51366l-0.08817,0.39679l0.00104,0.00386l-0.00302,0.00505l-0.02469,0.11115l-0.0287,0.05743l-0.01605,0.06422l-0.02246,0.01285l-0.08441,0.16881l-0.24106,0.28123l-0.19058,0.31763l-0.75821,0.75821l-0.38981,0.23387l-0.0874,0.15298l-0.28725,0.0718l-0.25388,0.15234l-0.17,-0.04636l-0.44102,0.11026h-0.11259l-0.54341,0.09057l-0.21916,0.07306l-0.69533,0.27813l-0.06865,0.00936l-0.05847,0.0372l-1.20941,0.40315l-0.46009,0.23006l-0.24772,0.05506l-0.22392,0.1194l-0.5207,0.13017l-0.37098,0.12366l-0.36932,0.02841l-0.35937,0.08983h-0.68755l-0.10018,0.03339l-0.05117,0.00394l-0.04446,0.02566l-1.01336,0.28952l-0.86236,0.28744l-0.36932,0.02841l-0.35937,0.08983h-0.53004l-0.53447,0.10689l-0.22924,-0.01092l-0.22265,0.05568h-8.03701l-0.27521,-0.0688h-0.28365l-1.21313,-0.30329l-0.18662,-0.09951l-0.20802,-0.03822l-1.66805,-0.75821l-0.03425,-0.02724l-0.04272,-0.00949l-0.46009,-0.23006l-1.20941,-0.40315l-0.34213,-0.21773l-0.36868,-0.16896l-0.43178,-0.34542l-0.00966,-0.00577l-0.0609,-0.02031l-0.44669,-0.28425l-0.45403,-0.27241l-0.0454,-0.04542l-0.05585,-0.03554l-0.00508,-0.02539l-0.34862,-0.34859l-0.11806,-0.1968l-0.16983,-0.1544l-0.1836,-0.27538l-0.11826,-0.0961l-0.42133,-0.2681l-0.01773,-0.08862l-0.0951,-0.07727l-0.45492,-0.60656l-0.06798,-0.16143c-0.42222,0.47825 -1.03989,0.77986 -1.72801,0.77986zM-256.65781,-295.00552l-0.05357,0.08931l0.03599,0.07197l0.05503,0.24772l0.03891,0.07296c-0.00991,-0.18461 -0.01241,-0.3686 -0.00703,-0.55131z" fill="#eaf060" stroke="none" stroke-width="0.5"/><path d="M-244.17879,-284.78808c-0.23043,0 -0.23043,-0.23043 -0.23043,-0.23043v-0.15165c0,-1.70916 -0.15165,-3.30724 -0.15165,-5.00419c0,-2.62845 0,-5.25691 0,-7.88536c0,0 0,-0.02972 0.01067,-0.06781l-0.17842,-0.28063c-0.42507,-0.28908 -0.78214,-0.66184 -1.15354,-1.03325c-1.07924,-2.15509 -3.6066,-3.60239 -5.28346,-5.27927c0,0 -0.16294,-0.16294 0,-0.32586c0.16294,-0.16294 0.32586,0 0.32586,0c1.69086,1.69086 4.24499,3.15931 5.33146,5.33567c0.35127,0.35127 0.7112,0.71886 1.11941,0.98743l0.00074,0.00708l0.02712,0.00902c0.07918,-0.71566 0.81948,-1.35435 1.33236,-1.75996c1.62475,-1.28488 3.06698,-2.92536 4.54333,-4.37625c0.54631,-0.53216 0.76262,-0.93898 1.25422,-1.54939l0.33111,-0.08589c0,0 0.23043,0 0.23043,0.23043c0,0.23043 -0.23043,0.23043 -0.23043,0.23043l0.02781,-0.08589c-0.4864,0.60396 -0.74372,1.04657 -1.2901,1.58902c-1.98254,1.94836 -4.32904,3.70205 -5.83408,6.02988l-0.1138,0.34139c-0.00087,0.00285 -0.00181,0.00565 -0.00277,0.00842c0.0129,0.04166 0.0129,0.07542 0.0129,0.07542c0,2.62845 0,5.25691 0,7.88536c0,1.69534 0.15165,3.29528 0.15165,5.00419v0.15165c0,0 0,0.23043 -0.23043,0.23043z" fill="#c7cb51" stroke="none" stroke-width="0.5"/><path d="M-274.06238,-318.89063c0,-3.6906 2.99183,-6.68241 6.68241,-6.68241c3.6906,0 6.68241,2.99183 6.68241,6.68241c0,3.6906 -2.99183,6.68241 -6.68241,6.68241c-3.6906,0 -6.68241,-2.99183 -6.68241,-6.68241z" fill="#000000" stroke="none" stroke-width="0.5"/><path d="M-230.84448,-320.25543c0,-3.6906 2.99183,-6.68241 6.68241,-6.68241c3.6906,0 6.68241,2.99183 6.68241,6.68241c0,3.6906 -2.99183,6.68241 -6.68241,6.68241c-3.6906,0 -6.68241,-2.99183 -6.68241,-6.68241z" fill="#000000" stroke="none" stroke-width="0.5"/><path d="M-267.41555,-320.25543c0,-1.52712 1.23799,-2.76512 2.76512,-2.76512c1.52712,0 2.76512,1.23799 2.76512,2.76512c0,1.52712 -1.23799,2.76512 -2.76512,2.76512c-1.52712,0 -2.76512,-1.23799 -2.76512,-2.76512z" fill="#ffffff" stroke="none" stroke-width="0.5"/><path d="M-225.71408,-321.46853c0,-1.52712 1.23799,-2.76512 2.76512,-2.76512c1.52712,0 2.76512,1.23799 2.76512,2.76512c0,1.52712 -1.23799,2.76512 -2.76512,2.76512c-1.52712,0 -2.76512,-1.23799 -2.76512,-2.76512z" fill="#ffffff" stroke="none" stroke-width="0.5"/><path d="M-247.45911,-216.07738c-0.22833,-0.61912 -0.2393,-1.5293 -0.19127,-2.38675c-0.56137,-0.27714 -1.26982,-0.81168 -1.4582,-1.78559c-0.48124,0.83771 -0.90208,1.66683 -1.18735,2.11509c-0.3668,0.57635 -0.63849,1.21605 -1.05772,1.75547c-0.10291,0.1324 -0.61437,0.13005 -0.46175,0.19955c0.82773,0.37693 3.40351,0.12269 4.35629,0.10226zM-245.09702,-223.04464l3.14024,2.46549c0,1.16835 0.14075,2.91203 0.08812,4.61921c0.44058,-0.11868 0.77956,-0.11868 0.77956,-0.11868c0.43387,0.11554 0.88343,0.5101 1.3016,0.34661c0.89245,-0.34884 0.25109,-1.90774 0.22662,-2.86562c-0.05394,-2.10991 1.07639,-3.98853 -1.58149,-4.19699c-0.87031,-0.06826 -2.5335,-0.26773 -3.95467,-0.25005zM-243.11748,-211.34803c-0.03403,0.03695 -0.06893,0.07279 -0.10474,0.10749c-1.00514,0.97415 -2.76118,0.46146 -4.14178,0.69218c-3.04231,-0.00845 -7.68027,0.15742 -9.41935,-3.20156c-0.67871,-1.31088 -0.15187,-2.99012 0.19875,-4.42405c0.64795,-2.64988 4.5599,-8.27135 6.99324,-9.50199c1.01383,-0.51275 2.22196,-0.5016 3.35239,-0.61521c4.13019,-0.41512 9.87726,-0.45313 11.99785,4.01181c0.48288,1.01668 0.16881,2.24524 0.21049,3.36997c0.1357,3.66301 0.62445,7.54177 -3.07597,10.01442c-1.10794,0.74033 -2.655,0.23107 -3.98251,0.34661c0,0 -1.20924,0 -2.02838,-0.79967z" fill="#67e4ff" stroke="none" stroke-width="0.5"/><path d="M-369.05364,-108.06115v-290.06202h290.06202v290.06202z" fill="none" stroke="#000000" stroke-width="3.5"/><path d="M35.82349,-349.82346c20.18539,0 36.54886,15.47553 36.54886,34.56558c0,19.09005 -16.3635,34.56558 -36.54886,34.56558c-20.18539,0 -36.54886,-15.47553 -36.54886,-34.56558c0,-19.09005 16.3635,-34.56558 36.54886,-34.56558z" data-paper-data="{&quot;index&quot;:null}" fill="#000000" stroke="none" stroke-width="0"/><path d="M1.38025,-326.69973c0.18053,-6.43633 12.04007,-7.61862 17.45272,-1.29942c6.0311,7.04121 6.14874,22.08528 16.53535,22.37659c10.21025,0.28635 9.22218,-19.91442 15.94291,-27.44128c6.25184,-7.00176 18.27176,0.01303 18.08784,6.57114c-0.18687,6.66337 2.58875,23.24065 -3.60273,31.80624c-6.45285,8.92718 -19.76158,8.0698 -29.81939,7.78773c-8.75257,-0.24546 -23.01934,0.05052 -29.03901,-6.83963c-7.53486,-8.62448 -5.76981,-25.39675 -5.55765,-32.96136z" data-paper-data="{&quot;index&quot;:null}" fill="#ffffff" stroke="none" stroke-width="0"/><path d="M78.03883,-246.41002c0,29.26097 -18.39306,52.98168 -41.08206,52.98168c-22.689,0 -41.08206,-23.72071 -41.08206,-52.98168c0,-29.26097 18.39306,-52.98168 41.08206,-52.98168c22.689,0 41.08206,23.72071 41.08206,52.98168z" fill="#e7e6e7" stroke="#000000" stroke-width="2"/><path d="M70.16679,-250.37657c0,15.80406 -14.71445,28.61577 -32.86564,28.61577c-18.15119,0 -32.86564,-12.81171 -32.86564,-28.61577c0,-6.6205 -3.08429,-20.64895 1.25102,-25.49736c6.01368,-6.72543 21.06716,-3.11842 31.61462,-3.11842c8.45626,0 18.99985,-2.31914 24.82392,2.24937c6.67716,5.23769 8.04172,17.92514 8.04172,26.3664z" fill="#ffffff" stroke="none" stroke-width="0"/><path d="M-14.98386,-260.3344c0.66702,-0.8414 1.43345,-1.59749 2.35669,-2.1006c3.26484,-1.77918 8.25058,-1.11619 11.9018,-1.11619c0,0 4.95817,0 4.95817,4.95817c0,0.47134 -0.0448,0.89785 -0.12589,1.28384c2.59906,0.15464 4.65909,2.31139 4.65909,4.9493c0,2.73832 -2.21985,4.95817 -4.95817,4.95817h-1.2269c-1.21813,0.34867 -2.39144,0.89265 -3.64538,1.06928c-0.53828,0.07581 -1.09734,-0.28343 -1.62401,-0.14872c-0.36657,0.09377 -0.49175,0.60342 -0.82848,0.77597c-0.76215,0.39052 -1.66547,0.46502 -2.41209,0.8845c-0.73188,0.41118 -1.18227,1.27222 -1.96532,1.57477c-0.93619,0.36167 -2.00272,0.16859 -2.99156,0.34027c-1.04848,0.18204 -2.10278,0.34096 -3.15978,0.49075c-0.08426,0.0316 -0.16621,0.06855 -0.24475,0.11336c-1.65782,0.9457 -3.08307,2.26745 -4.74959,3.19777c-0.19588,0.10935 -0.50448,0.04196 -0.63428,0.22491c-0.48877,0.68894 -0.59002,1.61978 -1.13331,2.26659c-0.50259,0.59839 -1.35636,0.80747 -1.91103,1.35792c-0.36932,0.36652 -0.47986,0.93111 -0.8049,1.33741c-1.50724,1.88404 -3.18219,3.11361 -5.28556,4.18639l-0.70932,0.70932c-0.89725,0.89725 -2.13681,1.45223 -3.50597,1.45223c-2.73832,0 -4.95817,-2.21985 -4.95817,-4.95817v-1.69995c-0.20291,-0.52907 0,-1.13331 0,-1.69995c0,-2.75031 -0.18927,-5.31234 0.87462,-7.95335c1.85127,-4.59559 5.6033,-6.94895 9.83825,-8.96693c1.85863,-0.88564 3.42617,-2.61028 5.19348,-3.70225c2.1883,-1.3521 4.58939,-2.7484 7.0923,-3.78484z" fill="#e6e6e6" stroke="none" stroke-width="0.5"/><path d="M110.3378,-224.16905c-4.95817,0 -4.95817,-4.95817 -4.95817,-4.95817v-0.39149c-0.74244,-0.24559 -1.40718,-0.66189 -1.94766,-1.20241l-0.39488,-0.39491c-0.66328,-0.12527 -1.3591,-0.16881 -1.94192,-0.4964c-1.14074,-0.64119 -1.79832,-1.92944 -2.87503,-2.67313c-1.49832,-1.03491 -3.19537,-1.77945 -4.62531,-2.90693c-0.77453,-0.6107 -1.01435,-1.23782 -1.86819,-1.64694c-0.78711,-0.37715 -1.73611,-0.4569 -2.42066,-0.99838c-0.77728,-0.61484 -1.03144,-1.74903 -1.81685,-2.35349c-0.58955,-0.45373 -1.45302,-0.36249 -2.12551,-0.68059c-0.67254,-0.31811 -1.14331,-1.1473 -1.88585,-1.19389c-1.14668,-0.07195 -2.26513,-0.38686 -3.39989,-0.56664c-1.60422,-0.25418 -3.24805,0.06402 -4.87228,0.06402c0,0 -4.95817,0 -4.95817,-4.95817c0,-1.01423 0.20747,-1.82098 0.53754,-2.46271c-0.09258,-1.92104 0.39414,-4.01706 0.6158,-5.54331c1.29768,-1.08258 2.49689,-2.29556 3.89307,-3.24775c0.49345,-0.33656 1.16164,-0.30783 1.69995,-0.56664c0.84921,-0.40833 1.5374,-1.15934 2.44154,-1.42474c2.91714,-0.85631 8.28567,-0.36865 10.93411,0.83516c1.02275,0.46487 1.78861,1.36554 2.74238,1.95921c2.29923,1.4311 4.87743,2.57862 7.24841,3.89585c2.97353,1.65197 3.30028,1.34382 5.75462,3.28725c0.66826,0.52914 0.99892,1.44472 1.72984,1.88329c0.82793,0.49677 1.95829,0.55624 2.59923,1.27836c0.89468,1.00799 1.22504,2.40288 1.76444,3.638c1.12627,2.57904 1.63771,5.45893 2.45702,8.14014c0,1.14893 0.3958,2.26374 0.56664,3.39989c0.07856,0.52246 0.06402,3.39187 0.06402,4.19411v1.13331c0,0 0,4.95817 -4.95817,4.95817z" fill="#e6e6e6" stroke="none" stroke-width="0.5"/><path d="M13.01588,-199.09484h9.91637l-0.20051,0.56231c0.05961,-0.02009 0.12579,-0.02046 0.20051,0.00433c0,0.56664 0,1.13331 0,1.69995c0,2.07771 0.74585,4.29392 0,6.23314c-0.99335,2.58271 -3.30546,4.43874 -4.95817,6.65812l-4.95817,-6.65812c-1.78163,-1.06896 0,-4.15543 0,-6.23314c0,-0.84252 0.01231,-1.64239 0.06192,-2.39193c0.03554,-0.5368 0.0902,-1.04776 0.17322,-1.53009c0.52087,-3.02683 2.15732,-4.92585 7.17991,-4.99904c1.91928,-0.02796 4.03207,0.84098 5.27912,2.30019c1.32176,1.54659 1.24926,3.87811 1.69705,5.86266c0.73654,3.26439 0.86493,7.0233 0.62497,10.39125c-0.08569,1.20265 0.21624,2.54794 -0.37742,3.59736c-0.88586,1.56598 -2.15154,3.13513 -3.81664,3.81664c-1.98722,0.81334 -4.28808,0.51926 -6.43061,0.37742c-1.65373,-0.10949 -3.67973,0.05634 -4.84338,-1.12382c-1.54778,-1.56975 -1.8213,-4.04071 -2.35726,-6.17905c-0.26922,-1.07409 -0.02625,-2.21453 -0.02412,-3.3218c0.00797,-4.14156 0.75113,-6.57844 2.63584,-10.26553c0.14419,-0.15209 0.28836,-0.30419 0.43253,-0.45628c0.40568,-0.42797 0.81139,-0.85592 1.21707,-1.28389z" fill="#000000" stroke="none" stroke-width="0.5"/><path d="M51.10178,-194.36041c-1.46409,-0.40471 -3.52033,-1.54146 -3.52033,-4.73445c0,-4.95817 4.95817,-4.95817 4.95817,-4.95817l2.13455,0.25445c1.21266,0.58814 2.63001,0.86976 3.638,1.76441c0.72213,0.64094 0.76096,1.78405 1.27836,2.59923c0.17116,0.26969 0.55168,0.34612 0.74999,0.59653c1.20733,1.52447 2.76433,4.20429 3.25778,5.97081c0.45041,1.61244 0.21986,4.49092 0.13263,6.23899c-0.23006,4.61084 0.76609,7.27927 -4.19407,9.68059c-2.83229,1.37117 -8.34135,-0.14798 -10.33867,-2.09609c-0.97311,-0.94914 -0.62081,-2.6477 -0.98609,-3.95707c-1.21528,-4.35624 -2.28801,-8.10064 -2.33061,-12.69384c0,0 0,-4.95817 4.95817,-4.95817c4.95817,0 4.95817,4.95817 4.95817,4.95817c-0.03487,2.62382 0.33747,4.67392 0.96719,7.22714c0.20371,0.82595 1.29687,3.36363 1.23537,3.87829c-0.0448,0.37487 -0.70826,-0.30154 -0.98609,-0.55715c-0.40831,-0.37569 -0.59324,-0.96826 -1.03567,-1.30306c-0.11016,-0.08337 -0.14174,0.23987 -0.23662,0.34027c-0.50192,0.53103 -0.84447,1.74007 -1.55006,1.55006c-0.67698,-0.18231 -0.30755,-1.37154 -0.37742,-2.06912c-0.10439,-1.04249 0.42322,-3.03418 0.13265,-3.96069c-0.45145,-1.43947 -2.11439,-2.41162 -2.79204,-3.63233c-0.02266,-0.04082 -0.04057,-0.08805 -0.05342,-0.13882z" fill="#000000" stroke="none" stroke-width="0.5"/><path d="M63.20751,-289.70943c2.21737,4.43472 -2.21737,6.6521 -2.21737,6.6521l-3.35066,1.09009c0.55426,-1.05938 -0.19009,0.36984 -0.22657,0.3928c-0.50549,0.31818 -1.18378,0.26607 -1.69995,0.56664c-0.68371,0.39818 -1.10532,1.20917 -1.84255,1.49639c-0.87608,0.34129 -1.8804,0.13307 -2.80313,0.3134c-2.03185,0.39709 -3.77796,0.63066 -5.89406,0.63066c-3.39989,0 -6.79978,0 -10.19968,0c-1.88,0 -4.04742,0.2309 -5.89406,-0.06402c-1.49475,-0.23873 -2.90636,-0.8502 -4.37486,-1.21731c-2.13319,-0.5333 -4.66426,-1.05262 -6.64234,-2.05607c-0.3792,-0.19236 -0.56114,-0.69013 -0.95838,-0.84187c-0.24133,-0.09218 -0.49479,0.21569 -0.75172,0.18862c-1.35279,-0.14266 -2.68463,-0.56961 -4.04462,-0.54252c0,0 -4.95817,0 -4.95817,-4.95817c0,-4.95817 4.95817,-4.95817 4.95817,-4.95817c1.68536,0.01858 3.35207,0.36073 5.02175,0.59079c0.87667,0.12079 1.80459,-0.07878 2.64819,0.18862c0.89822,0.28472 1.59647,1.00791 2.44151,1.42474c2.32437,1.14648 5.74484,1.93434 8.24887,2.3931c1.2772,0.234 2.99768,-0.06402 4.30564,-0.06402c3.39989,0 6.79978,0 10.19968,0c0.86882,0 1.75258,0.22857 2.60567,0.06402c0.58648,-0.11313 1.10624,-0.50118 1.69995,-0.56664c0.22332,-0.02462 0.39166,0.40519 0.59673,0.3134c0.26751,-0.11972 0.17602,-0.61409 0.42403,-0.77022c0.50549,-0.31818 1.18378,-0.26607 1.69995,-0.56664c0.68371,-0.39818 1.09447,-1.23869 1.84255,-1.49639c1.13997,-0.39265 2.39825,-0.25161 3.59736,-0.37742l-1.08407,-0.04319c0,0 4.43472,-2.21737 6.6521,2.21737z" fill="#000000" stroke="none" stroke-width="0.5"/><path d="M27.96148,-305.36162c0.47746,-1.59746 2.6845,-3.10177 2.87493,-4.66431l0.53048,-1.59147c0.62311,-2.02603 2.50952,-3.49874 4.7399,-3.49874c1.20783,0 2.31481,0.43188 3.17489,1.14965c0.75066,-0.01461 1.49077,0.00374 2.12242,0.36105c1.56598,0.88586 2.93078,2.25066 3.81664,3.81664c0.74085,1.30965 0.06063,3.01982 0.3134,4.50311c0.20069,1.17761 0.9449,2.22025 1.13331,3.39989c0.21064,1.31888 0.14429,2.69946 0.56664,3.96653l-0.28304,0.66818c0.01654,0.04173 0.03252,0.08374 0.04795,0.12601h0.29908v1.69995c0,2.73832 -2.21985,4.95817 -4.95817,4.95817c-0.88289,0 -1.71191,-0.23075 -2.42997,-0.63527c-0.86852,0.74902 -1.99962,1.20193 -3.23651,1.20193c-1.36916,0 -2.60872,-0.55498 -3.50597,-1.45223l-1.13331,-1.13331l0.18739,-0.18739c-0.0323,-0.06568 -0.06318,-0.13218 -0.09263,-0.19945c-0.27575,-0.15841 -0.54507,-0.32838 -0.80648,-0.51248c-0.79962,-0.56315 -0.73193,-1.81481 -1.05271,-2.73872c-0.07965,-0.22937 -0.15251,-0.46123 -0.21906,-0.69516c-2.01931,-2.11172 -2.91748,-5.77149 -2.08921,-8.5427z" data-paper-data="{&quot;index&quot;:null}" fill="#000000" stroke="none" stroke-width="0.5"/><path d="M57.07281,-301.23331c-2.73832,0 -4.95817,-2.21985 -4.95817,-4.95817c0,-2.73832 2.21985,-4.95817 4.95817,-4.95817c2.73832,0 4.95817,2.21985 4.95817,4.95817c0,2.73832 -2.21985,4.95817 -4.95817,4.95817z" data-paper-data="{&quot;index&quot;:null}" fill="#0043fd" stroke="none" stroke-width="0.5"/><path d="M17.40739,-299.53336c-2.73832,0 -4.95817,-2.21985 -4.95817,-4.95817c0,-2.73832 2.21985,-4.95817 4.95817,-4.95817c2.73832,0 4.95817,2.21985 4.95817,4.95817c0,2.73832 -2.21985,4.95817 -4.95817,4.95817z" data-paper-data="{&quot;index&quot;:null}" fill="#0043fd" stroke="none" stroke-width="0.5"/><path d="M57.07281,-303.07492c-1.40829,0 -2.54992,-1.14163 -2.54992,-2.54992c0,-1.40829 1.14163,-2.54992 2.54992,-2.54992c1.40829,0 2.54992,1.14163 2.54992,2.54992c0,1.40829 -1.14163,2.54992 -2.54992,2.54992z" data-paper-data="{&quot;index&quot;:null}" fill="#000000" stroke="none" stroke-width="0.5"/><path d="M17.97406,-301.94162c-1.40829,0 -2.54992,-1.14163 -2.54992,-2.54992c0,-1.40829 1.14163,-2.54992 2.54992,-2.54992c1.40829,0 2.54992,1.14163 2.54992,2.54992c0,1.40829 -1.14163,2.54992 -2.54992,2.54992z" data-paper-data="{&quot;index&quot;:null}" fill="#000000" stroke="none" stroke-width="0.5"/><path d="M-88.92066,-106.83395v-290.06202h290.06202v290.06202z" fill="none" stroke="#000000" stroke-width="3.5"/><path d="M401.06565,-207.5403c-4.48753,4.56839 -17.10492,-0.54878 -28.18171,-11.42952c-11.07679,-10.88074 -16.41843,-23.40473 -11.9309,-27.97315c4.48753,-4.56839 17.10492,0.54878 28.18171,11.42952c11.07679,10.88074 16.41843,23.40473 11.9309,27.97315z" fill="#ce4948" stroke="none" stroke-width="0"/><path d="M379.57983,-220.41168c0,24.73783 -13.01376,44.79181 -29.06702,44.79181c-16.05327,0 -29.06702,-20.05398 -29.06702,-44.79181c0,-24.73783 13.01376,-44.79181 29.06702,-44.79181c16.05327,0 29.06702,20.05398 29.06702,44.79181z" fill="#ce4948" stroke="none" stroke-width="0"/><path d="M386.27626,-351.11498c6.41364,3.58304 6.54595,15.55751 0.29554,26.74575c-6.25041,11.18824 -16.51665,17.35348 -22.9303,13.77043c-6.41364,-3.58304 -6.54595,-15.55753 -0.29554,-26.74575c6.25041,-11.18824 16.51665,-17.35345 22.9303,-13.77043z" data-paper-data="{&quot;index&quot;:null}" fill="#f5f5f5" stroke="none" stroke-width="0"/><path d="M371.49569,-313.90496l1.21419,-0.38255c1.45584,-0.23841 2.93774,-0.37737 4.41253,-0.34109c0.44657,0.011 0.92147,0.26188 1.33664,0.09696c0.54774,-0.21758 0.82001,-0.87315 1.3357,-1.15852c0.58598,-0.32427 1.31408,-0.32214 1.90603,-0.63534c2.73389,-1.44643 4.95978,-5.00486 5.84237,-7.86746c0.41333,-1.34058 0.2359,-2.81683 0.64419,-4.15897c0.19514,-0.64146 0.75697,-1.13818 0.92078,-1.78834c0.14251,-0.56555 -0.11789,-1.17293 -0.0294,-1.74941c0.51391,-3.34729 1.58317,-6.48505 1.57173,-9.92692c0,-1.52829 0.46168,-3.10603 0.07381,-4.58427c-0.83982,-3.20062 -5.95987,-5.0722 -8.81387,-3.67431c-1.80691,0.88502 -3.72919,2.56681 -5.44335,3.66797c-5.5178,3.54458 -9.24353,7.2655 -12.4539,13.05016c0,0 -0.83541,1.50372 -2.33913,0.66831c-1.50372,-0.83541 -0.66833,-2.33913 -0.66833,-2.33913c3.48625,-6.26901 7.61531,-10.42273 13.59526,-14.26968c1.81637,-1.1685 4.06278,-3.10217 5.99286,-3.95615c4.80068,-2.12413 11.87815,0.70316 13.4232,5.85585c0.09436,0.31474 0.07381,5.01167 0.07381,5.58126c-0.01033,3.61125 -1.06388,6.8941 -1.60499,10.4041c-0.10476,0.6796 0.13632,1.39531 -0.0294,2.06266c-0.1808,0.72817 -0.76217,1.30739 -0.98525,2.02372c-0.41113,1.32017 -0.22047,2.77876 -0.6265,4.10052c-1.1661,3.79606 -3.96002,7.94327 -7.49987,9.92221c-0.58457,0.3268 -1.31641,0.31776 -1.90603,0.63534c-0.67574,0.36395 -1.115,1.13395 -1.84102,1.38286c-1.77127,0.60726 -4.41013,0.06608 -6.32238,0.39124l-0.69184,0.2528c0,0 -1.63191,0.54398 -2.17589,-1.08796c-0.54398,-1.63191 1.08796,-2.17589 1.08796,-2.17589z" data-paper-data="{&quot;index&quot;:null}" fill="#ce4948" stroke="none" stroke-width="0.5"/><path d="M333.31618,-330.93709c6.25041,11.18824 6.11808,23.16271 -0.29554,26.74575c-6.41364,3.58304 -16.67987,-2.58219 -22.93027,-13.77043c-6.25041,-11.18824 -6.11808,-23.16271 0.29554,-26.74575c6.41364,-3.58304 16.67987,2.58219 22.93027,13.77043z" fill="#f5f5f5" stroke="none" stroke-width="0"/><path d="M381.95705,-291.08498c0,25.46102 -14.32494,46.10126 -31.99565,46.10126c-17.67071,0 -31.99565,-20.64023 -31.99565,-46.10126c0,-25.46102 14.32494,-46.10126 31.99565,-46.10126c17.67071,0 31.99565,20.64023 31.99565,46.10126z" fill="#cf4848" stroke="none" stroke-width="NaN"/><path d="M379.57983,-267.90372c0,15.87784 -13.2982,28.74937 -29.70237,28.74937c-16.40416,0 -29.70237,-12.87152 -29.70237,-28.74937c0,-15.87784 13.2982,-28.74937 29.70237,-28.74937c16.40416,0 29.70237,12.87152 29.70237,28.74937z" fill="#ffffff" stroke="none" stroke-width="0"/><path d="M334.58332,-274.74818c0.23568,-0.26912 0.59421,-0.49088 1.1366,-0.58128c1.86648,-0.31107 2.17755,1.55538 2.17755,1.55538c0.30966,1.86096 0.77971,3.69254 1.10064,5.55158c0.20024,1.15991 0.73255,2.35949 0.45071,3.5023c-0.26228,1.06339 -1.30945,1.75607 -1.96418,2.63408l-0.87754,1.17412c-0.14025,0.19204 -0.31578,0.35667 -0.51708,0.48434c-0.46703,0.32142 -1.22385,0.58685 -2.11457,-0.06112c-0.01964,-0.01412 -0.03903,-0.02858 -0.0581,-0.04342c-0.52332,-0.40182 -0.7199,-0.84938 -0.75564,-1.25969l-0.51418,-1.54255l0.0502,-0.01674l-0.09151,-0.12552c-0.20839,-1.22995 -1.0327,-6.01344 -0.99786,-6.37758c0.12482,-1.30469 0.93004,-2.45075 1.39507,-3.67612c0,0 0.46383,-1.15958 1.5799,-1.21779z" data-paper-data="{&quot;index&quot;:null}" fill="#ce4948" stroke="none" stroke-width="0.5"/><path d="M366.35209,-274.21975c0.46502,1.22536 1.27024,2.37142 1.39507,3.67612c0.03485,0.36415 -0.78947,5.14764 -0.99786,6.37758l-0.09151,0.12552l0.0502,0.01674l-0.51418,1.54255c-0.03576,0.41031 -0.23234,0.85787 -0.75564,1.25969c-0.01907,0.01484 -0.03844,0.02932 -0.0581,0.04342c-0.89071,0.64797 -1.64754,0.38255 -2.11457,0.06112c-0.2013,-0.12767 -0.37685,-0.2923 -0.51708,-0.48434l-0.87754,-1.17412c-0.65474,-0.87803 -1.7019,-1.57069 -1.96416,-2.63408c-0.28187,-1.14282 0.25047,-2.3424 0.45071,-3.5023c0.32093,-1.85905 0.79098,-3.69063 1.10064,-5.55158c0,0 0.31107,-1.86648 2.17755,-1.55538c0.54239,0.0904 0.90089,0.31216 1.1366,0.58128c1.11607,0.05823 1.5799,1.21779 1.5799,1.21779z" fill="#ce4948" stroke="none" stroke-width="0.5"/><path d="M365.14042,-255.42296c1.81377,1.338 0,2.67601 0,2.67601l-0.43062,0.31768c-1.7102,1.25162 -3.37587,2.64428 -5.73412,3.2932c-7.83662,2.15635 -15.36368,-0.07202 -22.7287,-1.88305c0,0 -2.43342,-0.59837 -1.62228,-2.39349c0.81114,-1.79512 3.24458,-1.19673 3.24458,-1.19673c6.11223,1.50298 12.65853,3.68709 19.18573,1.96411c1.39291,-0.36769 2.97999,-1.67996 4.02729,-2.46002l0.43062,-0.31768c0,0 1.81377,-1.338 3.62755,0z" fill="#ce4948" stroke="none" stroke-width="0.5"/><path d="M340.8238,-299.3803c-1.72021,0 -1.72021,-1.72021 -1.72021,-1.72021l0.00587,-1.76414c-0.33453,-2.00713 -0.31466,-3.74172 -0.8927,-5.70509c0,0 -0.47258,-1.654 1.18143,-2.12658c1.654,-0.47258 2.12658,1.18143 2.12658,1.18143c0.61585,2.20992 0.64084,4.13153 1.01333,6.36646l0.00587,2.04792c0,0 0,1.72021 -1.72021,1.72021z" fill="#b43f3f" stroke="none" stroke-width="0.5"/><path d="M357.75998,-301.3377c-1.66884,0.4172 -2.08604,-1.25162 -2.08604,-1.25162l-0.29648,-1.19361c-0.61635,-2.06974 -1.08927,-4.19431 -1.3327,-6.34011c0,0 -0.18996,-1.70968 1.51972,-1.89964c1.70968,-0.18996 1.89964,1.51972 1.89964,1.51972c0.21062,1.9411 0.64347,3.86254 1.20867,5.73144l0.33886,1.34779c0,0 0.4172,1.66884 -1.25162,2.08604z" fill="#b43f3f" stroke="none" stroke-width="0.5"/><path d="M343.77256,-345.59593c1.31106,-0.35342 2.57964,-0.95164 3.93315,-1.06024c2.84531,-0.22828 5.22003,1.62527 6.14951,4.0547l0.2711,-0.10843c0.20727,-0.08852 0.43545,-0.13753 0.67509,-0.13753c0.80884,0 1.48727,0.55822 1.67109,1.31041l2.04155,0.29165c0.847,0.10724 1.50196,0.83038 1.50196,1.70648c0,0.47503 -0.19254,0.90508 -0.50383,1.21637l-1.58837,1.58837c-1.90147,1.70894 -2.37794,2.8015 -5.45341,1.83188c0.4217,1.05499 0.7138,2.19397 0.5308,3.28539c-0.14984,0.89376 -3.30724,6.0038 -5.01719,5.86352c-1.8934,-0.15534 -2.61275,-3.04449 -2.95184,-4.83884c-1.60831,0.58314 -3.29798,0.60082 -4.87461,-0.54685c-1.58198,-1.15158 -2.0608,-2.38089 -2.01206,-3.66192c-0.58162,-0.62264 -0.97633,-1.3914 -1.08422,-2.28635c-0.93274,-0.40974 -1.87282,-0.88101 -2.05102,-1.78168c-0.25133,-1.27029 1.30043,-2.23966 1.95064,-3.35947l0.25381,-0.09585c0.11851,-0.83444 0.83583,-1.47613 1.70302,-1.47613c0.4115,0 0.78927,0.14449 1.08531,0.38552l0.34248,0.274c1.13648,-0.9428 2.38415,-1.75109 3.42701,-2.45499zM345.42099,-342.53144c1.12085,0.45036 2.17644,1.14316 2.86931,1.92032l0.80973,0.00339c0.23075,0.00082 0.45081,0.04708 0.65169,0.1303c0.17173,-0.19187 0.37774,-0.37893 0.62138,-0.55924c0.11883,-0.08795 0.24153,-0.16767 0.36759,-0.24009c-0.43104,-1.16496 -1.62929,-2.12534 -2.82121,-1.94568c-0.85448,0.12879 -1.66874,0.44622 -2.49848,0.69099zM348.58998,-330.88057c0.71368,-0.91927 1.52232,-1.34521 0.86288,-2.58808c-0.39302,0.35119 -0.81364,0.70633 -1.25578,1.04662c0.00986,0.06026 0.02088,0.12002 0.03341,0.17919c0.09669,0.45677 0.24286,0.90783 0.35947,1.36225z" fill="#b43f3f" stroke="none" stroke-width="0.5"/><path d="M326.25441,-305.32162c-0.54398,1.63191 -2.17589,1.08796 -2.17589,1.08796l-0.69184,-0.2528c-1.91225,-0.32514 -4.5511,0.21602 -6.32238,-0.39124c-0.72604,-0.24891 -1.1653,-1.01891 -1.84102,-1.38286c-0.58962,-0.31759 -1.32146,-0.30855 -1.90603,-0.63534c-3.53985,-1.97894 -6.33377,-6.12615 -7.49987,-9.92221c-0.40603,-1.32173 -0.21537,-2.78035 -0.6265,-4.10052c-0.22307,-0.71633 -0.80445,-1.29555 -0.98525,-2.02372c-0.16571,-0.66737 0.07537,-1.38305 -0.0294,-2.06266c-0.54111,-3.51003 -1.59466,-6.79287 -1.60499,-10.4041c0,-0.56959 -0.02056,-5.26652 0.07381,-5.58126c1.54505,-5.15271 8.62255,-7.97997 13.4232,-5.85585c1.93008,0.85399 4.17648,2.78768 5.99286,3.95615c5.97993,3.84696 10.109,8.00068 13.59523,14.26968c0,0 0.83541,1.50372 -0.66833,2.33913c-1.50372,0.83541 -2.33913,-0.66833 -2.33913,-0.66833c-3.21038,-5.78467 -6.9361,-9.50559 -12.4539,-13.05016c-1.71416,-1.10116 -3.63644,-2.78295 -5.44335,-3.66797c-2.85401,-1.39789 -7.97405,0.47369 -8.81385,3.67431c-0.38787,1.47826 0.07381,3.05598 0.07381,4.58427c-0.01144,3.44187 1.05784,6.57966 1.57173,9.92692c0.08852,0.57647 -0.17188,1.18385 -0.0294,1.74941c0.16383,0.65018 0.72564,1.14688 0.92078,1.78834c0.40828,1.34214 0.23085,2.81839 0.64419,4.15897c0.88259,2.86258 3.10849,6.42102 5.84237,7.86746c0.59198,0.3132 1.32005,0.3111 1.90603,0.63534c0.5157,0.28536 0.78796,0.94094 1.3357,1.15852c0.41517,0.16492 0.89005,-0.08599 1.33664,-0.09696c1.47479,-0.03628 2.95669,0.10266 4.41253,0.34109l1.21419,0.38255c0,0 1.63191,0.54398 1.08796,2.17589z" fill="#ce4948" stroke="none" stroke-width="0.5"/><path d="M402.51538,-211.33107c3.75708,4.80702 4.34953,10.67116 1.32329,13.09792c-3.02623,2.42678 -8.52521,0.49719 -12.28229,-4.30983c-3.75708,-4.80702 -4.34953,-10.67116 -1.32329,-13.09792c3.02623,-2.42678 8.52521,-0.49719 12.28229,4.30983z" fill="#a33939" stroke="none" stroke-width="0"/><path d="M409.16436,-216.73269c3.75708,4.80702 4.34953,10.67116 1.32329,13.09792c-3.02623,2.42678 -8.52521,0.49719 -12.28229,-4.30983c-3.75708,-4.80702 -4.34953,-10.67116 -1.32329,-13.09792c3.02623,-2.42678 8.52521,-0.49719 12.28229,4.30983z" fill="#a33939" stroke="none" stroke-width="0"/><path d="M305.40104,-230.16704c11.07679,-10.88074 23.69418,-15.99791 28.18171,-11.42952c4.48753,4.56839 -0.85411,17.09241 -11.9309,27.97315c-11.07679,10.88074 -23.69418,15.99791 -28.18171,11.42952c-4.48753,-4.56839 0.85411,-17.09241 11.9309,-27.97315z" data-paper-data="{&quot;index&quot;:null}" fill="#ce4948" stroke="none" stroke-width="0"/><path d="M304.3027,-210.29443c3.02623,2.42678 2.43379,8.29092 -1.32329,13.09792c-3.75708,4.80702 -9.25603,6.73658 -12.28229,4.30983c-3.02623,-2.42678 -2.43379,-8.29092 1.32329,-13.09792c3.75708,-4.80702 9.25603,-6.73658 12.28229,-4.30983z" data-paper-data="{&quot;index&quot;:null}" fill="#a33939" stroke="none" stroke-width="0"/><path d="M297.65372,-215.69607c3.02623,2.42678 2.43379,8.29092 -1.32329,13.09792c-3.75708,4.80702 -9.25603,6.73658 -12.28229,4.30983c-3.02623,-2.42678 -2.43379,-8.2909 1.32329,-13.09792c3.75708,-4.80702 9.25603,-6.73658 12.28229,-4.30983z" data-paper-data="{&quot;index&quot;:null}" fill="#a33939" stroke="none" stroke-width="0"/><path d="M346.59873,-166.82135c-8.0782,15.66381 -20.83919,25.59623 -28.50246,22.18467c-7.66328,-3.41156 -7.32692,-18.8752 0.75128,-34.53901c8.0782,-15.66381 20.83919,-25.59623 28.50246,-22.18467c7.66328,3.41156 7.32692,18.8752 -0.75128,34.53901z" fill="#ce4849" stroke="none" stroke-width="0"/><path d="M386.40681,-179.2224c9.21527,14.30349 10.66019,28.66112 3.22732,32.06867c-7.43287,3.40754 -20.92884,-5.42537 -30.14411,-19.72886c-9.21527,-14.30349 -10.66019,-28.66112 -3.22732,-32.06867c7.43287,-3.40754 20.92884,5.42537 30.14411,19.72886z" fill="#ce4849" stroke="none" stroke-width="0"/><path d="M336.56068,-163.84507c4.6604,3.73722 3.74801,12.76795 -2.03784,20.1707c-5.78588,7.40276 -14.25423,10.37431 -18.91463,6.63709c-4.6604,-3.73722 -3.74801,-12.76795 2.03784,-20.1707c5.78588,-7.40276 14.25423,-10.37431 18.91463,-6.63709z" data-paper-data="{&quot;index&quot;:null}" fill="#a33939" stroke="none" stroke-width="0"/><path d="M326.32131,-172.16358c4.6604,3.73722 3.74801,12.76795 -2.03784,20.1707c-5.78588,7.40276 -14.25423,10.37428 -18.91463,6.63709c-4.6604,-3.73722 -3.74801,-12.76795 2.03784,-20.1707c5.78588,-7.40276 14.25423,-10.37431 18.91463,-6.63709z" data-paper-data="{&quot;index&quot;:null}" fill="#a33939" stroke="none" stroke-width="0"/><path d="M380.91751,-173.72295c4.41707,-4.02189 13.19572,-1.71498 19.60768,5.15262c6.41196,6.8676 8.02916,15.69529 3.61212,19.71717c-4.41707,4.02189 -13.19572,1.71498 -19.60768,-5.15262c-6.41196,-6.8676 -8.02916,-15.69529 -3.61212,-19.71717z" data-paper-data="{&quot;index&quot;:null}" fill="#a33939" stroke="none" stroke-width="0"/><path d="M371.10665,-164.90311c4.41707,-4.02189 13.19572,-1.71498 19.60768,5.15262c6.41196,6.8676 8.02916,15.69529 3.61209,19.71717c-4.41707,4.02189 -13.19572,1.715 -19.60768,-5.15262c-6.41196,-6.8676 -8.02916,-15.69529 -3.61212,-19.71717z" data-paper-data="{&quot;index&quot;:null}" fill="#a33939" stroke="none" stroke-width="0"/><path d="M206.0873,-105.60673v-290.06202h290.06202v290.06202z" fill="none" stroke="#000000" stroke-width="3.5"/><path d="M-647.61099,319.4937c11.15161,0 20.1918,10.19814 20.1918,22.77816c0,12.58004 -9.04019,22.77816 -20.1918,22.77816c-11.15161,0 -20.1918,-10.19814 -20.1918,-22.77816c0,-12.58004 9.04019,-22.77816 20.1918,-22.77816z" data-paper-data="{&quot;index&quot;:null}" fill="#fe9f66" stroke="#000000" stroke-width="0.5"/><path d="M-647.45803,342.28162c11.91196,0 21.56852,5.88145 21.56852,13.1366c0,7.25515 -9.65656,13.1366 -21.56852,13.1366c-11.91196,0 -21.56852,-5.88145 -21.56852,-13.1366c0,-7.25515 9.65656,-13.1366 21.56852,-13.1366z" data-paper-data="{&quot;index&quot;:null}" fill="#fe9f66" stroke="#000000" stroke-width="0.5"/><path d="M-661.20786,360.50087c0.37019,-0.01545 0.74219,-0.02311 1.08957,-0.05852c1.83943,-0.18746 3.91824,-0.00879 5.77667,-0.00879c6.98145,0 13.80209,-0.96415 20.80367,-0.96415h0.49274c0.54732,-0.18174 1.09933,-0.36202 1.65759,-0.53878c0,0 3.03738,-0.95721 4.25232,1.43583c1.21496,2.39307 -1.82242,3.35028 -1.82242,3.35028c-0.0794,0.02489 -0.1588,0.04998 -0.23818,0.07527c-0.86144,0.74152 -2.1777,0.82233 -2.45434,0.83113c-4.05257,1.43462 -8.12124,3.08525 -12.50175,3.59736c-2.51386,0.29388 -5.19403,0.26035 -7.74219,0.26035c-2.17582,0 -4.40092,0.15157 -6.51851,-0.36737c-0.64126,-0.15715 -1.1576,-0.55817 -1.79938,-0.714c-0.64624,-0.15692 -1.42427,0.05377 -2.01094,-0.21124c-1.44093,-0.65082 -2.59294,-1.6359 -3.88943,-2.45382c0.14501,-0.18669 0.28103,-0.37925 0.41207,-0.57509c-0.8445,-0.46606 -1.39668,-1.23849 -1.39668,-2.11251c0,-1.42347 1.46464,-2.57741 3.27135,-2.57741c1.07055,0 2.021,0.40514 2.61778,1.03144z" data-paper-data="{&quot;index&quot;:null}" fill="#ffe366" stroke="#000000" stroke-width="0.5"/><path d="M-569.30535,318.32226c11.15161,0 20.1918,10.19814 20.1918,22.77816c0,12.58004 -9.04019,22.77816 -20.1918,22.77816c-11.15161,0 -20.1918,-10.19814 -20.1918,-22.77816c0,-12.58004 9.04019,-22.77816 20.1918,-22.77816z" data-paper-data="{&quot;index&quot;:null}" fill="#fe9f66" stroke="#000000" stroke-width="0.5"/><path d="M-569.15236,341.11015c11.91196,0 21.56852,5.88145 21.56852,13.1366c0,7.25515 -9.65656,13.1366 -21.56852,13.1366c-11.91196,0 -21.56852,-5.88145 -21.56852,-13.1366c0,-7.25515 9.65656,-13.1366 21.56852,-13.1366z" data-paper-data="{&quot;index&quot;:null}" fill="#fe9f66" stroke="#000000" stroke-width="0.5"/><path d="M-582.90217,359.3294c0.37019,-0.01545 0.74219,-0.02311 1.08957,-0.05852c1.83943,-0.18746 3.91824,-0.00879 5.77667,-0.00879c6.98145,0 13.80209,-0.96415 20.80367,-0.96415h0.49274c0.54732,-0.18174 1.09933,-0.36202 1.65759,-0.53878c0,0 3.03738,-0.95721 4.25232,1.43583c1.21496,2.39307 -1.82242,3.35028 -1.82242,3.35028c-0.0794,0.02489 -0.1588,0.04998 -0.23818,0.07527c-0.86144,0.74152 -2.1777,0.82233 -2.45434,0.83113c-4.05257,1.43462 -8.12124,3.08525 -12.50175,3.59736c-2.51386,0.29388 -5.19403,0.26035 -7.74219,0.26035c-2.17582,0 -4.40092,0.15157 -6.51851,-0.36737c-0.64126,-0.15715 -1.1576,-0.55817 -1.79938,-0.714c-0.64624,-0.15692 -1.42427,0.05377 -2.01094,-0.21124c-1.44093,-0.65082 -2.59294,-1.6359 -3.88943,-2.45382c0.14501,-0.18669 0.28103,-0.37925 0.41207,-0.57509c-0.8445,-0.46606 -1.39668,-1.23849 -1.39668,-2.11251c0,-1.42347 1.46464,-2.57741 3.27135,-2.57741c1.07055,0 2.021,0.40514 2.61778,1.03144z" data-paper-data="{&quot;index&quot;:null}" fill="#ffe366" stroke="#000000" stroke-width="0.5"/><path d="M-442.14992,264.47069c25.01326,0 45.29054,15.34902 45.29054,34.28299c0,18.93397 -20.27725,34.28299 -45.29054,34.28299c-25.01326,0 -45.29054,-15.34902 -45.29054,-34.28299c0,-18.93397 20.27725,-34.28299 45.29054,-34.28299z" data-paper-data="{&quot;index&quot;:null}" fill="#ff9e66" stroke="none" stroke-width="0"/><path d="M-418.94655,276.48211c2.86552,0 5.1885,2.88992 5.1885,6.45481c0,3.56489 -2.32296,6.45481 -5.1885,6.45481c-2.86552,0 -5.1885,-2.88992 -5.1885,-6.45481c0,-3.56489 2.32296,-6.45481 5.1885,-6.45481z" data-paper-data="{&quot;index&quot;:null}" fill="none" stroke="#00ff08" stroke-width="3"/><path d="M-418.96401,309.32588l-0.09387,0.28658c1.20545,1.18086 2.53238,3.45695 4.20628,4.01877c3.39496,1.13947 8.10931,-0.10367 11.63781,-0.10367c0,0 1.72105,0 1.72105,1.68343c0,1.68343 -1.72105,1.68343 -1.72105,1.68343c-3.97681,0 -9.01525,1.2955 -12.82709,-0.10367c-2.38926,-0.87702 -3.72241,-3.10955 -5.45093,-4.79756l-0.73768,-1.60264c0,0 -0.54425,-1.59704 1.0885,-2.1294c1.63275,-0.53234 2.17698,1.0647 2.17698,1.0647z" data-paper-data="{&quot;index&quot;:null}" fill="#00ff08" stroke="none" stroke-width="0.5"/><path d="M-683.44328,264.57005c18.23835,-8.3621 52.66068,-5.67641 81.98852,-4.7587c25.98459,0.8131 68.1933,-6.5457 85.38822,1.21533c18.45575,8.33013 10.94905,32.17499 10.46411,44.32171c-0.25458,6.37699 2.4379,15.86487 -3.55882,21.11202c-16.06771,14.05929 -56.45337,19.54777 -95.68574,18.32013c-26.5865,-0.83194 -63.99819,0.33277 -81.29359,-7.7302c-17.75178,-8.27574 -15.0332,-25.92228 -14.55874,-37.80684c0.42681,-10.69063 1.99101,-27.67458 17.25602,-34.67344z" data-paper-data="{&quot;index&quot;:null}" fill="#ff3838" stroke="none" stroke-width="0"/><path d="M-506.85704,264.25906c5.1624,-4.65153 16.05527,-4.26978 23.0017,-4.26978c17.0777,0 30.92191,16.65317 30.92191,37.19592c0,20.54275 -13.84421,37.19592 -30.92191,37.19592c-7.59175,0 -20.37037,2.08678 -25.75198,-3.37386c-6.72437,-6.82311 -5.16993,-22.41141 -5.16993,-33.82206c0,-12.18692 0.39092,-26.14191 7.92021,-32.92614z" data-paper-data="{&quot;index&quot;:null}" fill="#ff9e66" stroke="none" stroke-width="0"/><path d="M-481.96028,290.39134c-4.15095,0 -7.51597,-3.36502 -7.51597,-7.51597c0,-4.15095 3.36502,-7.51597 7.51597,-7.51597c4.15095,0 7.51597,3.36502 7.51597,7.51597c0,4.15095 -3.36502,7.51597 -7.51597,7.51597z" data-paper-data="{&quot;index&quot;:null}" fill="#ffffff" stroke="#000000" stroke-width="0.5"/><path d="M-485.05408,282.57368c-0.92972,0 -1.68343,-0.7537 -1.68343,-1.68343c0,-0.92972 0.7537,-1.68343 1.68343,-1.68343c0.92972,0 1.68343,0.7537 1.68343,1.68343c0,0.92972 -0.7537,1.68343 -1.68343,1.68343z" data-paper-data="{&quot;index&quot;:null}" fill="#000000" stroke="none" stroke-width="0.5"/><path d="M-481.74795,291.91066c3.91269,0 7.08455,3.17186 7.08455,7.08455c0,3.91269 -3.17186,7.08455 -7.08455,7.08455c-3.91269,0 -7.08455,-3.17186 -7.08455,-7.08455c0,-3.91269 3.17186,-7.08455 7.08455,-7.08455z" data-paper-data="{&quot;index&quot;:null}" fill="#ff6dde" stroke="none" stroke-width="0"/><path d="M-519.94634,276.7003c-1.85947,0 -3.36688,-1.50741 -3.36688,-3.36688c0,-1.85947 1.50741,-3.36688 3.36688,-3.36688c1.85947,0 3.36688,1.50741 3.36688,3.36688c0,1.85947 -1.50741,3.36688 -3.36688,3.36688z" data-paper-data="{&quot;index&quot;:null}" fill="#ffabf4" stroke="none" stroke-width="0.5"/><path d="M-535.37493,286.14635c-1.85947,0 -3.36688,-1.50741 -3.36688,-3.36688c0,-1.85947 1.50741,-3.36688 3.36688,-3.36688c1.85947,0 3.36688,1.50741 3.36688,3.36688c0,1.85947 -1.50741,3.36688 -3.36688,3.36688z" data-paper-data="{&quot;index&quot;:null}" fill="#ffabf4" stroke="none" stroke-width="0.5"/><path d="M-545.76559,275.12595c-1.85947,0 -3.36688,-1.50741 -3.36688,-3.36688c0,-1.85947 1.50741,-3.36688 3.36688,-3.36688c1.85947,0 3.36688,1.50741 3.36688,3.36688c0,1.85947 -1.50741,3.36688 -3.36688,3.36688z" data-paper-data="{&quot;index&quot;:null}" fill="#ffabf4" stroke="none" stroke-width="0.5"/><path d="M-558.67522,286.77607c-1.85947,0 -3.36688,-1.50741 -3.36688,-3.36688c0,-1.85947 1.50741,-3.36688 3.36688,-3.36688c1.85947,0 3.36688,1.50741 3.36688,3.36688c0,1.85947 -1.50741,3.36688 -3.36688,3.36688z" data-paper-data="{&quot;index&quot;:null}" fill="#ffabf4" stroke="none" stroke-width="0.5"/><path d="M-567.80643,275.44079c-1.85947,0 -3.36688,-1.50741 -3.36688,-3.36688c0,-1.85947 1.50741,-3.36688 3.36688,-3.36688c1.85947,0 3.36688,1.50741 3.36688,3.36688c0,1.85947 -1.50741,3.36688 -3.36688,3.36688z" data-paper-data="{&quot;index&quot;:null}" fill="#ffabf4" stroke="none" stroke-width="0.5"/><path d="M-578.82681,286.77607c-1.85947,0 -3.36688,-1.50741 -3.36688,-3.36688c0,-1.85947 1.50741,-3.36688 3.36688,-3.36688c1.85947,0 3.36688,1.50741 3.36688,3.36688c0,1.85947 -1.50741,3.36688 -3.36688,3.36688z" data-paper-data="{&quot;index&quot;:null}" fill="#ffabf4" stroke="none" stroke-width="0.5"/><path d="M-590.16209,275.12595c-1.85947,0 -3.36688,-1.50741 -3.36688,-3.36688c0,-1.85947 1.50741,-3.36688 3.36688,-3.36688c1.85947,0 3.36688,1.50741 3.36688,3.36688c0,1.85947 -1.50741,3.36688 -3.36688,3.36688z" data-paper-data="{&quot;index&quot;:null}" fill="#ffabf4" stroke="none" stroke-width="0.5"/><path d="M-599.60816,286.46124c-1.85947,0 -3.36688,-1.50741 -3.36688,-3.36688c0,-1.85947 1.50741,-3.36688 3.36688,-3.36688c1.85947,0 3.36688,1.50741 3.36688,3.36688c0,1.85947 -1.50741,3.36688 -3.36688,3.36688z" data-paper-data="{&quot;index&quot;:null}" fill="#ffabf4" stroke="none" stroke-width="0.5"/><path d="M-614.40701,274.18132c-1.85947,0 -3.36688,-1.50741 -3.36688,-3.36688c0,-1.85947 1.50741,-3.36688 3.36688,-3.36688c1.85947,0 3.36688,1.50741 3.36688,3.36688c0,1.85947 -1.50741,3.36688 -3.36688,3.36688z" data-paper-data="{&quot;index&quot;:null}" fill="#ffabf4" stroke="none" stroke-width="0.5"/><path d="M-627.94635,287.09098c-1.85947,0 -3.36688,-1.50741 -3.36688,-3.36688c0,-1.85947 1.50741,-3.36688 3.36688,-3.36688c1.85947,0 3.36688,1.50741 3.36688,3.36688c0,1.85947 -1.50741,3.36688 -3.36688,3.36688z" data-paper-data="{&quot;index&quot;:null}" fill="#ffabf4" stroke="none" stroke-width="0.5"/><path d="M-639.91138,274.18132c-1.85947,0 -3.36688,-1.50741 -3.36688,-3.36688c0,-1.85947 1.50741,-3.36688 3.36688,-3.36688c1.85947,0 3.36688,1.50741 3.36688,3.36688c0,1.85947 -1.50741,3.36688 -3.36688,3.36688z" data-paper-data="{&quot;index&quot;:null}" fill="#ffabf4" stroke="none" stroke-width="0.5"/><path d="M-655.33995,288.66531c-1.85947,0 -3.36688,-1.50741 -3.36688,-3.36688c0,-1.85947 1.50741,-3.36688 3.36688,-3.36688c1.85947,0 3.36688,1.50741 3.36688,3.36688c0,1.85947 -1.50741,3.36688 -3.36688,3.36688z" data-paper-data="{&quot;index&quot;:null}" fill="#ffabf4" stroke="none" stroke-width="0.5"/><path d="M-669.50906,274.49623c-1.85947,0 -3.36688,-1.50741 -3.36688,-3.36688c0,-1.85947 1.50741,-3.36688 3.36688,-3.36688c1.85947,0 3.36688,1.50741 3.36688,3.36688c0,1.85947 -1.50741,3.36688 -3.36688,3.36688z" data-paper-data="{&quot;index&quot;:null}" fill="#ffabf4" stroke="none" stroke-width="0.5"/><path d="M-684.30791,289.92478c-1.85947,0 -3.36688,-1.50741 -3.36688,-3.36688c0,-1.85947 1.50741,-3.36688 3.36688,-3.36688c1.85947,0 3.36688,1.50741 3.36688,3.36688c0,1.85947 -1.50741,3.36688 -3.36688,3.36688z" data-paper-data="{&quot;index&quot;:null}" fill="#ffabf4" stroke="none" stroke-width="0.5"/><path d="M-690.92013,277.95977c-1.85947,0 -3.36688,-1.50741 -3.36688,-3.36688c0,-1.85947 1.50741,-3.36688 3.36688,-3.36688c1.85947,0 3.36688,1.50741 3.36688,3.36688c0,1.85947 -1.50741,3.36688 -3.36688,3.36688z" data-paper-data="{&quot;index&quot;:null}" fill="#ffabf4" stroke="none" stroke-width="0.5"/><path d="M-519.94634,302.51953c-1.85947,0 -3.36688,-1.50741 -3.36688,-3.36688c0,-1.85947 1.50741,-3.36688 3.36688,-3.36688c1.85947,0 3.36688,1.50741 3.36688,3.36688c0,1.85947 -1.50741,3.36688 -3.36688,3.36688z" data-paper-data="{&quot;index&quot;:null}" fill="#ffabf4" stroke="none" stroke-width="0.5"/><path d="M-533.17084,311.96563c-1.85947,0 -3.36688,-1.50741 -3.36688,-3.36688c0,-1.85947 1.50741,-3.36688 3.36688,-3.36688c1.85947,0 3.36688,1.50741 3.36688,3.36688c0,1.85947 -1.50741,3.36688 -3.36688,3.36688z" data-paper-data="{&quot;index&quot;:null}" fill="#ffabf4" stroke="none" stroke-width="0.5"/><path d="M-546.08047,300.31546c-1.85947,0 -3.36688,-1.50741 -3.36688,-3.36688c0,-1.85947 1.50741,-3.36688 3.36688,-3.36688c1.85947,0 3.36688,1.50741 3.36688,3.36688c0,1.85947 -1.50741,3.36688 -3.36688,3.36688z" data-paper-data="{&quot;index&quot;:null}" fill="#ffabf4" stroke="none" stroke-width="0.5"/><path d="M-559.93469,311.65074c-1.85947,0 -3.36688,-1.50741 -3.36688,-3.36688c0,-1.85947 1.50741,-3.36688 3.36688,-3.36688c1.85947,0 3.36688,1.50741 3.36688,3.36688c0,1.85947 -1.50741,3.36688 -3.36688,3.36688z" data-paper-data="{&quot;index&quot;:null}" fill="#ffabf4" stroke="none" stroke-width="0.5"/><path d="M-571.26998,300.94518c-1.85947,0 -3.36688,-1.50741 -3.36688,-3.36688c0,-1.85947 1.50741,-3.36688 3.36688,-3.36688c1.85947,0 3.36688,1.50741 3.36688,3.36688c0,1.85947 -1.50741,3.36688 -3.36688,3.36688z" data-paper-data="{&quot;index&quot;:null}" fill="#ffabf4" stroke="none" stroke-width="0.5"/><path d="M-585.1242,311.65074c-1.85947,0 -3.36688,-1.50741 -3.36688,-3.36688c0,-1.85947 1.50741,-3.36688 3.36688,-3.36688c1.85947,0 3.36688,1.50741 3.36688,3.36688c0,1.85947 -1.50741,3.36688 -3.36688,3.36688z" data-paper-data="{&quot;index&quot;:null}" fill="#ffabf4" stroke="none" stroke-width="0.5"/><path d="M-594.57029,301.26006c-1.85947,0 -3.36688,-1.50741 -3.36688,-3.36688c0,-1.85947 1.50741,-3.36688 3.36688,-3.36688c1.85947,0 3.36688,1.50741 3.36688,3.36688c0,1.85947 -1.50741,3.36688 -3.36688,3.36688z" data-paper-data="{&quot;index&quot;:null}" fill="#ffabf4" stroke="none" stroke-width="0.5"/><path d="M-604.96094,311.65074c-1.85947,0 -3.36688,-1.50741 -3.36688,-3.36688c0,-1.85947 1.50741,-3.36688 3.36688,-3.36688c1.85947,0 3.36688,1.50741 3.36688,3.36688c0,1.85947 -1.50741,3.36688 -3.36688,3.36688z" data-paper-data="{&quot;index&quot;:null}" fill="#ffabf4" stroke="none" stroke-width="0.5"/><path d="M-617.87058,299.05599c-1.85947,0 -3.36688,-1.50741 -3.36688,-3.36688c0,-1.85947 1.50741,-3.36688 3.36688,-3.36688c1.85947,0 3.36688,1.50741 3.36688,3.36688c0,1.85947 -1.50741,3.36688 -3.36688,3.36688z" data-paper-data="{&quot;index&quot;:null}" fill="#ffabf4" stroke="none" stroke-width="0.5"/><path d="M-628.89098,310.70613c-1.85947,0 -3.36688,-1.50741 -3.36688,-3.36688c0,-1.85947 1.50741,-3.36688 3.36688,-3.36688c1.85947,0 3.36688,1.50741 3.36688,3.36688c0,1.85947 -1.50741,3.36688 -3.36688,3.36688z" data-paper-data="{&quot;index&quot;:null}" fill="#ffabf4" stroke="none" stroke-width="0.5"/><path d="M-639.28166,301.57495c-1.85947,0 -3.36688,-1.50741 -3.36688,-3.36688c0,-1.85947 1.50741,-3.36688 3.36688,-3.36688c1.85947,0 3.36688,1.50741 3.36688,3.36688c0,1.85947 -1.50741,3.36688 -3.36688,3.36688z" data-paper-data="{&quot;index&quot;:null}" fill="#ffabf4" stroke="none" stroke-width="0.5"/><path d="M-650.61692,311.33585c-1.85947,0 -3.36688,-1.50741 -3.36688,-3.36688c0,-1.85947 1.50741,-3.36688 3.36688,-3.36688c1.85947,0 3.36688,1.50741 3.36688,3.36688c0,1.85947 -1.50741,3.36688 -3.36688,3.36688z" data-paper-data="{&quot;index&quot;:null}" fill="#ffabf4" stroke="none" stroke-width="0.5"/><path d="M-661.32246,299.37085c-1.85947,0 -3.36688,-1.50741 -3.36688,-3.36688c0,-1.85947 1.50741,-3.36688 3.36688,-3.36688c1.85947,0 3.36688,1.50741 3.36688,3.36688c0,1.85947 -1.50741,3.36688 -3.36688,3.36688z" data-paper-data="{&quot;index&quot;:null}" fill="#ffabf4" stroke="none" stroke-width="0.5"/><path d="M-675.1767,310.70613c-1.85947,0 -3.36688,-1.50741 -3.36688,-3.36688c0,-1.85947 1.50741,-3.36688 3.36688,-3.36688c1.85947,0 3.36688,1.50741 3.36688,3.36688c0,1.85947 -1.50741,3.36688 -3.36688,3.36688z" data-paper-data="{&quot;index&quot;:null}" fill="#ffabf4" stroke="none" stroke-width="0.5"/><path d="M-682.73358,302.51953c-1.85947,0 -3.36688,-1.50741 -3.36688,-3.36688c0,-1.85947 1.50741,-3.36688 3.36688,-3.36688c1.85947,0 3.36688,1.50741 3.36688,3.36688c0,1.85947 -1.50741,3.36688 -3.36688,3.36688z" data-paper-data="{&quot;index&quot;:null}" fill="#ffabf4" stroke="none" stroke-width="0.5"/><path d="M-695.32833,310.70613c-1.85947,0 -3.36688,-1.50741 -3.36688,-3.36688c0,-1.85947 1.50741,-3.36688 3.36688,-3.36688c1.85947,0 3.36688,1.50741 3.36688,3.36688c0,1.85947 -1.50741,3.36688 -3.36688,3.36688z" data-paper-data="{&quot;index&quot;:null}" fill="#ffabf4" stroke="none" stroke-width="0.5"/><path d="M-517.74229,325.50496c-1.85947,0 -3.36688,-1.50741 -3.36688,-3.36688c0,-1.85947 1.50741,-3.36688 3.36688,-3.36688c1.85947,0 3.36688,1.50741 3.36688,3.36688c0,1.85947 -1.50741,3.36688 -3.36688,3.36688z" data-paper-data="{&quot;index&quot;:null}" fill="#ffabf4" stroke="none" stroke-width="0.5"/><path d="M-527.50319,334.00645c-1.85947,0 -3.36688,-1.50741 -3.36688,-3.36688c0,-1.85947 1.50741,-3.36688 3.36688,-3.36688c1.85947,0 3.36688,1.50741 3.36688,3.36688c0,1.85947 -1.50741,3.36688 -3.36688,3.36688z" data-paper-data="{&quot;index&quot;:null}" fill="#ffabf4" stroke="none" stroke-width="0.5"/><path d="M-540.09795,325.81985c-1.85947,0 -3.36688,-1.50741 -3.36688,-3.36688c0,-1.85947 1.50741,-3.36688 3.36688,-3.36688c1.85947,0 3.36688,1.50741 3.36688,3.36688c0,1.85947 -1.50741,3.36688 -3.36688,3.36688z" data-paper-data="{&quot;index&quot;:null}" fill="#ffabf4" stroke="none" stroke-width="0.5"/><path d="M-545.4507,333.69156c-1.85947,0 -3.36688,-1.50741 -3.36688,-3.36688c0,-1.85947 1.50741,-3.36688 3.36688,-3.36688c1.85947,0 3.36688,1.50741 3.36688,3.36688c0,1.85947 -1.50741,3.36688 -3.36688,3.36688z" data-paper-data="{&quot;index&quot;:null}" fill="#ffabf4" stroke="none" stroke-width="0.5"/><path d="M-557.41573,324.24549c-1.85947,0 -3.36688,-1.50741 -3.36688,-3.36688c0,-1.85947 1.50741,-3.36688 3.36688,-3.36688c1.85947,0 3.36688,1.50741 3.36688,3.36688c0,1.85947 -1.50741,3.36688 -3.36688,3.36688z" data-paper-data="{&quot;index&quot;:null}" fill="#ffabf4" stroke="none" stroke-width="0.5"/><path d="M-573.15919,337.15513c-1.85947,0 -3.36688,-1.50741 -3.36688,-3.36688c0,-1.85947 1.50741,-3.36688 3.36688,-3.36688c1.85947,0 3.36688,1.50741 3.36688,3.36688c0,1.85947 -1.50741,3.36688 -3.36688,3.36688z" data-paper-data="{&quot;index&quot;:null}" fill="#ffabf4" stroke="none" stroke-width="0.5"/><path d="M-585.43908,326.13468c-1.85947,0 -3.36688,-1.50741 -3.36688,-3.36688c0,-1.85947 1.50741,-3.36688 3.36688,-3.36688c1.85947,0 3.36688,1.50741 3.36688,3.36688c0,1.85947 -1.50741,3.36688 -3.36688,3.36688z" data-paper-data="{&quot;index&quot;:null}" fill="#ffabf4" stroke="none" stroke-width="0.5"/><path d="M-602.12715,333.3767c-1.85947,0 -3.36688,-1.50741 -3.36688,-3.36688c0,-1.85947 1.50741,-3.36688 3.36688,-3.36688c1.85947,0 3.36688,1.50741 3.36688,3.36688c0,1.85947 -1.50741,3.36688 -3.36688,3.36688z" data-paper-data="{&quot;index&quot;:null}" fill="#ffabf4" stroke="none" stroke-width="0.5"/><path d="M-614.40701,326.13468c-1.85947,0 -3.36688,-1.50741 -3.36688,-3.36688c0,-1.85947 1.50741,-3.36688 3.36688,-3.36688c1.85947,0 3.36688,1.50741 3.36688,3.36688c0,1.85947 -1.50741,3.36688 -3.36688,3.36688z" data-paper-data="{&quot;index&quot;:null}" fill="#ffabf4" stroke="none" stroke-width="0.5"/><path d="M-626.37202,334.00645c-1.85947,0 -3.36688,-1.50741 -3.36688,-3.36688c0,-1.85947 1.50741,-3.36688 3.36688,-3.36688c1.85947,0 3.36688,1.50741 3.36688,3.36688c0,1.85947 -1.50741,3.36688 -3.36688,3.36688z" data-paper-data="{&quot;index&quot;:null}" fill="#ffabf4" stroke="none" stroke-width="0.5"/><path d="M-635.18834,327.07931c-1.85947,0 -3.36688,-1.50741 -3.36688,-3.36688c0,-1.85947 1.50741,-3.36688 3.36688,-3.36688c1.85947,0 3.36688,1.50741 3.36688,3.36688c0,1.85947 -1.50741,3.36688 -3.36688,3.36688z" data-paper-data="{&quot;index&quot;:null}" fill="#ffabf4" stroke="none" stroke-width="0.5"/><path d="M-651.56153,337.78488c-1.85947,0 -3.36688,-1.50741 -3.36688,-3.36688c0,-1.85947 1.50741,-3.36688 3.36688,-3.36688c1.85947,0 3.36688,1.50741 3.36688,3.36688c0,1.85947 -1.50741,3.36688 -3.36688,3.36688z" data-paper-data="{&quot;index&quot;:null}" fill="#ffabf4" stroke="none" stroke-width="0.5"/><path d="M-658.48864,330.54286c-1.85947,0 -3.36688,-1.50741 -3.36688,-3.36688c0,-1.85947 1.50741,-3.36688 3.36688,-3.36688c1.85947,0 3.36688,1.50741 3.36688,3.36688c0,1.85947 -1.50741,3.36688 -3.36688,3.36688z" data-paper-data="{&quot;index&quot;:null}" fill="#ffabf4" stroke="none" stroke-width="0.5"/><path d="M-672.9726,337.15513c-1.85947,0 -3.36688,-1.50741 -3.36688,-3.36688c0,-1.85947 1.50741,-3.36688 3.36688,-3.36688c1.85947,0 3.36688,1.50741 3.36688,3.36688c0,1.85947 -1.50741,3.36688 -3.36688,3.36688z" data-paper-data="{&quot;index&quot;:null}" fill="#ffabf4" stroke="none" stroke-width="0.5"/><path d="M-689.66069,327.70903c-1.85947,0 -3.36688,-1.50741 -3.36688,-3.36688c0,-1.85947 1.50741,-3.36688 3.36688,-3.36688c1.85947,0 3.36688,1.50741 3.36688,3.36688c0,1.85947 -1.50741,3.36688 -3.36688,3.36688z" data-paper-data="{&quot;index&quot;:null}" fill="#ffabf4" stroke="none" stroke-width="0.5"/><path d="M-670.45367,320.46706c-1.85947,0 -3.36688,-1.50741 -3.36688,-3.36688c0,-1.85947 1.50741,-3.36688 3.36688,-3.36688c1.85947,0 3.36688,1.50741 3.36688,3.36688c0,1.85947 -1.50741,3.36688 -3.36688,3.36688z" data-paper-data="{&quot;index&quot;:null}" fill="#ffabf4" stroke="none" stroke-width="0.5"/><path d="M-541.69355,318.89816c11.15161,0 20.1918,10.19814 20.1918,22.77816c0,12.58004 -9.04017,22.77816 -20.1918,22.77816c-11.15161,0 -20.1918,-10.19814 -20.1918,-22.77816c0,-12.58004 9.04017,-22.77816 20.1918,-22.77816z" data-paper-data="{&quot;index&quot;:null}" fill="#fe9f66" stroke="#003c3c" stroke-width="0.5"/><path d="M-541.54059,341.68605c11.91196,0 21.56852,5.88145 21.56852,13.1366c0,7.25515 -9.65656,13.1366 -21.56852,13.1366c-11.91196,0 -21.56852,-5.88145 -21.56852,-13.1366c0,-7.25515 9.65656,-13.1366 21.56852,-13.1366z" data-paper-data="{&quot;index&quot;:null}" fill="#fe9f66" stroke="#003c3c" stroke-width="0.5"/><path d="M-555.29042,359.9053c0.37019,-0.01545 0.74219,-0.02311 1.08957,-0.05852c1.83943,-0.18746 3.91824,-0.00879 5.77669,-0.00879c6.98145,0 13.80209,-0.96415 20.80367,-0.96415h0.49276c0.54732,-0.18174 1.09933,-0.36202 1.65759,-0.53878c0,0 3.03738,-0.95721 4.25232,1.43583c1.21496,2.39307 -1.82242,3.35028 -1.82242,3.35028c-0.0794,0.02489 -0.1588,0.04998 -0.23818,0.07527c-0.86144,0.74152 -2.1777,0.82233 -2.45434,0.83113c-4.05257,1.43462 -8.12124,3.08525 -12.50175,3.59736c-2.51386,0.29388 -5.19403,0.26035 -7.74219,0.26035c-2.17582,0 -4.40092,0.15157 -6.51851,-0.36737c-0.64126,-0.15715 -1.1576,-0.55817 -1.79938,-0.71403c-0.64624,-0.15692 -1.42427,0.05377 -2.01094,-0.21124c-1.44093,-0.65082 -2.59296,-1.6359 -3.88943,-2.45382c0.14501,-0.18669 0.28103,-0.37925 0.41207,-0.57509c-0.8445,-0.46606 -1.39668,-1.23847 -1.39668,-2.11249c0,-1.42347 1.46464,-2.57741 3.27135,-2.57741c1.07055,0 2.021,0.40516 2.61778,1.03146z" data-paper-data="{&quot;index&quot;:null}" fill="#ffe366" stroke="#003c3c" stroke-width="0.5"/><path d="M-619.99922,320.06961c11.15161,0 20.1918,10.19814 20.1918,22.77816c0,12.58004 -9.04019,22.77816 -20.1918,22.77816c-11.15161,0 -20.1918,-10.19814 -20.1918,-22.77816c0,-12.58004 9.04019,-22.77816 20.1918,-22.77816z" data-paper-data="{&quot;index&quot;:null}" fill="#fe9f66" stroke="#003c3c" stroke-width="0.5"/><path d="M-619.84628,342.85752c11.91196,0 21.56852,5.88145 21.56852,13.1366c0,7.25515 -9.65656,13.1366 -21.56852,13.1366c-11.91196,0 -21.56852,-5.88145 -21.56852,-13.1366c0,-7.25515 9.65656,-13.1366 21.56852,-13.1366z" data-paper-data="{&quot;index&quot;:null}" fill="#fe9f66" stroke="#003c3c" stroke-width="0.5"/><path d="M-633.59606,361.07672c0.37019,-0.01545 0.74219,-0.02311 1.08957,-0.05852c1.83943,-0.18746 3.91824,-0.00879 5.77667,-0.00879c6.98145,0 13.80209,-0.96415 20.80367,-0.96415h0.49274c0.54732,-0.18174 1.09933,-0.36202 1.65759,-0.53878c0,0 3.03738,-0.95721 4.25232,1.43583c1.21496,2.39307 -1.82242,3.35028 -1.82242,3.35028c-0.0794,0.02489 -0.1588,0.04998 -0.23818,0.07527c-0.86144,0.74152 -2.1777,0.82233 -2.45434,0.83113c-4.05257,1.43462 -8.12124,3.08525 -12.50175,3.59736c-2.51386,0.29388 -5.19403,0.26035 -7.74219,0.26035c-2.17582,0 -4.40092,0.15157 -6.51851,-0.36737c-0.64126,-0.15715 -1.1576,-0.55817 -1.79938,-0.714c-0.64624,-0.15692 -1.42427,0.05377 -2.01094,-0.21124c-1.44093,-0.65082 -2.59294,-1.6359 -3.88943,-2.45382c0.14501,-0.18669 0.28103,-0.37925 0.41207,-0.57509c-0.8445,-0.46606 -1.39668,-1.23849 -1.39668,-2.11251c0,-1.42347 1.46464,-2.57741 3.27135,-2.57741c1.07055,0 2.021,0.40514 2.61778,1.03144z" data-paper-data="{&quot;index&quot;:null}" fill="#ffe366" stroke="#003c3c" stroke-width="0.5"/><path d="M-507.13797,275.02485c-1.18437,-2.12603 -3.31799,-5.37522 -2.85051,-7.58271c0.55961,-2.6424 4.05158,-4.16848 6.59645,-5.58618c2.56025,-1.42627 6.56418,-3.51758 9.11635,-2.58425c2.10402,0.76946 2.87677,4.21953 4.05257,6.3302c2.60208,4.6709 0.92497,10.56684 -3.74596,13.16892c-4.6709,2.60208 -10.56684,0.92497 -13.16892,-3.74596z" data-paper-data="{&quot;index&quot;:null}" fill="#fe9f66" stroke="#000000" stroke-width="0.5"/><path d="M-679.69125,412.56298v-290.06202h290.06202v290.06202z" fill="none" stroke="#000000" stroke-width="3.5"/><path d="M398.57966,237.53763c6.64053,10.47907 8.13023,21.44134 3.32733,24.48494c-4.80288,3.04357 -14.07965,-2.98408 -20.72018,-13.46313c-6.64053,-10.47907 -8.13023,-21.44134 -3.32733,-24.48494c4.80288,-3.04357 14.07965,2.98408 20.72018,13.46313z" fill="#000000" stroke="#000000" stroke-width="2.5"/><path d="M345.28019,249.64167c-7.28554,10.04137 -16.92251,15.47454 -21.52478,12.13535c-4.6023,-3.33919 -2.4271,-14.18629 4.85841,-24.22763c7.28554,-10.04137 16.92251,-15.47454 21.52478,-12.13533c4.6023,3.33919 2.4271,14.18629 -4.85841,24.22763z" fill="#000000" stroke="#000000" stroke-width="2.5"/><path d="M390.92339,254.5004c0,22.15349 -11.73319,40.11244 -26.2068,40.11244c-14.47361,0 -26.2068,-17.95898 -26.2068,-40.11244c0,-22.15349 11.73319,-40.11244 26.2068,-40.11244c14.47361,0 26.2068,17.95898 26.2068,40.11244z" fill="#000000" stroke="none" stroke-width="NaN"/><path d="M390.56335,260.50381c0,18.57522 -11.61329,33.63338 -25.939,33.63338c-14.32571,0 -25.939,-15.05819 -25.939,-33.63338c0,-10.22566 -0.20836,-19.67051 5.34557,-25.83911c0.91615,-1.01755 5.61541,-1.66867 6.63563,-2.5148c4.02976,-3.34211 8.8193,5.62205 13.95782,5.62205c5.20517,0 10.05224,-8.91356 14.1143,-5.49123c0.74261,0.62566 3.73972,0.23169 4.939,0.68899c1.90665,0.72698 2.11647,2.29938 3.05318,3.65274c4.12132,5.95442 3.83254,15.25085 3.83254,23.88137z" fill="#ffcd44" stroke="none" stroke-width="0"/><path d="M361.41559,252.94274c0,6.20298 -3.11287,11.23149 -6.95282,11.23149c-3.83992,0 -6.95282,-5.02851 -6.95282,-11.23149c0,-6.20298 3.11287,-11.23149 6.95282,-11.23149c3.83992,0 6.95282,5.02851 6.95282,11.23149z" fill="#000000" stroke="#000000" stroke-width="2.5"/><path d="M380.65739,250.52382c0,6.20298 -3.11287,11.23149 -6.95282,11.23149c-3.83992,0 -6.95282,-5.02851 -6.95282,-11.23149c0,-6.20298 3.11289,-11.23149 6.95282,-11.23149c3.83995,0 6.95282,5.02851 6.95282,11.23149z" fill="#000000" stroke="#000000" stroke-width="2.5"/><path d="M376.65831,266.36981c0,5.47922 0.02566,12.35528 -3.04573,15.26058c-1.90947,1.80622 -6.26541,0.82828 -8.76634,0.82828c-3.10158,0 -7.55322,1.22296 -9.6608,-1.44019c-2.32533,-2.93831 -2.15127,-9.98762 -2.15127,-14.64867c0,-8.88562 5.28844,-16.08886 11.8121,-16.08886c6.52363,0 11.81207,7.20324 11.81207,16.08886z" fill="#ffd256" stroke="#000000" stroke-width="2.5"/><path d="M341.09195,229.39801v-16.05755h47.06528v16.05755z" fill="#ff0000" stroke="none" stroke-width="0"/><path d="M339.36415,212.35467c0,0 0,-10.38508 0,-13.10341c0,-1.22801 1.33706,-1.60449 1.33706,-1.60449c0,0 0.46123,-1.38303 3.11629,-1.78358c4.7031,-0.70957 15.03597,-3.29733 19.88153,-3.29733c6.5134,0 16.01347,2.98438 21.6713,3.65447c1.81427,0.21488 2.12876,1.96126 2.12876,1.96126c0,0 0.80225,0.1833 0.80225,1.60449c0,2.81265 0,12.56857 0,12.56857z" fill="#ffffff" stroke="none" stroke-width="0"/><path d="M349.38185,299.76717c0,0 -6.05433,0.28955 -15.77308,0.24571c-6.42942,-0.029 -12.84044,1.94591 -12.84044,-2.04581c0,-8.2104 -0.26743,-13.20082 -0.26743,-13.20082h91.72379c0,0 -0.26743,3.78071 -0.26743,15.00092c0,3.84037 -6.30237,-0.6532 -6.15892,-1.50518c0.23442,-1.39224 6.96116,-1.0785 6.96116,1.70517c0,1.26536 -1.77038,0.8921 -4.55829,0.97782c-2.01914,0.06209 -4.57201,1.03062 -7.37262,-0.1615c-5.84703,-2.48887 -12.93884,-0.61632 -12.93884,-0.61632c0,0 4.58996,40.24561 0.02239,40.30874c-4.42648,0.06117 6.42595,0.34116 -0.01969,0.41888c-11.71055,0.1412 -24.90927,0.27489 -32.89491,0.27489c-4.2278,0 -10.27982,-3.67909 -8.30702,-9.55356c2.98398,-8.88552 2.69126,-31.84896 2.69126,-31.84896z" fill="#ff0000" stroke="none" stroke-width="0"/><path d="M327.14788,292.4341c0,2.89004 0.21183,6.29885 -2.3398,7.87261c-1.6725,1.03154 -5.59993,0.79028 -7.82206,0.79028c-2.93913,0 -8.80032,0.29515 -11.42427,-1.40534c-2.38643,-1.54659 -1.67914,-4.97873 -1.67914,-7.25755c0,-1.96129 -1.10737,-5.29906 0.18149,-6.75109c1.85523,-2.09012 9.61032,-1.9118 12.9219,-1.9118c3.30224,0 7.57365,0.4935 9.42975,2.57352c1.29838,1.45503 0.73206,4.12011 0.73206,6.08935z" fill="#ffefef" stroke="none" stroke-width="0"/><path d="M426.11815,293.45403c0,2.8519 0.21183,6.21571 -2.33977,7.76871c-1.6725,1.01794 -5.59993,0.77983 -7.82206,0.77983c-2.93913,0 -8.80032,0.29126 -11.42427,-1.38682c-2.38643,-1.52616 -1.67914,-4.91305 -1.67914,-7.16175c0,-1.93538 -1.10737,-5.22912 0.18149,-6.66201c1.85523,-2.06253 9.61032,-1.88656 12.9219,-1.88656c3.30224,0 7.57365,0.48699 9.42975,2.53957c1.29838,1.43583 0.73206,4.06572 0.73206,6.00898z" fill="#ffefef" stroke="none" stroke-width="0"/><path d="M374.29276,243.44432c0,-1.23656 1.00244,-2.239 2.239,-2.239c1.23656,0 2.239,1.00244 2.239,2.239c0,1.23656 -1.00244,2.239 -2.239,2.239c-1.23656,0 -2.239,-1.00244 -2.239,-2.239z" fill="#ffefef" stroke="none" stroke-width="0.5"/><path d="M353.71471,247.18577c0,-1.23656 1.00244,-2.239 2.239,-2.239c1.23656,0 2.239,1.00244 2.239,2.239c0,1.23656 -1.00244,2.239 -2.239,2.239c-1.23656,0 -2.239,-1.00244 -2.239,-2.239z" fill="#ffefef" stroke="none" stroke-width="0.5"/><path d="M346.12734,390.57125v-58.07335h19.46596v58.07335z" fill="#00e6ff" stroke="none" stroke-width="0"/><path d="M346.12734,345.28375v-12.93861h44.6572v12.93861z" fill="#00e6ff" stroke="none" stroke-width="0"/><path d="M374.06671,391.32119v-58.07335h16.94683v58.07335z" fill="#00e6ff" stroke="none" stroke-width="0"/><path d="M366.50936,384.12843c0,5.16753 -5.07532,9.35664 -11.33608,9.35664c-6.26073,0 -11.33608,-4.18911 -11.33608,-9.35664c0,-5.16753 5.07532,-9.35664 11.33608,-9.35664c6.26073,0 11.33608,4.18911 11.33608,9.35664z" fill="#00e6ff" stroke="none" stroke-width="0"/><path d="M393.30368,385.57317c0,4.96835 -4.97281,8.99601 -11.10706,8.99601c-6.13425,0 -11.10706,-4.02763 -11.10706,-8.99601c0,-4.96835 4.97281,-8.99601 11.10706,-8.99601c6.13425,0 11.10706,4.02763 11.10706,8.99601z" fill="#00e6ff" stroke="none" stroke-width="0"/><path d="M206.80314,434.83829v-290.06202h290.06202v290.06202z" fill="none" stroke="#000000" stroke-width="3.5"/></g></g></svg>