<svg version="1.1" xmlns="http://www.w3.org/2000/svg" xmlns:xlink="http://www.w3.org/1999/xlink" width="138.83314" height="91.74638" viewBox="0,0,138.83314,91.74638"><g transform="translate(-172.12131,-156.48964)"><g data-paper-data="{&quot;isPaintingLayer&quot;:true}" fill-rule="nonzero" stroke-linecap="butt" stroke-linejoin="miter" stroke-miterlimit="10" stroke-dasharray="" stroke-dashoffset="0" style="mix-blend-mode: normal"><path d="M279.84265,210.64312c-3.24532,2.31526 -12.14395,-4.59345 -19.87564,-15.43104c-7.73169,-10.83759 -11.36862,-21.50008 -8.1233,-23.81534c3.24532,-2.31526 12.14395,4.59345 19.87565,15.43104c7.73169,10.83759 11.36862,21.50008 8.1233,23.81534z" data-paper-data="{&quot;index&quot;:null}" fill="#ffffff" stroke="none" stroke-width="0"/><path d="M204.04498,210.09297c3.24532,2.31526 12.14395,-4.59345 19.87564,-15.43104c7.73169,-10.83759 11.36862,-21.50008 8.1233,-23.81534c-3.24532,-2.31526 -12.14395,4.59345 -19.87565,15.43104c-7.73169,10.83759 -11.36862,21.50008 -8.1233,23.81534z" fill="#ffffff" stroke="none" stroke-width="0"/><path d="M222.126,188.32292c0,-10.18764 8.25872,-18.44636 18.44636,-18.44636c10.18764,0 18.44636,8.25872 18.44636,18.44636c0,10.18764 -8.25872,18.44636 -18.44636,18.44636c-10.18764,0 -18.44636,-8.25872 -18.44636,-18.44636z" fill="#ffffff" stroke="#ffffff" stroke-width="2"/><path d="M172.12131,248.23602v-91.74638h138.83314v91.74638z" fill="none" stroke="none" stroke-width="0"/><path d="M245.74495,192.24969c0,1.78731 -2.20957,4.53069 -4.93521,4.53069c-2.72564,0 -4.93521,-2.74338 -4.93521,-4.53069c0,-1.78731 2.20957,-3.2362 4.93521,-3.2362c2.72564,0 4.93521,1.4489 4.93521,3.2362z" fill="#ffa4a4" stroke="none" stroke-width="0"/><path d="M230.85841,183.02651c0,-1.16175 0.76067,-2.10353 1.69901,-2.10353c0.93834,0 1.69901,0.94178 1.69901,2.10353c0,1.16175 -0.76067,2.10353 -1.69901,2.10353c-0.93834,0 -1.69901,-0.94178 -1.69901,-2.10353z" fill="#c49191" stroke="none" stroke-width="0"/><path d="M246.45691,182.92943c0,-1.25111 0.76067,-2.26534 1.69901,-2.26534c0.93834,0 1.69901,1.01423 1.69901,2.26534c0,1.25111 -0.76067,2.26534 -1.69901,2.26534c-0.93834,0 -1.69901,-1.01423 -1.69901,-2.26534z" fill="#c49191" stroke="none" stroke-width="0"/><path d="M256.26281,220.99022c0,4.71856 0.20942,10.13074 -3.43802,12.96636c-2.95238,2.29526 -9.30175,2.49296 -13.48202,2.49296c-4.39164,0 -11.80621,0.10395 -14.81364,-2.40279c-3.39188,-2.82718 -2.10641,-8.53109 -2.10641,-13.05653c0,-4.9125 1.17206,-10.32878 5.08183,-13.16048c2.88543,-2.0898 7.87021,-2.29884 11.83821,-2.29884c4.45815,0 9.84939,0.23954 12.87168,2.81419c3.3127,2.82204 4.04836,8.18046 4.04836,12.64513z" fill="#ffffff" stroke="none" stroke-width="0"/><path d="M202.78249,238.67329c-0.91462,-3.93496 5.49605,-8.78727 14.31864,-10.83795c8.82259,-2.05068 16.71615,-0.52317 17.63077,3.41179c0.91462,3.93496 -5.49605,8.78727 -14.31864,10.83795c-8.82259,2.05068 -16.71615,0.52317 -17.63077,-3.41179z" fill="#ffffff" stroke="none" stroke-width="0"/><path d="M201.34957,235.07461c0,-4.13322 3.35064,-7.48385 7.48385,-7.48385c4.13322,0 7.48385,3.35064 7.48385,7.48385c0,4.13322 -3.35063,7.48385 -7.48385,7.48385c-4.13322,0 -7.48385,-3.35063 -7.48385,-7.48385z" fill="#ffffff" stroke="none" stroke-width="0"/><path d="M257.97418,241.52299c-8.82259,-2.05068 -15.23326,-6.90299 -14.31864,-10.83795c0.91462,-3.93496 8.80819,-5.46247 17.63077,-3.41179c8.82259,2.05068 15.23326,6.90299 14.31864,10.83795c-0.91462,3.93496 -8.80819,5.46247 -17.63077,3.41179z" data-paper-data="{&quot;index&quot;:null}" fill="#ffffff" stroke="none" stroke-width="0"/><path d="M269.55402,241.99637c-4.13322,0 -7.48385,-3.35063 -7.48385,-7.48385c0,-4.13322 3.35063,-7.48385 7.48385,-7.48385c4.13322,0 7.48385,3.35064 7.48385,7.48385c0,4.13322 -3.35064,7.48385 -7.48385,7.48385z" data-paper-data="{&quot;index&quot;:null}" fill="#ffffff" stroke="none" stroke-width="0"/><path d="M205.9211,225.04864c1.47239,2.4351 8.76757,0.71981 16.29424,-3.8312c7.52668,-4.55101 12.43464,-10.21437 10.96226,-12.64947c-1.47239,-2.4351 -8.76757,-0.71982 -16.29424,3.8312c-7.52668,4.55101 -12.43464,10.21438 -10.96226,12.64948z" fill="#ffffff" stroke="none" stroke-width="0"/><path d="M275.11847,225.1338c-1.47239,2.4351 -8.76757,0.71981 -16.29424,-3.8312c-7.52668,-4.55101 -12.43464,-10.21437 -10.96226,-12.64947c1.47239,-2.4351 8.76757,-0.71982 16.29424,3.8312c7.52668,4.55101 12.43464,10.21438 10.96226,12.64948z" data-paper-data="{&quot;index&quot;:null}" fill="#ffffff" stroke="none" stroke-width="0"/></g></g></svg>