<svg version="1.1" xmlns="http://www.w3.org/2000/svg" xmlns:xlink="http://www.w3.org/1999/xlink" width="49.58281" height="80.94806" viewBox="0,0,49.58281,80.94806"><g transform="translate(-214.79633,-131.87249)"><g data-paper-data="{&quot;isPaintingLayer&quot;:true}" fill-rule="nonzero" stroke-linecap="butt" stroke-linejoin="miter" stroke-miterlimit="10" stroke-dasharray="" stroke-dashoffset="0" style="mix-blend-mode: normal"><path d="M253.21043,149.41658c2.68122,4.23109 3.28271,8.65728 1.34346,9.88618c-1.93924,1.22889 -5.68488,-1.20487 -8.3661,-5.43595c-2.68122,-4.23109 -3.28271,-8.65728 -1.34346,-9.88618c1.93924,-1.22889 5.68488,1.20487 8.3661,5.43595z" fill="#000000" stroke="#000000" stroke-width="2.5"/><path d="M231.68993,154.30378c-2.94165,4.05436 -6.83273,6.24809 -8.69097,4.89984c-1.85825,-1.34825 -0.97998,-5.72794 1.96166,-9.78229c2.94165,-4.05436 6.83273,-6.24809 8.69097,-4.89983c1.85825,1.34825 0.97998,5.72794 -1.96166,9.78229z" fill="#000000" stroke="#000000" stroke-width="2.5"/><path d="M250.11909,156.26557c0,8.94482 -4.73746,16.19603 -10.58141,16.19603c-5.84395,0 -10.58141,-7.25122 -10.58141,-16.19603c0,-8.94482 4.73746,-16.19603 10.58141,-16.19603c5.84395,0 10.58141,7.25122 10.58141,16.19603z" fill="#000000" stroke="none" stroke-width="NaN"/><path d="M249.97372,158.68954c0,7.50004 -4.68905,13.58001 -10.47328,13.58001c-5.78423,0 -10.47328,-6.07998 -10.47328,-13.58001c0,-4.12877 -0.08413,-7.94228 2.15836,-10.43295c0.36991,-0.41085 2.26731,-0.67375 2.67924,-1.01539c1.62708,-1.34943 3.56093,2.26999 5.63569,2.26999c2.10167,0 4.05875,-3.59899 5.69887,-2.21717c0.29984,0.25262 1.50997,0.09355 1.9942,0.27819c0.76984,0.29353 0.85456,0.92841 1.23277,1.47485c1.66405,2.40419 1.54745,6.15777 1.54745,9.64248z" fill="#ffcd44" stroke="none" stroke-width="0"/><path d="M238.20485,155.63664c0,2.50455 -1.25687,4.53489 -2.80731,4.53489c-1.55043,0 -2.80731,-2.03034 -2.80731,-4.53489c0,-2.50455 1.25687,-4.53489 2.80731,-4.53489c1.55043,0 2.80731,2.03034 2.80731,4.53489z" fill="#000000" stroke="#000000" stroke-width="2.5"/><path d="M245.97403,154.65996c0,2.50455 -1.25687,4.53489 -2.80731,4.53489c-1.55043,0 -2.80731,-2.03034 -2.80731,-4.53489c0,-2.50455 1.25688,-4.53489 2.80731,-4.53489c1.55044,0 2.80731,2.03034 2.80731,4.53489z" fill="#000000" stroke="#000000" stroke-width="2.5"/><path d="M244.35934,161.05803c0,2.21232 0.01036,4.98864 -1.22976,6.1617c-0.77098,0.72929 -2.52976,0.33443 -3.53955,0.33443c-1.25231,0 -3.04973,0.49379 -3.9007,-0.5815c-0.93889,-1.18639 -0.86861,-4.03266 -0.86861,-5.91463c0,-3.58771 2.13529,-6.49613 4.76932,-6.49613c2.63402,0 4.76931,2.90842 4.76931,6.49613z" fill="#ffd256" stroke="#000000" stroke-width="2.5"/><path d="M229.99886,146.13008v-6.48349h19.00335v6.48349z" fill="#ff0000" stroke="none" stroke-width="0"/><path d="M229.89089,139.86254c0,0 0,-4.19314 0,-5.29071c0,-0.49583 0.53986,-0.64784 0.53986,-0.64784c0,0 0.18623,-0.55842 1.25825,-0.72015c1.89895,-0.2865 6.07101,-1.33135 8.02748,-1.33135c2.62989,0 6.46569,1.20499 8.75013,1.47555c0.73254,0.08676 0.85952,0.79189 0.85952,0.79189c0,0 0.32392,0.07401 0.32392,0.64784c0,1.13565 0,5.07476 0,5.07476z" fill="#ffffff" stroke="none" stroke-width="0"/><path d="M233.34604,174.54274c0,0 -2.44453,0.11691 -6.36863,0.09921c-2.59598,-0.01171 -5.18453,0.78569 -5.18453,-0.82603c0,-3.31508 -0.10798,-5.33004 -0.10798,-5.33004h37.03493c0,0 -0.10798,1.52652 -0.10798,6.05686c0,1.55061 -2.54468,-0.26374 -2.48676,-0.60774c0.09465,-0.56214 2.81068,-0.43546 2.81068,0.68849c0,0.51091 -0.71482,0.3602 -1.84048,0.39481c-0.81526,0.02507 -1.84602,0.41613 -2.97681,-0.06521c-2.36083,-1.00492 -5.22426,-0.24885 -5.22426,-0.24885c0,0 1.85327,16.2498 0.00904,16.27529c-1.78726,0.0247 2.59458,0.13775 -0.00795,0.16913c-4.72832,0.05701 -10.05751,0.11099 -13.28184,0.11099c-1.70704,0 -4.15064,-1.48549 -3.35409,-3.8574c1.20483,-3.58767 1.08664,-12.85952 1.08664,-12.85952z" fill="#ff0000" stroke="none" stroke-width="0"/><path d="M224.36872,171.5819c0,1.1669 0.08553,2.54326 -0.94473,3.17869c-0.6753,0.4165 -2.26106,0.31909 -3.15828,0.31909c-1.18672,0 -3.55327,0.11917 -4.61273,-0.56743c-0.96356,-0.62446 -0.67798,-2.01024 -0.67798,-2.93035c0,-0.7919 -0.44712,-2.13958 0.07328,-2.72586c0.74908,-0.84392 3.88032,-0.77192 5.21742,-0.77192c1.33333,0 3.05798,0.19926 3.80741,1.0391c0.52424,0.58749 0.29558,1.66356 0.29558,2.45867z" fill="#ffefef" stroke="none" stroke-width="0"/><path d="M264.32953,171.99371c0,1.1515 0.08553,2.50969 -0.94472,3.13674c-0.6753,0.41101 -2.26106,0.31487 -3.15828,0.31487c-1.18672,0 -3.55327,0.1176 -4.61273,-0.55995c-0.96356,-0.61621 -0.67798,-1.98372 -0.67798,-2.89167c0,-0.78144 -0.44712,-2.11134 0.07328,-2.68989c0.74908,-0.83278 3.88032,-0.76173 5.21742,-0.76173c1.33333,0 3.05798,0.19663 3.80741,1.02539c0.52424,0.57974 0.29558,1.6416 0.29558,2.42622z" fill="#ffefef" stroke="none" stroke-width="0"/><path d="M243.40421,151.8015c0,-0.49928 0.40475,-0.90403 0.90403,-0.90403c0.49928,0 0.90403,0.40475 0.90403,0.90403c0,0.49928 -0.40475,0.90403 -0.90403,0.90403c-0.49928,0 -0.90403,-0.40475 -0.90403,-0.90403z" fill="#ffefef" stroke="none" stroke-width="0.5"/><path d="M235.0955,153.31217c0,-0.49928 0.40475,-0.90403 0.90403,-0.90403c0.49928,0 0.90403,0.40475 0.90403,0.90403c0,0.49928 -0.40475,0.90403 -0.90403,0.90403c-0.49928,0 -0.90403,-0.40475 -0.90403,-0.90403z" fill="#ffefef" stroke="none" stroke-width="0.5"/><path d="M232.03198,211.20632v-23.44803h7.85969v23.44803z" fill="#00e6ff" stroke="none" stroke-width="0"/><path d="M232.03198,192.92078v-5.22417h18.03105v5.22417z" fill="#00e6ff" stroke="none" stroke-width="0"/><path d="M243.31294,211.50912v-23.44803h6.84255v23.44803z" fill="#00e6ff" stroke="none" stroke-width="0"/><path d="M240.26154,208.60493c0,2.08647 -2.04924,3.77789 -4.57712,3.77789c-2.52787,0 -4.57712,-1.69142 -4.57712,-3.77789c0,-2.08647 2.04924,-3.77789 4.57712,-3.77789c2.52787,0 4.57712,1.69142 4.57712,3.77789z" fill="#00e6ff" stroke="none" stroke-width="0"/><path d="M251.08017,209.18827c0,2.00605 -2.00785,3.63228 -4.48465,3.63228c-2.4768,0 -4.48465,-1.62622 -4.48465,-3.63228c0,-2.00605 2.00785,-3.63228 4.48465,-3.63228c2.4768,0 4.48465,1.62622 4.48465,3.63228z" fill="#00e6ff" stroke="none" stroke-width="0"/></g></g></svg>