<svg version="1.1" xmlns="http://www.w3.org/2000/svg" xmlns:xlink="http://www.w3.org/1999/xlink" width="139.62557" height="45.34875" viewBox="0,0,139.62557,45.34875"><g transform="translate(-167.08785,-157.45063)"><g data-paper-data="{&quot;isPaintingLayer&quot;:true}" fill-rule="nonzero" stroke-linecap="butt" stroke-linejoin="miter" stroke-miterlimit="10" stroke-dasharray="" stroke-dashoffset="0" style="mix-blend-mode: normal"><path d="M205.4685,182.50764c4.50264,0 8.15276,4.11766 8.15276,9.19704c0,5.07939 -3.65012,9.19704 -8.15276,9.19704c-4.50264,0 -8.15276,-4.11766 -8.15276,-9.19704c0,-5.07939 3.65012,-9.19704 8.15276,-9.19704z" data-paper-data="{&quot;index&quot;:null}" fill="#fe9f66" stroke="#000000" stroke-width="0.5"/><path d="M205.53026,191.70862c4.80964,0 8.70863,2.37473 8.70863,5.30411c0,2.92938 -3.89899,5.30411 -8.70863,5.30411c-4.80964,0 -8.70863,-2.37473 -8.70863,-5.30411c0,-2.92938 3.89899,-5.30411 8.70863,-5.30411z" data-paper-data="{&quot;index&quot;:null}" fill="#fe9f66" stroke="#000000" stroke-width="0.5"/><path d="M199.97856,199.06492c0.14947,-0.00624 0.29967,-0.00933 0.43993,-0.02363c0.7427,-0.07569 1.58205,-0.00355 2.33242,-0.00355c2.81887,0 5.57281,-0.38929 8.39981,-0.38929h0.19895c0.22099,-0.07338 0.44387,-0.14617 0.66928,-0.21754c0,0 1.22639,-0.38649 1.71694,0.57974c0.49056,0.96624 -0.73583,1.35273 -0.73583,1.35273c-0.03206,0.01005 -0.06412,0.02018 -0.09617,0.03039c-0.34782,0.2994 -0.87928,0.33203 -0.99098,0.33558c-1.63629,0.57925 -3.27908,1.24572 -5.04778,1.45249c-1.01501,0.11866 -2.09717,0.10512 -3.12603,0.10512c-0.87852,0 -1.77694,0.0612 -2.63195,-0.14833c-0.25892,-0.06345 -0.4674,-0.22537 -0.72653,-0.28829c-0.26093,-0.06336 -0.57507,0.02171 -0.81195,-0.08529c-0.5818,-0.26278 -1.04694,-0.66052 -1.57042,-0.99077c0.05855,-0.07538 0.11347,-0.15313 0.16638,-0.2322c-0.34098,-0.18818 -0.56393,-0.50006 -0.56393,-0.85296c0,-0.57475 0.59137,-1.04067 1.32086,-1.04067c0.43225,0 0.81601,0.16358 1.05697,0.41646z" data-paper-data="{&quot;index&quot;:null}" fill="#ffe366" stroke="#000000" stroke-width="0.5"/><path d="M237.08565,182.03464c4.50264,0 8.15276,4.11766 8.15276,9.19704c0,5.07939 -3.65012,9.19704 -8.15276,9.19704c-4.50264,0 -8.15276,-4.11766 -8.15276,-9.19704c0,-5.07939 3.65012,-9.19704 8.15276,-9.19704z" data-paper-data="{&quot;index&quot;:null}" fill="#fe9f66" stroke="#000000" stroke-width="0.5"/><path d="M237.14741,191.23562c4.80964,0 8.70863,2.37473 8.70863,5.30411c0,2.92938 -3.89899,5.30411 -8.70863,5.30411c-4.80964,0 -8.70863,-2.37473 -8.70863,-5.30411c0,-2.92938 3.89899,-5.30411 8.70863,-5.30411z" data-paper-data="{&quot;index&quot;:null}" fill="#fe9f66" stroke="#000000" stroke-width="0.5"/><path d="M231.59571,198.59192c0.14947,-0.00624 0.29967,-0.00933 0.43993,-0.02363c0.7427,-0.07569 1.58205,-0.00355 2.33242,-0.00355c2.81887,0 5.57281,-0.38929 8.39981,-0.38929h0.19895c0.22099,-0.07338 0.44387,-0.14617 0.66928,-0.21754c0,0 1.22639,-0.38649 1.71694,0.57974c0.49056,0.96624 -0.73583,1.35273 -0.73583,1.35273c-0.03206,0.01005 -0.06412,0.02018 -0.09617,0.03039c-0.34782,0.2994 -0.87928,0.33203 -0.99098,0.33558c-1.63629,0.57925 -3.27908,1.24572 -5.04778,1.45249c-1.01501,0.11866 -2.09717,0.10512 -3.12603,0.10512c-0.87852,0 -1.77694,0.0612 -2.63195,-0.14833c-0.25892,-0.06345 -0.4674,-0.22537 -0.72653,-0.28829c-0.26093,-0.06336 -0.57507,0.02171 -0.81195,-0.08529c-0.5818,-0.26278 -1.04694,-0.66052 -1.57042,-0.99077c0.05855,-0.07538 0.11347,-0.15313 0.16638,-0.2322c-0.34098,-0.18818 -0.56393,-0.50006 -0.56393,-0.85296c0,-0.57475 0.59137,-1.04067 1.32086,-1.04067c0.43225,0 0.81601,0.16358 1.05697,0.41646z" data-paper-data="{&quot;index&quot;:null}" fill="#ffe366" stroke="#000000" stroke-width="0.5"/><path d="M288.42665,160.29123c10.0995,0 18.28677,6.19741 18.28677,13.8423c0,7.64489 -8.18726,13.8423 -18.28677,13.8423c-10.0995,0 -18.28677,-6.19741 -18.28677,-13.8423c0,-7.64489 8.18726,-13.8423 18.28677,-13.8423z" data-paper-data="{&quot;index&quot;:null}" fill="#ff9e66" stroke="none" stroke-width="0"/><path d="M297.79539,165.14102c1.157,0 2.09494,1.16685 2.09494,2.60623c0,1.43938 -0.93793,2.60623 -2.09494,2.60623c-1.157,0 -2.09494,-1.16685 -2.09494,-2.60623c0,-1.43938 0.93793,-2.60623 2.09494,-2.60623z" data-paper-data="{&quot;index&quot;:null}" fill="none" stroke="#00ff08" stroke-width="3"/><path d="M297.78833,178.40221l-0.0379,0.11571c0.48672,0.47679 1.02249,1.3958 1.69835,1.62264c1.37077,0.46008 3.27426,-0.04186 4.69895,-0.04186c0,0 0.6949,0 0.6949,0.67971c0,0.67971 -0.6949,0.67971 -0.6949,0.67971c-1.6057,0 -3.64005,0.52308 -5.17914,-0.04186c-0.9647,-0.35411 -1.50298,-1.25553 -2.2009,-1.93709l-0.29785,-0.64709c0,0 -0.21975,-0.64483 0.4395,-0.85978c0.65925,-0.21494 0.87899,0.42989 0.87899,0.42989z" data-paper-data="{&quot;index&quot;:null}" fill="#00ff08" stroke="none" stroke-width="0.5"/><path d="M191.00065,160.33135c7.36402,-3.37633 21.26258,-2.29194 33.10416,-1.9214c10.49169,0.3283 27.53412,-2.64293 34.47684,0.49071c7.4518,3.36342 4.42085,12.99116 4.22505,17.89559c-0.10279,2.57481 0.98434,6.40569 -1.43693,8.52431c-6.48759,5.67666 -22.79394,7.89272 -38.63463,7.39704c-10.73472,-0.33591 -25.84028,0.13436 -32.82357,-3.12119c-7.16756,-3.34146 -6.06989,-10.46653 -5.87832,-15.26511c0.17233,-4.31651 0.8039,-11.17405 6.96739,-13.99995z" data-paper-data="{&quot;index&quot;:null}" fill="#ff3838" stroke="none" stroke-width="0"/><path d="M262.30014,160.20577c2.0844,-1.87813 6.48257,-1.72399 9.2873,-1.72399c6.89539,0 12.48521,6.72398 12.48521,15.01844c0,8.29446 -5.58982,15.01844 -12.48521,15.01844c-3.06529,0 -8.22486,0.84257 -10.39777,-1.36225c-2.71507,-2.75494 -2.08744,-9.04896 -2.08744,-13.65619c0,-4.92066 0.15784,-10.55521 3.19791,-13.29445z" data-paper-data="{&quot;index&quot;:null}" fill="#ff9e66" stroke="none" stroke-width="0"/><path d="M272.35259,170.7571c-1.67601,0 -3.03469,-1.35868 -3.03469,-3.03469c0,-1.67601 1.35868,-3.03469 3.03469,-3.03469c1.67601,0 3.03469,1.35868 3.03469,3.03469c0,1.67601 -1.35868,3.03469 -3.03469,3.03469z" data-paper-data="{&quot;index&quot;:null}" fill="#ffffff" stroke="#000000" stroke-width="0.5"/><path d="M271.10342,167.6006c-0.37539,0 -0.67971,-0.30432 -0.67971,-0.67971c0,-0.37539 0.30432,-0.67971 0.67971,-0.67971c0.37539,0 0.67971,0.30432 0.67971,0.67971c0,0.37539 -0.30432,0.67971 -0.67971,0.67971z" data-paper-data="{&quot;index&quot;:null}" fill="#000000" stroke="none" stroke-width="0.5"/><path d="M272.43832,171.37055c1.57981,0 2.8605,1.28069 2.8605,2.8605c0,1.57981 -1.28069,2.8605 -2.8605,2.8605c-1.57981,0 -2.8605,-1.28069 -2.8605,-2.8605c0,-1.57981 1.28069,-2.8605 2.8605,-2.8605z" data-paper-data="{&quot;index&quot;:null}" fill="#ff6dde" stroke="none" stroke-width="0"/><path d="M167.59071,173.68667l0.198,-0.09557c0.00812,-0.00507 0.01624,-0.01015 0.02436,-0.01522c-0.01544,0 -0.03061,0 -0.04551,0c0,0 -0.67971,0 -0.67971,-0.67971c0,-0.49573 0.36155,-0.62991 0.55727,-0.66623c-0.10052,-0.1007 -0.17587,-0.25166 -0.17587,-0.47797c0,-0.67971 0.67971,-0.67971 0.67971,-0.67971h0.12713c0.50853,0 1.01707,0 1.5256,0c0,0 0.23467,0 0.42823,0.13788c0.31071,-0.12277 0.58884,-0.12277 0.58884,-0.12277l0.56482,0.0138c1.02016,-0.30726 2.45896,-0.72908 3.52972,-0.6412c0.3131,0.0257 0.58703,0.22827 0.89144,0.3059c1.39448,0.35565 2.82526,0.55081 4.23157,0.85629c1.70103,0.36951 2.67838,0.74508 4.25858,0.73654c0,0 1.4274,0 1.4274,1.4274c0,1.4274 -1.4274,1.4274 -1.4274,1.4274c-2.59003,-0.0111 -5.11774,-0.84978 -7.64382,-1.36765c-0.69117,-0.1417 -1.34363,-0.46713 -2.04457,-0.54762c-0.73895,-0.08485 -2.12523,0.438 -2.82695,0.63014l-0.96078,0.0138c0,0 -0.36708,0 -0.72894,-0.18615c-0.52687,0.3293 -1.05374,0.65859 -1.58061,0.98788l-0.31054,0.15869c0,0 -0.60795,0.30398 -0.91193,-0.30398c-0.30398,-0.60795 0.30398,-0.91193 0.30398,-0.91193z" data-paper-data="{&quot;index&quot;:null}" fill="#00ff08" stroke="none" stroke-width="0.5"/><path d="M167.72351,175.18455l0.03488,-0.34208c0.13485,-0.33805 0.15293,-0.7512 0.40456,-1.01416c0.38441,-0.40172 0.75526,-0.49541 1.13021,-0.44358v-0.0241h0.88993c0.37539,0 0.67971,0.30432 0.67971,0.67971c0,0.34117 -0.25136,0.62364 -0.57899,0.6723l-0.75178,0.1253c0,0 -0.19933,0.03322 -0.39873,-0.04525c-0.07379,0.1411 -0.05306,0.32134 -0.08524,0.47966l0.03488,-0.08781c0,0 0,0.67971 -0.67971,0.67971c-0.67971,0 -0.67971,-0.67971 -0.67971,-0.67971z" data-paper-data="{&quot;index&quot;:null}" fill="#00ff08" stroke="none" stroke-width="0.5"/><path d="M257.01512,165.22912c-0.75079,0 -1.35943,-0.60864 -1.35943,-1.35943c0,-0.75079 0.60864,-1.35943 1.35943,-1.35943c0.75079,0 1.35943,0.60864 1.35943,1.35943c0,0.75079 -0.60864,1.35943 -1.35943,1.35943z" data-paper-data="{&quot;index&quot;:null}" fill="#ffabf4" stroke="none" stroke-width="0.5"/><path d="M250.78559,169.04312c-0.75079,0 -1.35943,-0.60864 -1.35943,-1.35943c0,-0.75079 0.60864,-1.35943 1.35943,-1.35943c0.75079,0 1.35943,0.60864 1.35943,1.35943c0,0.75079 -0.60864,1.35943 -1.35943,1.35943z" data-paper-data="{&quot;index&quot;:null}" fill="#ffabf4" stroke="none" stroke-width="0.5"/><path d="M246.59019,164.59345c-0.75079,0 -1.35943,-0.60864 -1.35943,-1.35943c0,-0.75079 0.60864,-1.35943 1.35943,-1.35943c0.75079,0 1.35943,0.60864 1.35943,1.35943c0,0.75079 -0.60864,1.35943 -1.35943,1.35943z" data-paper-data="{&quot;index&quot;:null}" fill="#ffabf4" stroke="none" stroke-width="0.5"/><path d="M241.37773,169.29738c-0.75079,0 -1.35943,-0.60864 -1.35943,-1.35943c0,-0.75079 0.60864,-1.35943 1.35943,-1.35943c0.75079,0 1.35943,0.60864 1.35943,1.35943c0,0.75079 -0.60864,1.35943 -1.35943,1.35943z" data-paper-data="{&quot;index&quot;:null}" fill="#ffabf4" stroke="none" stroke-width="0.5"/><path d="M237.69086,164.72058c-0.75079,0 -1.35943,-0.60864 -1.35943,-1.35943c0,-0.75079 0.60864,-1.35943 1.35943,-1.35943c0.75079,0 1.35943,0.60864 1.35943,1.35943c0,0.75079 -0.60864,1.35943 -1.35943,1.35943z" data-paper-data="{&quot;index&quot;:null}" fill="#ffabf4" stroke="none" stroke-width="0.5"/><path d="M233.2412,169.29738c-0.75079,0 -1.35943,-0.60864 -1.35943,-1.35943c0,-0.75079 0.60864,-1.35943 1.35943,-1.35943c0.75079,0 1.35943,0.60864 1.35943,1.35943c0,0.75079 -0.60864,1.35943 -1.35943,1.35943z" data-paper-data="{&quot;index&quot;:null}" fill="#ffabf4" stroke="none" stroke-width="0.5"/><path d="M228.6644,164.59345c-0.75079,0 -1.35943,-0.60864 -1.35943,-1.35943c0,-0.75079 0.60864,-1.35943 1.35943,-1.35943c0.75079,0 1.35943,0.60864 1.35943,1.35943c0,0.75079 -0.60864,1.35943 -1.35943,1.35943z" data-paper-data="{&quot;index&quot;:null}" fill="#ffabf4" stroke="none" stroke-width="0.5"/><path d="M224.8504,169.17025c-0.75079,0 -1.35943,-0.60864 -1.35943,-1.35943c0,-0.75079 0.60864,-1.35943 1.35943,-1.35943c0.75079,0 1.35943,0.60864 1.35943,1.35943c0,0.75079 -0.60864,1.35943 -1.35943,1.35943z" data-paper-data="{&quot;index&quot;:null}" fill="#ffabf4" stroke="none" stroke-width="0.5"/><path d="M218.87514,164.21205c-0.75079,0 -1.35943,-0.60864 -1.35943,-1.35943c0,-0.75079 0.60864,-1.35943 1.35943,-1.35943c0.75079,0 1.35943,0.60864 1.35943,1.35943c0,0.75079 -0.60864,1.35943 -1.35943,1.35943z" data-paper-data="{&quot;index&quot;:null}" fill="#ffabf4" stroke="none" stroke-width="0.5"/><path d="M213.40841,169.42452c-0.75079,0 -1.35943,-0.60864 -1.35943,-1.35943c0,-0.75079 0.60864,-1.35943 1.35943,-1.35943c0.75079,0 1.35943,0.60864 1.35943,1.35943c0,0.75079 -0.60864,1.35943 -1.35943,1.35943z" data-paper-data="{&quot;index&quot;:null}" fill="#ffabf4" stroke="none" stroke-width="0.5"/><path d="M208.57734,164.21205c-0.75079,0 -1.35943,-0.60864 -1.35943,-1.35943c0,-0.75079 0.60864,-1.35943 1.35943,-1.35943c0.75079,0 1.35943,0.60864 1.35943,1.35943c0,0.75079 -0.60864,1.35943 -1.35943,1.35943z" data-paper-data="{&quot;index&quot;:null}" fill="#ffabf4" stroke="none" stroke-width="0.5"/><path d="M202.34781,170.06018c-0.75079,0 -1.35943,-0.60864 -1.35943,-1.35943c0,-0.75079 0.60864,-1.35943 1.35943,-1.35943c0.75079,0 1.35943,0.60864 1.35943,1.35943c0,0.75079 -0.60864,1.35943 -1.35943,1.35943z" data-paper-data="{&quot;index&quot;:null}" fill="#ffabf4" stroke="none" stroke-width="0.5"/><path d="M196.62681,164.33919c-0.75079,0 -1.35943,-0.60864 -1.35943,-1.35943c0,-0.75079 0.60864,-1.35943 1.35943,-1.35943c0.75079,0 1.35943,0.60864 1.35943,1.35943c0,0.75079 -0.60864,1.35943 -1.35943,1.35943z" data-paper-data="{&quot;index&quot;:null}" fill="#ffabf4" stroke="none" stroke-width="0.5"/><path d="M190.65155,170.56872c-0.75079,0 -1.35943,-0.60864 -1.35943,-1.35943c0,-0.75079 0.60864,-1.35943 1.35943,-1.35943c0.75079,0 1.35943,0.60864 1.35943,1.35943c0,0.75079 -0.60864,1.35943 -1.35943,1.35943z" data-paper-data="{&quot;index&quot;:null}" fill="#ffabf4" stroke="none" stroke-width="0.5"/><path d="M187.98175,165.73765c-0.75079,0 -1.35943,-0.60864 -1.35943,-1.35943c0,-0.75079 0.60864,-1.35943 1.35943,-1.35943c0.75079,0 1.35943,0.60864 1.35943,1.35943c0,0.75079 -0.60864,1.35943 -1.35943,1.35943z" data-paper-data="{&quot;index&quot;:null}" fill="#ffabf4" stroke="none" stroke-width="0.5"/><path d="M257.01512,175.65405c-0.75079,0 -1.35943,-0.60864 -1.35943,-1.35943c0,-0.75079 0.60864,-1.35943 1.35943,-1.35943c0.75079,0 1.35943,0.60864 1.35943,1.35943c0,0.75079 -0.60864,1.35943 -1.35943,1.35943z" data-paper-data="{&quot;index&quot;:null}" fill="#ffabf4" stroke="none" stroke-width="0.5"/><path d="M251.67552,179.46805c-0.75079,0 -1.35943,-0.60864 -1.35943,-1.35943c0,-0.75079 0.60864,-1.35943 1.35943,-1.35943c0.75079,0 1.35943,0.60864 1.35943,1.35943c0,0.75079 -0.60864,1.35943 -1.35943,1.35943z" data-paper-data="{&quot;index&quot;:null}" fill="#ffabf4" stroke="none" stroke-width="0.5"/><path d="M246.46306,174.76411c-0.75079,0 -1.35943,-0.60864 -1.35943,-1.35943c0,-0.75079 0.60864,-1.35943 1.35943,-1.35943c0.75079,0 1.35943,0.60864 1.35943,1.35943c0,0.75079 -0.60864,1.35943 -1.35943,1.35943z" data-paper-data="{&quot;index&quot;:null}" fill="#ffabf4" stroke="none" stroke-width="0.5"/><path d="M240.86919,179.34091c-0.75079,0 -1.35943,-0.60864 -1.35943,-1.35943c0,-0.75079 0.60864,-1.35943 1.35943,-1.35943c0.75079,0 1.35943,0.60864 1.35943,1.35943c0,0.75079 -0.60864,1.35943 -1.35943,1.35943z" data-paper-data="{&quot;index&quot;:null}" fill="#ffabf4" stroke="none" stroke-width="0.5"/><path d="M236.2924,175.01838c-0.75079,0 -1.35943,-0.60864 -1.35943,-1.35943c0,-0.75079 0.60864,-1.35943 1.35943,-1.35943c0.75079,0 1.35943,0.60864 1.35943,1.35943c0,0.75079 -0.60864,1.35943 -1.35943,1.35943z" data-paper-data="{&quot;index&quot;:null}" fill="#ffabf4" stroke="none" stroke-width="0.5"/><path d="M230.69853,179.34091c-0.75079,0 -1.35943,-0.60864 -1.35943,-1.35943c0,-0.75079 0.60864,-1.35943 1.35943,-1.35943c0.75079,0 1.35943,0.60864 1.35943,1.35943c0,0.75079 -0.60864,1.35943 -1.35943,1.35943z" data-paper-data="{&quot;index&quot;:null}" fill="#ffabf4" stroke="none" stroke-width="0.5"/><path d="M226.88453,175.14551c-0.75079,0 -1.35943,-0.60864 -1.35943,-1.35943c0,-0.75079 0.60864,-1.35943 1.35943,-1.35943c0.75079,0 1.35943,0.60864 1.35943,1.35943c0,0.75079 -0.60864,1.35943 -1.35943,1.35943z" data-paper-data="{&quot;index&quot;:null}" fill="#ffabf4" stroke="none" stroke-width="0.5"/><path d="M222.68913,179.34091c-0.75079,0 -1.35943,-0.60864 -1.35943,-1.35943c0,-0.75079 0.60864,-1.35943 1.35943,-1.35943c0.75079,0 1.35943,0.60864 1.35943,1.35943c0,0.75079 -0.60864,1.35943 -1.35943,1.35943z" data-paper-data="{&quot;index&quot;:null}" fill="#ffabf4" stroke="none" stroke-width="0.5"/><path d="M217.47667,174.25558c-0.75079,0 -1.35943,-0.60864 -1.35943,-1.35943c0,-0.75079 0.60864,-1.35943 1.35943,-1.35943c0.75079,0 1.35943,0.60864 1.35943,1.35943c0,0.75079 -0.60864,1.35943 -1.35943,1.35943z" data-paper-data="{&quot;index&quot;:null}" fill="#ffabf4" stroke="none" stroke-width="0.5"/><path d="M213.02701,178.95951c-0.75079,0 -1.35943,-0.60864 -1.35943,-1.35943c0,-0.75079 0.60864,-1.35943 1.35943,-1.35943c0.75079,0 1.35943,0.60864 1.35943,1.35943c0,0.75079 -0.60864,1.35943 -1.35943,1.35943z" data-paper-data="{&quot;index&quot;:null}" fill="#ffabf4" stroke="none" stroke-width="0.5"/><path d="M208.83161,175.27265c-0.75079,0 -1.35943,-0.60864 -1.35943,-1.35943c0,-0.75079 0.60864,-1.35943 1.35943,-1.35943c0.75079,0 1.35943,0.60864 1.35943,1.35943c0,0.75079 -0.60864,1.35943 -1.35943,1.35943z" data-paper-data="{&quot;index&quot;:null}" fill="#ffabf4" stroke="none" stroke-width="0.5"/><path d="M204.25481,179.21378c-0.75079,0 -1.35943,-0.60864 -1.35943,-1.35943c0,-0.75079 0.60864,-1.35943 1.35943,-1.35943c0.75079,0 1.35943,0.60864 1.35943,1.35943c0,0.75079 -0.60864,1.35943 -1.35943,1.35943z" data-paper-data="{&quot;index&quot;:null}" fill="#ffabf4" stroke="none" stroke-width="0.5"/><path d="M199.93228,174.38271c-0.75079,0 -1.35943,-0.60864 -1.35943,-1.35943c0,-0.75079 0.60864,-1.35943 1.35943,-1.35943c0.75079,0 1.35943,0.60864 1.35943,1.35943c0,0.75079 -0.60864,1.35943 -1.35943,1.35943z" data-paper-data="{&quot;index&quot;:null}" fill="#ffabf4" stroke="none" stroke-width="0.5"/><path d="M194.33841,178.95951c-0.75079,0 -1.35943,-0.60864 -1.35943,-1.35943c0,-0.75079 0.60864,-1.35943 1.35943,-1.35943c0.75079,0 1.35943,0.60864 1.35943,1.35943c0,0.75079 -0.60864,1.35943 -1.35943,1.35943z" data-paper-data="{&quot;index&quot;:null}" fill="#ffabf4" stroke="none" stroke-width="0.5"/><path d="M191.28721,175.65405c-0.75079,0 -1.35943,-0.60864 -1.35943,-1.35943c0,-0.75079 0.60864,-1.35943 1.35943,-1.35943c0.75079,0 1.35943,0.60864 1.35943,1.35943c0,0.75079 -0.60864,1.35943 -1.35943,1.35943z" data-paper-data="{&quot;index&quot;:null}" fill="#ffabf4" stroke="none" stroke-width="0.5"/><path d="M186.20188,178.95951c-0.75079,0 -1.35943,-0.60864 -1.35943,-1.35943c0,-0.75079 0.60864,-1.35943 1.35943,-1.35943c0.75079,0 1.35943,0.60864 1.35943,1.35943c0,0.75079 -0.60864,1.35943 -1.35943,1.35943z" data-paper-data="{&quot;index&quot;:null}" fill="#ffabf4" stroke="none" stroke-width="0.5"/><path d="M257.90505,184.93478c-0.75079,0 -1.35943,-0.60864 -1.35943,-1.35943c0,-0.75079 0.60864,-1.35943 1.35943,-1.35943c0.75079,0 1.35943,0.60864 1.35943,1.35943c0,0.75079 -0.60864,1.35943 -1.35943,1.35943z" data-paper-data="{&quot;index&quot;:null}" fill="#ffabf4" stroke="none" stroke-width="0.5"/><path d="M253.96392,188.36738c-0.75079,0 -1.35943,-0.60864 -1.35943,-1.35943c0,-0.75079 0.60864,-1.35943 1.35943,-1.35943c0.75079,0 1.35943,0.60864 1.35943,1.35943c0,0.75079 -0.60864,1.35943 -1.35943,1.35943z" data-paper-data="{&quot;index&quot;:null}" fill="#ffabf4" stroke="none" stroke-width="0.5"/><path d="M248.87859,185.06191c-0.75079,0 -1.35943,-0.60864 -1.35943,-1.35943c0,-0.75079 0.60864,-1.35943 1.35943,-1.35943c0.75079,0 1.35943,0.60864 1.35943,1.35943c0,0.75079 -0.60864,1.35943 -1.35943,1.35943z" data-paper-data="{&quot;index&quot;:null}" fill="#ffabf4" stroke="none" stroke-width="0.5"/><path d="M246.71733,188.24024c-0.75079,0 -1.35943,-0.60864 -1.35943,-1.35943c0,-0.75079 0.60864,-1.35943 1.35943,-1.35943c0.75079,0 1.35943,0.60864 1.35943,1.35943c0,0.75079 -0.60864,1.35943 -1.35943,1.35943z" data-paper-data="{&quot;index&quot;:null}" fill="#ffabf4" stroke="none" stroke-width="0.5"/><path d="M241.88626,184.42624c-0.75079,0 -1.35943,-0.60864 -1.35943,-1.35943c0,-0.75079 0.60864,-1.35943 1.35943,-1.35943c0.75079,0 1.35943,0.60864 1.35943,1.35943c0,0.75079 -0.60864,1.35943 -1.35943,1.35943z" data-paper-data="{&quot;index&quot;:null}" fill="#ffabf4" stroke="none" stroke-width="0.5"/><path d="M235.5296,189.63871c-0.75079,0 -1.35943,-0.60864 -1.35943,-1.35943c0,-0.75079 0.60864,-1.35943 1.35943,-1.35943c0.75079,0 1.35943,0.60864 1.35943,1.35943c0,0.75079 -0.60864,1.35943 -1.35943,1.35943z" data-paper-data="{&quot;index&quot;:null}" fill="#ffabf4" stroke="none" stroke-width="0.5"/><path d="M230.5714,185.18904c-0.75079,0 -1.35943,-0.60864 -1.35943,-1.35943c0,-0.75079 0.60864,-1.35943 1.35943,-1.35943c0.75079,0 1.35943,0.60864 1.35943,1.35943c0,0.75079 -0.60864,1.35943 -1.35943,1.35943z" data-paper-data="{&quot;index&quot;:null}" fill="#ffabf4" stroke="none" stroke-width="0.5"/><path d="M223.83333,188.11311c-0.75079,0 -1.35943,-0.60864 -1.35943,-1.35943c0,-0.75079 0.60864,-1.35943 1.35943,-1.35943c0.75079,0 1.35943,0.60864 1.35943,1.35943c0,0.75079 -0.60864,1.35943 -1.35943,1.35943z" data-paper-data="{&quot;index&quot;:null}" fill="#ffabf4" stroke="none" stroke-width="0.5"/><path d="M218.87514,185.18904c-0.75079,0 -1.35943,-0.60864 -1.35943,-1.35943c0,-0.75079 0.60864,-1.35943 1.35943,-1.35943c0.75079,0 1.35943,0.60864 1.35943,1.35943c0,0.75079 -0.60864,1.35943 -1.35943,1.35943z" data-paper-data="{&quot;index&quot;:null}" fill="#ffabf4" stroke="none" stroke-width="0.5"/><path d="M214.04407,188.36738c-0.75079,0 -1.35943,-0.60864 -1.35943,-1.35943c0,-0.75079 0.60864,-1.35943 1.35943,-1.35943c0.75079,0 1.35943,0.60864 1.35943,1.35943c0,0.75079 -0.60864,1.35943 -1.35943,1.35943z" data-paper-data="{&quot;index&quot;:null}" fill="#ffabf4" stroke="none" stroke-width="0.5"/><path d="M210.48434,185.57044c-0.75079,0 -1.35943,-0.60864 -1.35943,-1.35943c0,-0.75079 0.60864,-1.35943 1.35943,-1.35943c0.75079,0 1.35943,0.60864 1.35943,1.35943c0,0.75079 -0.60864,1.35943 -1.35943,1.35943z" data-paper-data="{&quot;index&quot;:null}" fill="#ffabf4" stroke="none" stroke-width="0.5"/><path d="M203.87341,189.89298c-0.75079,0 -1.35943,-0.60864 -1.35943,-1.35943c0,-0.75079 0.60864,-1.35943 1.35943,-1.35943c0.75079,0 1.35943,0.60864 1.35943,1.35943c0,0.75079 -0.60864,1.35943 -1.35943,1.35943z" data-paper-data="{&quot;index&quot;:null}" fill="#ffabf4" stroke="none" stroke-width="0.5"/><path d="M201.07648,186.96891c-0.75079,0 -1.35943,-0.60864 -1.35943,-1.35943c0,-0.75079 0.60864,-1.35943 1.35943,-1.35943c0.75079,0 1.35943,0.60864 1.35943,1.35943c0,0.75079 -0.60864,1.35943 -1.35943,1.35943z" data-paper-data="{&quot;index&quot;:null}" fill="#ffabf4" stroke="none" stroke-width="0.5"/><path d="M195.22835,189.63871c-0.75079,0 -1.35943,-0.60864 -1.35943,-1.35943c0,-0.75079 0.60864,-1.35943 1.35943,-1.35943c0.75079,0 1.35943,0.60864 1.35943,1.35943c0,0.75079 -0.60864,1.35943 -1.35943,1.35943z" data-paper-data="{&quot;index&quot;:null}" fill="#ffabf4" stroke="none" stroke-width="0.5"/><path d="M188.49028,185.82471c-0.75079,0 -1.35943,-0.60864 -1.35943,-1.35943c0,-0.75079 0.60864,-1.35943 1.35943,-1.35943c0.75079,0 1.35943,0.60864 1.35943,1.35943c0,0.75079 -0.60864,1.35943 -1.35943,1.35943z" data-paper-data="{&quot;index&quot;:null}" fill="#ffabf4" stroke="none" stroke-width="0.5"/><path d="M196.24541,182.90064c-0.75079,0 -1.35943,-0.60864 -1.35943,-1.35943c0,-0.75079 0.60864,-1.35943 1.35943,-1.35943c0.75079,0 1.35943,0.60864 1.35943,1.35943c0,0.75079 -0.60864,1.35943 -1.35943,1.35943z" data-paper-data="{&quot;index&quot;:null}" fill="#ffabf4" stroke="none" stroke-width="0.5"/><path d="M248.23434,182.26717c4.50264,0 8.15276,4.11766 8.15276,9.19704c0,5.07939 -3.65011,9.19704 -8.15276,9.19704c-4.50264,0 -8.15276,-4.11766 -8.15276,-9.19704c0,-5.07939 3.65011,-9.19704 8.15276,-9.19704z" data-paper-data="{&quot;index&quot;:null}" fill="#fe9f66" stroke="#003c3c" stroke-width="0.5"/><path d="M248.2961,191.46815c4.80964,0 8.70863,2.37473 8.70863,5.30411c0,2.92938 -3.89899,5.30411 -8.70863,5.30411c-4.80964,0 -8.70863,-2.37473 -8.70863,-5.30411c0,-2.92938 3.89899,-5.30411 8.70863,-5.30411z" data-paper-data="{&quot;index&quot;:null}" fill="#fe9f66" stroke="#003c3c" stroke-width="0.5"/><path d="M242.7444,198.82445c0.14947,-0.00624 0.29967,-0.00933 0.43993,-0.02363c0.7427,-0.07569 1.58205,-0.00355 2.33243,-0.00355c2.81887,0 5.57281,-0.38929 8.39981,-0.38929h0.19896c0.22099,-0.07338 0.44387,-0.14617 0.66928,-0.21754c0,0 1.22639,-0.38649 1.71694,0.57974c0.49056,0.96624 -0.73583,1.35273 -0.73583,1.35273c-0.03206,0.01005 -0.06412,0.02018 -0.09617,0.03039c-0.34782,0.2994 -0.87928,0.33203 -0.99098,0.33558c-1.63629,0.57925 -3.27908,1.24572 -5.04778,1.45249c-1.01501,0.11866 -2.09717,0.10512 -3.12603,0.10512c-0.87852,0 -1.77694,0.0612 -2.63195,-0.14833c-0.25892,-0.06345 -0.4674,-0.22537 -0.72653,-0.2883c-0.26093,-0.06336 -0.57507,0.02171 -0.81195,-0.08529c-0.5818,-0.26278 -1.04695,-0.66052 -1.57042,-0.99077c0.05855,-0.07538 0.11347,-0.15313 0.16638,-0.2322c-0.34098,-0.18818 -0.56393,-0.50005 -0.56393,-0.85295c0,-0.57475 0.59137,-1.04067 1.32086,-1.04067c0.43225,0 0.81601,0.16359 1.05697,0.41647z" data-paper-data="{&quot;index&quot;:null}" fill="#ffe366" stroke="#003c3c" stroke-width="0.5"/><path d="M216.61719,182.74017c4.50264,0 8.15276,4.11766 8.15276,9.19704c0,5.07939 -3.65012,9.19704 -8.15276,9.19704c-4.50264,0 -8.15276,-4.11766 -8.15276,-9.19704c0,-5.07939 3.65012,-9.19704 8.15276,-9.19704z" data-paper-data="{&quot;index&quot;:null}" fill="#fe9f66" stroke="#003c3c" stroke-width="0.5"/><path d="M216.67895,191.94115c4.80964,0 8.70863,2.37473 8.70863,5.30411c0,2.92938 -3.89899,5.30411 -8.70863,5.30411c-4.80964,0 -8.70863,-2.37473 -8.70863,-5.30411c0,-2.92938 3.89899,-5.30411 8.70863,-5.30411z" data-paper-data="{&quot;index&quot;:null}" fill="#fe9f66" stroke="#003c3c" stroke-width="0.5"/><path d="M211.12725,199.29744c0.14947,-0.00624 0.29967,-0.00933 0.43993,-0.02363c0.7427,-0.07569 1.58205,-0.00355 2.33242,-0.00355c2.81887,0 5.57281,-0.38929 8.39981,-0.38929h0.19895c0.22099,-0.07338 0.44387,-0.14617 0.66928,-0.21754c0,0 1.22639,-0.38649 1.71694,0.57974c0.49056,0.96624 -0.73583,1.35273 -0.73583,1.35273c-0.03206,0.01005 -0.06412,0.02018 -0.09617,0.03039c-0.34782,0.2994 -0.87928,0.33203 -0.99098,0.33558c-1.63629,0.57925 -3.27908,1.24572 -5.04778,1.45249c-1.01501,0.11866 -2.09717,0.10512 -3.12603,0.10512c-0.87852,0 -1.77694,0.0612 -2.63195,-0.14833c-0.25892,-0.06345 -0.4674,-0.22537 -0.72653,-0.28829c-0.26093,-0.06336 -0.57507,0.02171 -0.81195,-0.08529c-0.5818,-0.26278 -1.04694,-0.66052 -1.57042,-0.99077c0.05855,-0.07538 0.11347,-0.15313 0.16638,-0.2322c-0.34098,-0.18818 -0.56393,-0.50006 -0.56393,-0.85296c0,-0.57475 0.59137,-1.04067 1.32086,-1.04067c0.43225,0 0.81601,0.16358 1.05697,0.41646z" data-paper-data="{&quot;index&quot;:null}" fill="#ffe366" stroke="#003c3c" stroke-width="0.5"/><path d="M262.1867,164.55264c-0.47821,-0.85842 -1.33969,-2.17033 -1.15094,-3.06164c0.22595,-1.06691 1.63589,-1.68309 2.66342,-2.25551c1.03374,-0.57588 2.65039,-1.42028 3.68087,-1.04343c0.84953,0.31068 1.16154,1.7037 1.63629,2.55592c1.05063,1.88595 0.37347,4.26653 -1.51249,5.31716c-1.88595,1.05063 -4.26653,0.37347 -5.31716,-1.51249z" data-paper-data="{&quot;index&quot;:null}" fill="#fe9f66" stroke="#000000" stroke-width="0.5"/></g></g></svg>