<svg version="1.1" xmlns="http://www.w3.org/2000/svg" xmlns:xlink="http://www.w3.org/1999/xlink" width="52.61263" height="88.24007" viewBox="0,0,52.61263,88.24007"><g transform="translate(-213.69368,-126.80405)"><g data-paper-data="{&quot;isPaintingLayer&quot;:true}" fill-rule="nonzero" stroke="none" stroke-linecap="butt" stroke-linejoin="miter" stroke-miterlimit="10" stroke-dasharray="" stroke-dashoffset="0" style="mix-blend-mode: normal"><path d="M261.72169,185.92554c-1.81191,1.84456 -6.90638,-0.22158 -11.37881,-4.61485c-4.47243,-4.39327 -6.6292,-9.45003 -4.81729,-11.2946c1.81191,-1.84456 6.90638,0.22158 11.37881,4.61485c4.47243,4.39327 6.6292,9.45003 4.81729,11.2946z" fill="#ce4948" stroke-width="0"/><path d="M253.04645,180.72853c0,9.98829 -5.25451,18.0854 -11.73627,18.0854c-6.48176,0 -11.73627,-8.09711 -11.73627,-18.0854c0,-9.98829 5.25451,-18.0854 11.73627,-18.0854c6.48176,0 11.73627,8.09711 11.73627,18.0854z" fill="#ce4948" stroke-width="0"/><path d="M255.75024,127.95501c2.58961,1.44671 2.64303,6.28159 0.11933,10.79902c-2.5237,4.51743 -6.66886,7.00674 -9.25847,5.56003c-2.58961,-1.44671 -2.64303,-6.2816 -0.11933,-10.79902c2.5237,-4.51743 6.66886,-7.00673 9.25847,-5.56003z" data-paper-data="{&quot;index&quot;:null}" fill="#f5f5f5" stroke-width="0"/><path d="M249.78235,142.97914l0.49025,-0.15446c0.58782,-0.09626 1.18616,-0.15237 1.78163,-0.13772c0.18031,0.00444 0.37206,0.10574 0.53969,0.03915c0.22116,-0.08785 0.33109,-0.35255 0.53931,-0.46777c0.2366,-0.13093 0.53058,-0.13007 0.76959,-0.25653c1.10385,-0.58402 2.00259,-2.02079 2.35895,-3.17661c0.16689,-0.54128 0.09525,-1.13734 0.2601,-1.67925c0.07879,-0.259 0.30564,-0.45956 0.37178,-0.72207c0.05754,-0.22835 -0.0476,-0.47359 -0.01187,-0.70635c0.2075,-1.35152 0.63923,-2.61844 0.63461,-4.00815c0,-0.61707 0.18641,-1.25411 0.0298,-1.85097c-0.33909,-1.2923 -2.40639,-2.04798 -3.55874,-1.48356c-0.72957,0.35734 -1.50572,1.03639 -2.19784,1.481c-2.2279,1.43118 -3.73222,2.93356 -5.02846,5.26921c0,0 -0.33731,0.60715 -0.94446,0.26984c-0.60715,-0.33731 -0.26985,-0.94446 -0.26985,-0.94446c1.40763,-2.53121 3.0748,-4.20834 5.4893,-5.76161c0.73339,-0.4718 1.64041,-1.25255 2.41971,-1.59736c1.93835,-0.85765 4.79599,0.28391 5.41983,2.36439c0.0381,0.12708 0.0298,2.02354 0.0298,2.25352c-0.00417,1.4581 -0.42956,2.7836 -0.64804,4.20082c-0.0423,0.2744 0.05504,0.56338 -0.01187,0.83283c-0.073,0.29401 -0.30774,0.52788 -0.39781,0.81711c-0.166,0.53304 -0.08902,1.12197 -0.25296,1.65565c-0.47083,1.53272 -1.59892,3.20722 -3.02819,4.00625c-0.23603,0.13195 -0.53152,0.1283 -0.76959,0.25653c-0.27284,0.14695 -0.4502,0.45785 -0.74334,0.55835c-0.71518,0.24519 -1.78066,0.02668 -2.55276,0.15797l-0.27934,0.10207c0,0 -0.65891,0.21964 -0.87855,-0.43928c-0.21964,-0.65891 0.43928,-0.87855 0.43928,-0.87855z" data-paper-data="{&quot;index&quot;:null}" fill="#ce4948" stroke-width="0.5"/><path d="M234.36677,136.10215c2.5237,4.51743 2.47027,9.35231 -0.11933,10.79902c-2.58961,1.44671 -6.73476,-1.0426 -9.25846,-5.56003c-2.5237,-4.51743 -2.47027,-9.35231 0.11933,-10.79902c2.58961,-1.44671 6.73476,1.0426 9.25846,5.56003z" fill="#f5f5f5" stroke-width="0"/><path d="M254.00629,152.19307c0,10.28029 -5.78392,18.61411 -12.91875,18.61411c-7.13483,0 -12.91875,-8.33382 -12.91875,-18.61411c0,-10.28029 5.78392,-18.61411 12.91875,-18.61411c7.13483,0 12.91875,8.33382 12.91875,18.61411z" fill="#cf4848" stroke-width="NaN"/><path d="M253.04645,161.55287c0,6.41093 -5.36936,11.60801 -11.9928,11.60801c-6.62344,0 -11.9928,-5.19708 -11.9928,-11.60801c0,-6.41093 5.36936,-11.60801 11.9928,-11.60801c6.62344,0 11.9928,5.19708 11.9928,11.60801z" fill="#ffffff" stroke-width="0"/><path d="M234.8784,158.78931c0.09516,-0.10866 0.23992,-0.1982 0.45892,-0.2347c0.75362,-0.1256 0.87922,0.62801 0.87922,0.62801c0.12503,0.75139 0.31482,1.49092 0.4444,2.24154c0.08085,0.46833 0.29578,0.95268 0.18198,1.41411c-0.1059,0.42936 -0.52871,0.70904 -0.79307,1.06355l-0.35432,0.47407c-0.05663,0.07754 -0.1275,0.14401 -0.20878,0.19556c-0.18857,0.12978 -0.49415,0.23695 -0.85379,-0.02468c-0.00793,-0.0057 -0.01576,-0.01154 -0.02346,-0.01753c-0.2113,-0.16224 -0.29067,-0.34295 -0.3051,-0.50862l-0.20761,-0.62283l0.02027,-0.00676l-0.03695,-0.05068c-0.08414,-0.49661 -0.41697,-2.42802 -0.4029,-2.57505c0.0504,-0.52679 0.37552,-0.98953 0.56328,-1.48429c0,0 0.18728,-0.4682 0.63791,-0.4917z" data-paper-data="{&quot;index&quot;:null}" fill="#ce4948" stroke-width="0.5"/><path d="M247.70554,159.00267c0.18776,0.49476 0.51288,0.9575 0.56328,1.48429c0.01407,0.14703 -0.31876,2.07844 -0.4029,2.57505l-0.03695,0.05068l0.02027,0.00676l-0.20761,0.62283c-0.01444,0.16567 -0.09381,0.34638 -0.3051,0.50862c-0.0077,0.00599 -0.01552,0.01184 -0.02346,0.01753c-0.35964,0.26163 -0.66522,0.15446 -0.85379,0.02468c-0.08128,-0.05155 -0.15216,-0.11802 -0.20878,-0.19556l-0.35432,-0.47407c-0.26436,-0.35452 -0.68717,-0.63419 -0.79306,-1.06355c-0.11381,-0.46143 0.10113,-0.94578 0.18198,-1.41411c0.12958,-0.75062 0.31937,-1.49015 0.4444,-2.24154c0,0 0.1256,-0.75362 0.87922,-0.62801c0.219,0.0365 0.36375,0.12604 0.45892,0.2347c0.45063,0.02351 0.63791,0.4917 0.63791,0.4917z" fill="#ce4948" stroke-width="0.5"/><path d="M247.21631,166.59217c0.73234,0.54024 0,1.08048 0,1.08048l-0.17387,0.12827c-0.69052,0.50536 -1.36306,1.06767 -2.31524,1.32968c-3.16416,0.87066 -6.20333,-0.02908 -9.17707,-0.76031c0,0 -0.98253,-0.2416 -0.65502,-0.96641c0.32751,-0.72481 1.31005,-0.4832 1.31005,-0.4832c2.46791,0.60685 5.11108,1.48872 7.74654,0.79304c0.56241,-0.14846 1.20322,-0.67831 1.62608,-0.99327l0.17387,-0.12827c0,0 0.73234,-0.54024 1.46468,0z" fill="#ce4948" stroke-width="0.5"/><path d="M237.39809,148.8437c-0.69456,0 -0.69456,-0.69456 -0.69456,-0.69456l0.00237,-0.7123c-0.13507,-0.81041 -0.12705,-1.51078 -0.36044,-2.30352c0,0 -0.19081,-0.66783 0.47702,-0.85864c0.66783,-0.19081 0.85864,0.47702 0.85864,0.47702c0.24866,0.89229 0.25875,1.66817 0.40915,2.57056l0.00237,0.82688c0,0 0,0.69456 -0.69456,0.69456z" fill="#b43f3f" stroke-width="0.5"/><path d="M244.23634,148.05337c-0.67382,0.16845 -0.84227,-0.50536 -0.84227,-0.50536l-0.11971,-0.48194c-0.24886,-0.83569 -0.43981,-1.69352 -0.5381,-2.55992c0,0 -0.0767,-0.69031 0.61361,-0.76701c0.69031,-0.0767 0.76701,0.61361 0.76701,0.61361c0.08504,0.78375 0.25981,1.55956 0.48802,2.31416l0.13682,0.54419c0,0 0.16845,0.67382 -0.50536,0.84227z" fill="#b43f3f" stroke-width="0.5"/><path d="M238.5887,130.18341c0.52936,-0.1427 1.04157,-0.38424 1.58807,-0.42809c1.14884,-0.09217 2.10767,0.65623 2.48296,1.63715l0.10946,-0.04378c0.08369,-0.03574 0.17582,-0.05553 0.27258,-0.05553c0.32658,0 0.60051,0.22539 0.67473,0.5291l0.82431,0.11776c0.34199,0.0433 0.60644,0.33528 0.60644,0.68902c0,0.1918 -0.07774,0.36544 -0.20343,0.49113l-0.64133,0.64133c-0.76775,0.69001 -0.96013,1.13115 -2.2019,0.73965c0.17027,0.42597 0.28821,0.88585 0.21432,1.32653c-0.0605,0.36087 -1.33535,2.42413 -2.02577,2.36749c-0.76449,-0.06272 -1.05494,-1.22926 -1.19185,-1.95376c-0.64938,0.23545 -1.33161,0.24259 -1.9682,-0.2208c-0.63875,-0.46497 -0.83208,-0.96132 -0.8124,-1.47856c-0.23484,-0.2514 -0.39421,-0.5618 -0.43777,-0.92315c-0.37661,-0.16544 -0.75618,-0.35572 -0.82813,-0.71938c-0.10148,-0.5129 0.52507,-0.9043 0.7876,-1.35644l0.10248,-0.0387c0.04785,-0.33692 0.33748,-0.59601 0.68762,-0.59601c0.16615,0 0.31868,0.05834 0.43821,0.15566l0.13828,0.11063c0.45887,-0.38067 0.96264,-0.70703 1.38371,-0.99124zM239.25428,131.42075c0.45256,0.18184 0.87877,0.46157 1.15853,0.77536l0.32694,0.00137c0.09317,0.00033 0.18202,0.01901 0.26313,0.05261c0.06934,-0.07747 0.15252,-0.153 0.25089,-0.2258c0.04798,-0.03551 0.09752,-0.0677 0.14842,-0.09694c-0.17404,-0.47037 -0.65785,-0.85814 -1.13911,-0.7856c-0.34501,0.052 -0.67378,0.18017 -1.0088,0.279zM240.53381,136.12497c0.28816,-0.37117 0.61466,-0.54315 0.3484,-1.04498c-0.15869,0.1418 -0.32852,0.28519 -0.50704,0.42259c0.00398,0.02433 0.00843,0.04846 0.01349,0.07235c0.03904,0.18443 0.09806,0.36655 0.14514,0.55003z" fill="#b43f3f" stroke-width="0.5"/><path d="M231.51547,146.4448c-0.21964,0.65891 -0.87855,0.43928 -0.87855,0.43928l-0.27934,-0.10207c-0.7721,-0.13128 -1.83758,0.08722 -2.55276,-0.15797c-0.29315,-0.1005 -0.47051,-0.4114 -0.74334,-0.55835c-0.23807,-0.12823 -0.53356,-0.12458 -0.76959,-0.25653c-1.42927,-0.79903 -2.55736,-2.47353 -3.02819,-4.00625c-0.16394,-0.53367 -0.08696,-1.12261 -0.25296,-1.65565c-0.09007,-0.28923 -0.32481,-0.5231 -0.39781,-0.81711c-0.06691,-0.26946 0.03043,-0.55843 -0.01187,-0.83283c-0.21848,-1.41723 -0.64387,-2.74273 -0.64804,-4.20082c0,-0.22998 -0.0083,-2.12644 0.0298,-2.25352c0.62384,-2.08049 3.48149,-3.22204 5.41983,-2.36439c0.7793,0.34481 1.68632,1.12557 2.41971,1.59736c2.41449,1.55327 4.08167,3.2304 5.48929,5.76161c0,0 0.33731,0.60715 -0.26985,0.94446c-0.60715,0.33731 -0.94446,-0.26985 -0.94446,-0.26985c-1.29624,-2.33565 -2.80056,-3.83803 -5.02846,-5.26921c-0.69212,-0.44461 -1.46827,-1.12366 -2.19784,-1.481c-1.15235,-0.56442 -3.21965,0.19126 -3.55873,1.48356c-0.15661,0.59687 0.0298,1.2339 0.0298,1.85097c-0.00462,1.38971 0.42712,2.65664 0.63461,4.00815c0.03574,0.23276 -0.0694,0.478 -0.01187,0.70635c0.06615,0.26252 0.29299,0.46307 0.37178,0.72207c0.16485,0.54191 0.09321,1.13797 0.2601,1.67925c0.35636,1.15581 1.2551,2.59259 2.35895,3.17661c0.23902,0.12646 0.53299,0.12561 0.76959,0.25653c0.20822,0.11522 0.31815,0.37992 0.53931,0.46777c0.16763,0.06659 0.35937,-0.03472 0.53969,-0.03915c0.59547,-0.01465 1.19381,0.04145 1.78163,0.13772l0.49025,0.15446c0,0 0.65891,0.21964 0.43928,0.87855z" fill="#ce4948" stroke-width="0.5"/><path d="M262.30704,184.39497c1.51698,1.94091 1.75619,4.30865 0.5343,5.28849c-1.22189,0.97985 -3.44219,0.20075 -4.95917,-1.74016c-1.51698,-1.94091 -1.75619,-4.30865 -0.5343,-5.28849c1.22189,-0.97985 3.44219,-0.20075 4.95917,1.74016z" fill="#a33939" stroke-width="0"/><path d="M264.99167,182.21398c1.51698,1.94091 1.75619,4.30865 0.5343,5.28849c-1.22189,0.97985 -3.44219,0.20075 -4.95917,-1.74016c-1.51698,-1.94091 -1.75619,-4.30865 -0.5343,-5.28849c1.22189,-0.97985 3.44219,-0.20075 4.95917,1.74016z" fill="#a33939" stroke-width="0"/><path d="M223.09559,176.78965c4.47243,-4.39327 9.5669,-6.45941 11.37881,-4.61485c1.81191,1.84456 -0.34486,6.90133 -4.81729,11.2946c-4.47243,4.39327 -9.5669,6.45941 -11.37881,4.61485c-1.81191,-1.84456 0.34486,-6.90133 4.81729,-11.2946z" data-paper-data="{&quot;index&quot;:null}" fill="#ce4948" stroke-width="0"/><path d="M222.65212,184.81352c1.22189,0.97985 0.98268,3.34759 -0.5343,5.28849c-1.51698,1.94091 -3.73727,2.72 -4.95917,1.74016c-1.22189,-0.97985 -0.98268,-3.34759 0.5343,-5.28849c1.51698,-1.94091 3.73727,-2.72 4.95917,-1.74016z" data-paper-data="{&quot;index&quot;:null}" fill="#a33939" stroke-width="0"/><path d="M219.96749,182.63252c1.22189,0.97985 0.98268,3.34759 -0.5343,5.28849c-1.51698,1.94091 -3.73727,2.72 -4.95917,1.74016c-1.22189,-0.97985 -0.98268,-3.34758 0.5343,-5.28849c1.51698,-1.94091 3.73727,-2.72 4.95917,-1.74016z" data-paper-data="{&quot;index&quot;:null}" fill="#a33939" stroke-width="0"/><path d="M239.72981,202.36647c-3.2617,6.32451 -8.41415,10.33488 -11.50832,8.95741c-3.09417,-1.37747 -2.95836,-7.62116 0.30334,-13.94567c3.2617,-6.32451 8.41415,-10.33488 11.50832,-8.95741c3.09417,1.37747 2.95836,7.62116 -0.30334,13.94567z" fill="#ce4849" stroke-width="0"/><path d="M255.80295,197.35935c3.72081,5.77526 4.30422,11.57238 1.30308,12.94823c-3.00114,1.37585 -8.45035,-2.19058 -12.17116,-7.96584c-3.72081,-5.77526 -4.30422,-11.57238 -1.30308,-12.94823c3.00114,-1.37585 8.45035,2.19058 12.17116,7.96584z" fill="#ce4849" stroke-width="0"/><path d="M235.67679,203.56818c1.88171,1.50896 1.51332,5.15526 -0.82281,8.14424c-2.33614,2.98898 -5.75537,4.18879 -7.63708,2.67983c-1.88171,-1.50896 -1.51332,-5.15526 0.82281,-8.14424c2.33614,-2.98898 5.75537,-4.18879 7.63708,-2.67983z" data-paper-data="{&quot;index&quot;:null}" fill="#a33939" stroke-width="0"/><path d="M231.54248,200.20946c1.88171,1.50896 1.51332,5.15526 -0.82281,8.14424c-2.33614,2.98898 -5.75537,4.18878 -7.63708,2.67983c-1.88171,-1.50896 -1.51332,-5.15526 0.82281,-8.14424c2.33614,-2.98898 5.75537,-4.18879 7.63708,-2.67983z" data-paper-data="{&quot;index&quot;:null}" fill="#a33939" stroke-width="0"/><path d="M253.58656,199.57984c1.78346,-1.6239 5.32798,-0.69245 7.91691,2.08045c2.58893,2.7729 3.2419,6.33722 1.45845,7.96112c-1.78346,1.6239 -5.32798,0.69245 -7.91691,-2.08045c-2.58893,-2.7729 -3.2419,-6.33722 -1.45845,-7.96112z" data-paper-data="{&quot;index&quot;:null}" fill="#a33939" stroke-width="0"/><path d="M249.62527,203.14098c1.78346,-1.6239 5.32798,-0.69245 7.91691,2.08045c2.58893,2.7729 3.2419,6.33722 1.45844,7.96112c-1.78346,1.6239 -5.32798,0.69246 -7.91691,-2.08045c-2.58893,-2.7729 -3.2419,-6.33722 -1.45845,-7.96112z" data-paper-data="{&quot;index&quot;:null}" fill="#a33939" stroke-width="0"/></g></g></svg>