<svg version="1.1" xmlns="http://www.w3.org/2000/svg" xmlns:xlink="http://www.w3.org/1999/xlink" width="1250.06258" height="945.16927" viewBox="0,0,1250.06258,945.16927"><g transform="translate(651.14865,489.96396)"><g data-paper-data="{&quot;isPaintingLayer&quot;:true}" fill-rule="nonzero" stroke="none" stroke-linecap="butt" stroke-linejoin="miter" stroke-miterlimit="10" stroke-dasharray="" stroke-dashoffset="0" style="mix-blend-mode: normal"><path d="M-651.14865,455.2053v-945.16927h1250.06258v945.16927z" fill="#44f01d" stroke-width="0"/><path d="M-178.15063,-90.05594c0.11314,0.57162 0.04871,1.25398 -0.34781,2.04698c-0.61093,1.22189 -1.48465,1.65539 -2.28208,1.75268c-0.2865,1.45963 -1.57287,2.56077 -3.11644,2.56077c-0.87703,0 -1.67102,-0.35548 -2.24574,-0.93023l-1.22338,-1.22338l-0.16904,0.08451c-0.44133,0.23235 -0.94405,0.36386 -1.47749,0.36386c-1.43991,0 -2.656,-0.95823 -3.0454,-2.27179c-0.07465,-0.02033 -0.14927,-0.04134 -0.22387,-0.06299c-5.466,-0.74089 -11.11961,-2.24869 -14.80293,-5.09693c-3.14081,-2.4287 -6.41811,-6.23413 -9.52817,-9.83037l-3.59977,-1.79989c-1.07427,-0.50925 -1.81716,-1.60359 -1.81716,-2.87143c0,-1.75405 1.42192,-3.17597 3.17597,-3.17597c0.29056,0 0.57201,0.03903 0.83937,0.1121l3.34135,0.83533l-0.03826,0.15301l0.36986,-0.05056c3.6122,1.78556 8.08122,2.70745 11.48066,4.44158c0.18667,0.09523 0.36897,0.19325 0.54718,0.29389c-2.07427,-3.0969 -4.13722,-6.21855 -6.3354,-9.28949c0,0 -1.846,-2.5844 0.7384,-4.43038c2.5844,-1.846 4.43038,0.7384 4.43038,0.7384c3.43953,4.82491 6.53193,9.80158 9.89102,14.5879c-0.45808,-3.0065 -0.22239,-6.22955 0.34377,-9.33146h-0.64815v-5.11565c0,-1.75405 1.42192,-3.17597 3.17597,-3.17597c1.56116,0 2.85921,1.1264 3.12584,2.6108l0.84107,4.20537l-0.12689,0.02538l0.1731,0.28454c0.0091,4.25977 0.42919,8.31429 1.08275,12.3118c2.82161,-6.329 5.56476,-12.18511 10.81688,-16.53106l0.32464,-0.54566l-0.57833,-0.57833l2.55783,-2.55783v0c0.57475,-0.57475 1.36874,-0.93023 2.24574,-0.93023c1.75405,0 3.17597,1.42192 3.17597,3.17597c0,0.61235 -0.17331,1.18423 -0.47352,1.66927l-2.5062,4.21256c-1.25497,2.92967 -2.26269,5.81569 -3.45665,8.58552c4.48689,-3.38472 9.16413,-6.5701 13.71834,-9.60465l0.34173,-0.0313l-0.04269,-0.10671l4.19617,-1.67846c0.38267,-0.16345 0.80398,-0.2539 1.2464,-0.2539c1.75405,0 3.17597,1.42192 3.17597,3.17597c0,0.78098 -0.2819,1.49611 -0.74948,2.04921l-4.05307,4.86368l-0.03796,-0.03163c-0.07945,0.11055 -0.16063,0.22006 -0.24364,0.3284c-0.66863,0.87281 -7.2401,4.97286 -8.83052,6.29963c-3.62218,3.02175 -8.27399,7.05249 -13.35633,9.73712z" fill="#36be17" stroke-width="0.5"/><path d="M218.96963,-239.03791c0.11314,0.57165 0.04871,1.25398 -0.34781,2.047c-0.61093,1.22189 -1.48468,1.65539 -2.28208,1.75268c-0.28647,1.45963 -1.57287,2.56077 -3.11642,2.56077c-0.87703,0 -1.67102,-0.35548 -2.24574,-0.93023l-1.22338,-1.22338l-0.16904,0.08451c-0.44136,0.23235 -0.94408,0.36386 -1.47749,0.36386c-1.43991,0 -2.65603,-0.95823 -3.04543,-2.27179c-0.07465,-0.02033 -0.14925,-0.04134 -0.22387,-0.06299c-5.46597,-0.74089 -11.11961,-2.24869 -14.80293,-5.09693c-3.14081,-2.4287 -6.41811,-6.2341 -9.52814,-9.83037l-3.59977,-1.79989c-1.07424,-0.50925 -1.81719,-1.60359 -1.81719,-2.87143c0,-1.75405 1.42195,-3.17597 3.17597,-3.17597c0.29056,0 0.57201,0.039 0.8394,0.1121l3.34133,0.83533l-0.03824,0.15303l0.36986,-0.05056c3.6122,1.78556 8.08122,2.70745 11.48063,4.44156c0.18665,0.09523 0.36897,0.19325 0.54718,0.29389c-2.07427,-3.09693 -4.13722,-6.21855 -6.3354,-9.28949c0,0 -1.84598,-2.5844 0.7384,-4.4304c2.5844,-1.846 4.43038,0.7384 4.43038,0.7384c3.4395,4.82491 6.53196,9.80158 9.89102,14.5879c-0.45808,-3.0065 -0.22239,-6.22955 0.34377,-9.33146h-0.64818v-5.11565c0,-1.75405 1.42195,-3.17597 3.17597,-3.17597c1.56116,0 2.85921,1.1264 3.12584,2.6108l0.84107,4.20534l-0.12689,0.02538l0.1731,0.28454c0.0091,4.25979 0.42919,8.31426 1.08275,12.3118c2.82161,-6.329 5.56476,-12.18511 10.81688,-16.53106l0.32461,-0.54566l-0.57833,-0.57831l2.55783,-2.55783v0c0.57475,-0.57472 1.36874,-0.93023 2.24577,-0.93023c1.75405,0 3.17597,1.42192 3.17597,3.17597c0,0.61235 -0.17328,1.18423 -0.47352,1.66927l-2.5062,4.21256c-1.25497,2.92967 -2.26269,5.81569 -3.45663,8.58552c4.48689,-3.38472 9.16413,-6.5701 13.71834,-9.60465l0.34173,-0.0313l-0.04269,-0.10671l4.19617,-1.67846c0.38267,-0.16342 0.80398,-0.25393 1.2464,-0.25393c1.75405,0 3.17597,1.42192 3.17597,3.17597c0,0.78098 -0.2819,1.49611 -0.74948,2.04921l-4.05307,4.86368l-0.03798,-0.03163c-0.07945,0.11057 -0.16063,0.22006 -0.24364,0.32842c-0.66863,0.87281 -7.24012,4.97286 -8.83055,6.29963c-3.62218,3.02175 -8.27399,7.05246 -13.35633,9.73712z" fill="#36be17" stroke-width="0.5"/><path d="M-62.00079,177.8806c0.11314,0.57165 0.04871,1.25398 -0.34781,2.047c-0.61093,1.22189 -1.48468,1.65539 -2.28208,1.7527c-0.28647,1.45963 -1.57287,2.56077 -3.11642,2.56077c-0.87703,0 -1.67102,-0.35548 -2.24577,-0.9302l-1.22338,-1.22338l-0.16904,0.08451c-0.44133,0.23235 -0.94405,0.36386 -1.47749,0.36386c-1.43991,0 -2.65603,-0.95823 -3.04543,-2.27179c-0.07465,-0.02033 -0.14925,-0.04131 -0.22387,-0.06299c-5.46597,-0.74089 -11.11961,-2.24869 -14.80293,-5.09693c-3.14078,-2.4287 -6.41811,-6.2341 -9.52817,-9.83037l-3.59977,-1.79989c-1.07424,-0.50925 -1.81719,-1.60359 -1.81719,-2.87146c0,-1.75403 1.42192,-3.17597 3.17597,-3.17597c0.29056,0 0.57201,0.039 0.8394,0.1121l3.34135,0.83533l-0.03826,0.15303l0.36986,-0.05056c3.6122,1.78556 8.08122,2.70745 11.48063,4.44156c0.18665,0.09523 0.36897,0.19325 0.54718,0.29389c-2.07427,-3.09693 -4.13722,-6.21855 -6.3354,-9.28949c0,0 -1.84598,-2.58438 0.7384,-4.4304c2.58438,-1.846 4.43038,0.7384 4.43038,0.7384c3.4395,4.82491 6.53196,9.80158 9.89102,14.5879c-0.45808,-3.0065 -0.22239,-6.22955 0.34377,-9.33146h-0.64818v-5.11565c0,-1.75403 1.42192,-3.17597 3.17597,-3.17597c1.56116,0 2.85921,1.12638 3.12584,2.6108l0.84107,4.20537l-0.12689,0.02538l0.1731,0.28452c0.0091,4.25979 0.42919,8.31426 1.08275,12.3118c2.82161,-6.329 5.56476,-12.18511 10.81688,-16.53106l0.32464,-0.54566l-0.57833,-0.57831l2.55783,-2.55783v0c0.57472,-0.57472 1.36872,-0.93023 2.24577,-0.93023c1.75405,0 3.17597,1.42192 3.17597,3.17597c0,0.61235 -0.17331,1.18423 -0.47352,1.66927l-2.5062,4.21256c-1.25497,2.92967 -2.26269,5.81569 -3.45665,8.58554c4.48689,-3.38472 9.16415,-6.5701 13.71837,-9.60467l0.34173,-0.0313l-0.04269,-0.10671l4.19617,-1.67846c0.38269,-0.16342 0.80398,-0.2539 1.2464,-0.2539c1.75405,0 3.17597,1.42192 3.17597,3.17597c0,0.78098 -0.28187,1.49611 -0.74945,2.04921l-4.05307,4.86368l-0.03798,-0.03166c-0.07945,0.11055 -0.16063,0.22006 -0.24364,0.32842c-0.66863,0.87281 -7.2401,4.97286 -8.83055,6.29963c-3.62218,3.02177 -8.27397,7.05249 -13.35631,9.73712z" fill="#36be17" stroke-width="0.5"/><path d="M287.27363,136.13925c0.11314,0.57165 0.04871,1.25398 -0.34781,2.047c-0.61093,1.22189 -1.48468,1.65539 -2.28208,1.7527c-0.28647,1.45963 -1.57287,2.56077 -3.11642,2.56077c-0.87703,0 -1.67102,-0.35548 -2.24577,-0.93023l-1.22338,-1.22338l-0.16904,0.08451c-0.44133,0.23235 -0.94405,0.36389 -1.47749,0.36389c-1.43991,0 -2.65603,-0.95823 -3.04543,-2.27179c-0.07465,-0.02035 -0.14925,-0.04131 -0.22387,-0.06299c-5.466,-0.74089 -11.11961,-2.24869 -14.80293,-5.09693c-3.14078,-2.4287 -6.41811,-6.2341 -9.52814,-9.83037l-3.59977,-1.79989c-1.07424,-0.50925 -1.81719,-1.60359 -1.81719,-2.87146c0,-1.75403 1.42195,-3.17597 3.17597,-3.17597c0.29056,0 0.57201,0.03903 0.8394,0.1121l3.34135,0.83533l-0.03826,0.15303l0.36986,-0.05056c3.6122,1.78556 8.08122,2.70745 11.48063,4.44156c0.18665,0.09523 0.36897,0.19325 0.54718,0.29389c-2.07429,-3.09693 -4.13725,-6.21855 -6.3354,-9.28949c0,0 -1.84598,-2.5844 0.7384,-4.4304c2.5844,-1.846 4.43038,0.7384 4.43038,0.7384c3.4395,4.82491 6.53196,9.80158 9.89102,14.5879c-0.45805,-3.0065 -0.22239,-6.22955 0.34377,-9.33146h-0.64815v-5.11565c0,-1.75405 1.42192,-3.17597 3.17597,-3.17597c1.56116,0 2.85921,1.12638 3.12582,2.6108l0.84107,4.20537l-0.12689,0.02538l0.1731,0.28454c0.0091,4.25979 0.42916,8.31426 1.08275,12.3118c2.82161,-6.329 5.56476,-12.18511 10.81688,-16.53106l0.32464,-0.54566l-0.57831,-0.57831l2.55783,-2.55783v0c0.57472,-0.57472 1.36872,-0.93023 2.24574,-0.93023c1.75405,0 3.17597,1.42192 3.17597,3.17597c0,0.61235 -0.17328,1.18423 -0.47352,1.66927l-2.5062,4.21256c-1.25497,2.92967 -2.26269,5.81569 -3.45665,8.58552c4.48689,-3.38472 9.16415,-6.5701 13.71834,-9.60465l0.34173,-0.0313l-0.04269,-0.10671l4.19617,-1.67846c0.38269,-0.16342 0.80398,-0.25393 1.2464,-0.25393c1.75403,0 3.17597,1.42192 3.17597,3.17597c0,0.78098 -0.2819,1.49611 -0.74948,2.04921l-4.05307,4.86368l-0.03798,-0.03163c-0.07945,0.11057 -0.16063,0.22006 -0.24364,0.32842c-0.66863,0.87281 -7.2401,4.97286 -8.83052,6.29965c-3.62218,3.02175 -8.27399,7.05246 -13.35633,9.7371z" fill="#36be17" stroke-width="0.5"/><path d="M-533.6945,347.9807c0.11314,0.57165 0.04871,1.25398 -0.34781,2.047c-0.61093,1.22189 -1.48465,1.65539 -2.28208,1.75268c-0.2865,1.45963 -1.57287,2.56077 -3.11644,2.56077c-0.87703,0 -1.67102,-0.35548 -2.24574,-0.93023l-1.22338,-1.22338l-0.16904,0.08451c-0.44133,0.23235 -0.94405,0.36386 -1.47749,0.36386c-1.43991,0 -2.65603,-0.95823 -3.04543,-2.27179c-0.07465,-0.02033 -0.14927,-0.04131 -0.22387,-0.06299c-5.46597,-0.74089 -11.11961,-2.24869 -14.80293,-5.0969c-3.14078,-2.4287 -6.41811,-6.23413 -9.52817,-9.83037l-3.59977,-1.79989c-1.07424,-0.50925 -1.81716,-1.60359 -1.81716,-2.87143c0,-1.75403 1.42195,-3.17597 3.17597,-3.17597c0.29056,0 0.57201,0.039 0.8394,0.1121l3.34133,0.83533l-0.03826,0.15303l0.36986,-0.05056c3.6122,1.78556 8.08122,2.70745 11.48063,4.44156c0.18665,0.0952 0.36897,0.19325 0.54718,0.29389c-2.07427,-3.09693 -4.13722,-6.21855 -6.3354,-9.28949c0,0 -1.846,-2.58438 0.7384,-4.4304c2.5844,-1.846 4.43038,0.7384 4.43038,0.7384c3.4395,4.82491 6.53196,9.80158 9.89102,14.5879c-0.45805,-3.0065 -0.22239,-6.22955 0.34377,-9.33146h-0.64818v-5.11565c0,-1.75405 1.42195,-3.17597 3.17597,-3.17597c1.56116,0 2.85921,1.12638 3.12582,2.6108l0.84107,4.20537l-0.12689,0.02538l0.1731,0.28454c0.0091,4.25979 0.42919,8.31426 1.08275,12.3118c2.82161,-6.329 5.56476,-12.18514 10.81688,-16.53106l0.32464,-0.54566l-0.57833,-0.57833l2.55783,-2.55783v0c0.57472,-0.57472 1.36872,-0.93023 2.24574,-0.93023c1.75405,0 3.17597,1.42195 3.17597,3.17597c0,0.61235 -0.17328,1.18423 -0.47352,1.66927l-2.5062,4.21256c-1.25497,2.92967 -2.26269,5.81569 -3.45663,8.58554c4.48689,-3.38472 9.16413,-6.5701 13.71834,-9.60467l0.34173,-0.0313l-0.04269,-0.10671l4.19617,-1.67846c0.38267,-0.16342 0.80398,-0.25393 1.2464,-0.25393c1.75405,0 3.17597,1.42192 3.17597,3.17597c0,0.78098 -0.28187,1.49611 -0.74945,2.04921l-4.05307,4.86368l-0.03796,-0.03166c-0.07945,0.11057 -0.16063,0.22006 -0.24364,0.32842c-0.66863,0.87281 -7.2401,4.97286 -8.83052,6.29965c-3.62218,3.02175 -8.27399,7.05246 -13.35633,9.73712z" fill="#36be17" stroke-width="0.5"/><path d="M-440.14769,4.31578c0.11314,0.57165 0.04871,1.25398 -0.34781,2.047c-0.61093,1.22189 -1.48468,1.65539 -2.28208,1.75268c-0.28647,1.45963 -1.57287,2.56077 -3.11642,2.56077c-0.87703,0 -1.67102,-0.35548 -2.24577,-0.93023l-1.22338,-1.22338l-0.16904,0.08451c-0.44133,0.23235 -0.94405,0.36386 -1.47749,0.36386c-1.43991,0 -2.65603,-0.95823 -3.04543,-2.27179c-0.07465,-0.02035 -0.14925,-0.04131 -0.22387,-0.06299c-5.466,-0.74087 -11.11961,-2.24869 -14.80293,-5.09693c-3.14078,-2.4287 -6.41811,-6.2341 -9.52817,-9.83037l-3.59977,-1.79989c-1.07424,-0.50925 -1.81719,-1.60359 -1.81719,-2.87143c0,-1.75405 1.42195,-3.17597 3.17597,-3.17597c0.29056,0 0.57201,0.039 0.83937,0.1121l3.34135,0.83533l-0.03826,0.15303l0.36986,-0.05056c3.6122,1.78556 8.08122,2.70745 11.48063,4.44158c0.18665,0.0952 0.36897,0.19325 0.54718,0.29389c-2.07427,-3.09693 -4.13722,-6.21855 -6.3354,-9.28949c0,0 -1.84598,-2.5844 0.7384,-4.4304c2.58438,-1.846 4.43038,0.7384 4.43038,0.7384c3.4395,4.82491 6.53196,9.80158 9.89102,14.5879c-0.45808,-3.0065 -0.22239,-6.22955 0.34377,-9.33146h-0.64815v-5.11565c0,-1.75405 1.42192,-3.17597 3.17597,-3.17597c1.56116,0 2.85921,1.1264 3.12582,2.6108l0.84107,4.20537l-0.12689,0.02538l0.1731,0.28454c0.0091,4.25977 0.42916,8.31426 1.08275,12.3118c2.82161,-6.329 5.56476,-12.18514 10.81688,-16.53106l0.32464,-0.54566l-0.57831,-0.57831l2.55783,-2.55783v0c0.57472,-0.57472 1.36872,-0.93023 2.24574,-0.93023c1.75405,0 3.17597,1.42192 3.17597,3.17597c0,0.61235 -0.17331,1.18423 -0.47352,1.66927l-2.5062,4.21256c-1.25497,2.92969 -2.26269,5.81569 -3.45665,8.58554c4.48689,-3.38472 9.16415,-6.5701 13.71834,-9.60467l0.34173,-0.0313l-0.04269,-0.10671l4.19617,-1.67846c0.38269,-0.16342 0.80398,-0.25393 1.2464,-0.25393c1.75403,0 3.17597,1.42192 3.17597,3.17597c0,0.78096 -0.2819,1.49611 -0.74948,2.04921l-4.05307,4.86368l-0.03798,-0.03163c-0.07945,0.11057 -0.16063,0.22006 -0.24364,0.32842c-0.66863,0.87281 -7.2401,4.97286 -8.83055,6.29965c-3.62218,3.02175 -8.27397,7.05246 -13.35631,9.73712z" fill="#36be17" stroke-width="0.5"/><path d="M397.48398,-123.21804c0.11314,0.57165 0.04871,1.25398 -0.34781,2.047c-0.61093,1.22189 -1.48468,1.65539 -2.28208,1.7527c-0.28647,1.45963 -1.57287,2.56077 -3.11642,2.56077c-0.87703,0 -1.67102,-0.35548 -2.24574,-0.93023l-1.22338,-1.22338l-0.16904,0.08451c-0.44133,0.23235 -0.94405,0.36386 -1.47749,0.36386c-1.43991,0 -2.656,-0.95823 -3.04543,-2.27179c-0.07465,-0.02033 -0.14925,-0.04134 -0.22387,-0.06299c-5.466,-0.74089 -11.11961,-2.24869 -14.80293,-5.09693c-3.14078,-2.4287 -6.41811,-6.23413 -9.52817,-9.83037l-3.59977,-1.79989c-1.07424,-0.50925 -1.81716,-1.60359 -1.81716,-2.87143c0,-1.75405 1.42192,-3.17597 3.17597,-3.17597c0.29056,0 0.57201,0.039 0.83937,0.1121l3.34135,0.83533l-0.03826,0.15303l0.36986,-0.05056c3.6122,1.78556 8.08122,2.70745 11.48063,4.44158c0.18665,0.09523 0.36897,0.19325 0.54718,0.29389c-2.07427,-3.09693 -4.13722,-6.21855 -6.3354,-9.28949c0,0 -1.846,-2.5844 0.7384,-4.4304c2.58438,-1.846 4.43038,0.7384 4.43038,0.7384c3.4395,4.82491 6.53196,9.80158 9.89102,14.5879c-0.45808,-3.0065 -0.22239,-6.22955 0.34377,-9.33146h-0.64818v-5.11565c0,-1.75405 1.42195,-3.17597 3.17597,-3.17597c1.56116,0 2.85921,1.12638 3.12584,2.6108l0.84107,4.20537l-0.12689,0.02538l0.1731,0.28454c0.0091,4.25979 0.42919,8.31429 1.08275,12.3118c2.82161,-6.329 5.56476,-12.18514 10.81688,-16.53106l0.32461,-0.54566l-0.57833,-0.57833l2.55783,-2.55783v0c0.57475,-0.57472 1.36874,-0.93023 2.24577,-0.93023c1.75405,0 3.17597,1.42192 3.17597,3.17597c0,0.61235 -0.17328,1.18423 -0.47352,1.66927l-2.5062,4.21256c-1.25497,2.92967 -2.26269,5.81569 -3.45663,8.58554c4.48689,-3.38472 9.16413,-6.57007 13.71834,-9.60465l0.34173,-0.0313l-0.04269,-0.10671l4.19617,-1.67846c0.38269,-0.16342 0.80398,-0.2539 1.2464,-0.2539c1.75405,0 3.17597,1.42192 3.17597,3.17597c0,0.78098 -0.28187,1.49611 -0.74945,2.04921l-4.05307,4.86368l-0.03798,-0.03166c-0.07945,0.11057 -0.16063,0.22006 -0.24364,0.32842c-0.66863,0.87281 -7.2401,4.97286 -8.83055,6.29963c-3.62218,3.02175 -8.27397,7.05246 -13.35631,9.73712z" fill="#36be17" stroke-width="0.5"/><path d="M497.6302,338.24658c0.11314,0.57165 0.04871,1.25398 -0.34781,2.047c-0.61093,1.22189 -1.48468,1.65539 -2.28208,1.75268c-0.28647,1.45963 -1.57287,2.56077 -3.11642,2.56077c-0.87703,0 -1.67102,-0.35548 -2.24574,-0.93023l-1.22338,-1.22338l-0.16904,0.08451c-0.44133,0.23235 -0.94405,0.36386 -1.47749,0.36386c-1.43991,0 -2.65603,-0.95823 -3.04543,-2.27179c-0.07465,-0.02033 -0.14925,-0.04134 -0.22387,-0.06299c-5.46597,-0.74087 -11.11961,-2.24869 -14.80293,-5.09693c-3.14078,-2.4287 -6.41811,-6.2341 -9.52814,-9.83037l-3.59977,-1.79989c-1.07424,-0.50925 -1.81716,-1.60359 -1.81716,-2.87146c0,-1.75403 1.42192,-3.17597 3.17597,-3.17597c0.29056,0 0.57201,0.039 0.83937,0.1121l3.34135,0.83533l-0.03826,0.15303l0.36986,-0.05056c3.6122,1.78556 8.08122,2.70745 11.48063,4.44156c0.18665,0.0952 0.36897,0.19325 0.54718,0.29389c-2.07427,-3.09693 -4.13722,-6.21855 -6.3354,-9.28949c0,0 -1.84598,-2.58438 0.7384,-4.4304c2.58438,-1.846 4.43038,0.7384 4.43038,0.7384c3.4395,4.82491 6.53196,9.80158 9.89102,14.5879c-0.45808,-3.0065 -0.22239,-6.22955 0.34377,-9.33146h-0.64815v-5.11565c0,-1.75405 1.42192,-3.17597 3.17597,-3.17597c1.56116,0 2.85921,1.1264 3.12582,2.6108l0.84107,4.20537l-0.12689,0.02538l0.1731,0.28452c0.0091,4.25979 0.42919,8.31429 1.08275,12.3118c2.82161,-6.329 5.56476,-12.18511 10.81688,-16.53106l0.32464,-0.54566l-0.57833,-0.57833l2.55783,-2.55783v0c0.57472,-0.57472 1.36872,-0.93023 2.24574,-0.93023c1.75405,0 3.17597,1.42192 3.17597,3.17597c0,0.61235 -0.17328,1.18423 -0.47352,1.66927l-2.5062,4.21256c-1.25497,2.92967 -2.26269,5.81569 -3.45663,8.58554c4.48689,-3.38472 9.16415,-6.5701 13.71834,-9.60467l0.34173,-0.0313l-0.04269,-0.10671l4.19617,-1.67846c0.38269,-0.16342 0.80398,-0.2539 1.2464,-0.2539c1.75405,0 3.17597,1.42192 3.17597,3.17597c0,0.78096 -0.2819,1.49611 -0.74948,2.04921l-4.05307,4.86368l-0.03798,-0.03166c-0.07945,0.11057 -0.16063,0.22006 -0.24364,0.32842c-0.66863,0.87281 -7.2401,4.97286 -8.83052,6.29965c-3.62218,3.02175 -8.27399,7.05246 -13.35633,9.7371z" fill="#36be17" stroke-width="0.5"/><path d="M150.66557,260.2084c0.11314,0.57165 0.04871,1.25398 -0.34781,2.047c-0.61093,1.22189 -1.48468,1.65539 -2.28208,1.75268c-0.28647,1.45963 -1.57287,2.56077 -3.11642,2.56077c-0.87703,0 -1.67102,-0.35548 -2.24577,-0.9302l-1.22338,-1.22338l-0.16904,0.08451c-0.44133,0.23235 -0.94405,0.36386 -1.47749,0.36386c-1.43991,0 -2.65603,-0.95823 -3.04543,-2.27179c-0.07465,-0.02035 -0.14925,-0.04131 -0.22387,-0.06299c-5.46597,-0.74087 -11.11961,-2.24869 -14.80293,-5.0969c-3.14078,-2.4287 -6.41811,-6.2341 -9.52817,-9.83037l-3.59977,-1.79989c-1.07424,-0.50925 -1.81719,-1.60359 -1.81719,-2.87143c0,-1.75405 1.42192,-3.17597 3.17597,-3.17597c0.29056,0 0.57201,0.039 0.8394,0.1121l3.34135,0.83533l-0.03826,0.15303l0.36986,-0.05056c3.6122,1.78556 8.08122,2.70745 11.48063,4.44156c0.18665,0.0952 0.36897,0.19325 0.54718,0.29389c-2.07427,-3.09693 -4.13722,-6.21855 -6.3354,-9.28949c0,0 -1.84598,-2.5844 0.7384,-4.4304c2.58438,-1.846 4.43038,0.7384 4.43038,0.7384c3.4395,4.82491 6.53196,9.80158 9.89102,14.5879c-0.45808,-3.0065 -0.22239,-6.22955 0.34377,-9.33146h-0.64818v-5.11565c0,-1.75405 1.42192,-3.17597 3.17597,-3.17597c1.56116,0 2.85921,1.1264 3.12584,2.6108l0.84107,4.20537l-0.12689,0.02538l0.1731,0.28454c0.0091,4.25977 0.42919,8.31426 1.08275,12.3118c2.82161,-6.329 5.56476,-12.18514 10.81688,-16.53106l0.32464,-0.54566l-0.57833,-0.57833l2.55783,-2.55783v0c0.57472,-0.57472 1.36872,-0.93023 2.24577,-0.93023c1.75405,0 3.17597,1.42192 3.17597,3.17597c0,0.61235 -0.17331,1.18423 -0.47352,1.66927l-2.5062,4.21256c-1.25497,2.92969 -2.26269,5.81569 -3.45665,8.58554c4.48689,-3.38472 9.16415,-6.57007 13.71837,-9.60465l0.34173,-0.0313l-0.04269,-0.10671l4.19617,-1.67846c0.38269,-0.16342 0.80398,-0.2539 1.2464,-0.2539c1.75405,0 3.17597,1.42192 3.17597,3.17597c0,0.78096 -0.28187,1.49611 -0.74945,2.04921l-4.05307,4.86368l-0.03798,-0.03163c-0.07945,0.11057 -0.16063,0.22006 -0.24364,0.32842c-0.66863,0.87281 -7.2401,4.97286 -8.83055,6.29965c-3.62218,3.02175 -8.27397,7.05246 -13.35631,9.73712z" fill="#36be17" stroke-width="0.5"/><path d="M19.83204,-382.08039c0.11314,0.57165 0.04871,1.25398 -0.34781,2.047c-0.61093,1.22189 -1.48468,1.65539 -2.28208,1.75268c-0.28647,1.45963 -1.57287,2.56077 -3.11642,2.56077c-0.87703,0 -1.67102,-0.35548 -2.24574,-0.93023l-1.22338,-1.22338l-0.16904,0.08451c-0.44133,0.23235 -0.94405,0.36386 -1.47749,0.36386c-1.43991,0 -2.65603,-0.95823 -3.04543,-2.27179c-0.07465,-0.02035 -0.14925,-0.04131 -0.22387,-0.06299c-5.46597,-0.74087 -11.11961,-2.24869 -14.80293,-5.09693c-3.14078,-2.4287 -6.41811,-6.2341 -9.52814,-9.83037l-3.59977,-1.79989c-1.07424,-0.50925 -1.81716,-1.60359 -1.81716,-2.87146c0,-1.75405 1.42192,-3.17597 3.17597,-3.17597c0.29056,0 0.57201,0.039 0.83937,0.1121l3.34135,0.83533l-0.03826,0.15303l0.36986,-0.05056c3.6122,1.78556 8.08122,2.70745 11.48063,4.44158c0.18665,0.0952 0.36897,0.19325 0.54718,0.29389c-2.07427,-3.09693 -4.13722,-6.21855 -6.3354,-9.28949c0,0 -1.84598,-2.5844 0.7384,-4.4304c2.58438,-1.846 4.43038,0.7384 4.43038,0.7384c3.4395,4.82491 6.53196,9.80158 9.89102,14.5879c-0.45808,-3.0065 -0.22239,-6.22955 0.34377,-9.33146h-0.64815v-5.11565c0,-1.75405 1.42192,-3.17597 3.17597,-3.17597c1.56116,0 2.85921,1.1264 3.12582,2.6108l0.84107,4.20537l-0.12689,0.02538l0.1731,0.28454c0.0091,4.25977 0.42919,8.31426 1.08275,12.3118c2.82161,-6.329 5.56476,-12.18514 10.81688,-16.53106l0.32461,-0.54566l-0.57831,-0.57831l2.55783,-2.55783v0c0.57472,-0.57472 1.36872,-0.93023 2.24574,-0.93023c1.75405,0 3.17597,1.42192 3.17597,3.17597c0,0.61235 -0.17328,1.18423 -0.47352,1.66927l-2.5062,4.21256c-1.25497,2.92969 -2.26269,5.81569 -3.45663,8.58554c4.48689,-3.38472 9.16415,-6.5701 13.71834,-9.60467l0.34173,-0.0313l-0.04269,-0.10671l4.19617,-1.67846c0.38269,-0.16342 0.80398,-0.25393 1.2464,-0.25393c1.75405,0 3.17597,1.42192 3.17597,3.17597c0,0.78096 -0.2819,1.49611 -0.74948,2.04921l-4.05307,4.86368l-0.03798,-0.03163c-0.07945,0.11057 -0.16063,0.22006 -0.24364,0.32842c-0.66863,0.87281 -7.2401,4.97286 -8.83055,6.29965c-3.62218,3.02175 -8.27397,7.05246 -13.35631,9.73712z" fill="#36be17" stroke-width="0.5"/><path d="M-343.13973,-131.15599v-118.78961h47.84581v118.78961z" fill="#f7f7f7" stroke-width="0"/><path d="M-218.32553,-236.49665c0,18.67939 -44.8618,12.37392 -98.1664,12.37392c-53.30462,0 -96.51654,3.00577 -96.51654,-15.67363c0,-18.67939 43.21194,-51.97046 96.51654,-51.97046c53.30462,0 98.1664,36.59075 98.1664,55.27017z" fill="#ff0000" stroke-width="0"/><path d="M-371.12111,-259.02405c0,-1.75405 1.42192,-3.17597 3.17597,-3.17597c1.75405,0 3.17597,1.42192 3.17597,3.17597c0,1.75405 -1.42192,3.17597 -3.17597,3.17597c-1.75405,0 -3.17597,-1.42192 -3.17597,-3.17597z" fill="#ffffff" stroke-width="0.5"/><path d="M-333.75674,-252.70084c0,-1.75405 1.42192,-3.17597 3.17597,-3.17597c1.75405,0 3.17597,1.42192 3.17597,3.17597c0,1.75405 -1.42192,3.17597 -3.17597,3.17597c-1.75405,0 -3.17597,-1.42192 -3.17597,-3.17597z" fill="#ffffff" stroke-width="0.5"/><path d="M-284.32078,-280.293c0,-1.75405 1.42192,-3.17597 3.17597,-3.17597c1.75405,0 3.17597,1.42192 3.17597,3.17597c0,1.75405 -1.42192,3.17597 -3.17597,3.17597c-1.75405,0 -3.17597,-1.42192 -3.17597,-3.17597z" fill="#ffffff" stroke-width="0.5"/><path d="M-296.39235,-256.7247c0,-1.75405 1.42192,-3.17597 3.17597,-3.17597c1.75405,0 3.17597,1.42192 3.17597,3.17597c0,1.75405 -1.42192,3.17597 -3.17597,3.17597c-1.75405,0 -3.17597,-1.42192 -3.17597,-3.17597z" fill="#ffffff" stroke-width="0.5"/><path d="M-259.02798,-241.77895c0,-1.75405 1.42192,-3.17597 3.17597,-3.17597c1.75405,0 3.17597,1.42192 3.17597,3.17597c0,1.75405 -1.42192,3.17597 -3.17597,3.17597c-1.75405,0 -3.17597,-1.42192 -3.17597,-3.17597z" fill="#ffffff" stroke-width="0.5"/><path d="M-314.2123,-277.99367c0,-1.75405 1.42192,-3.17597 3.17597,-3.17597c1.75405,0 3.17597,1.42192 3.17597,3.17597c0,1.75405 -1.42192,3.17597 -3.17597,3.17597c-1.75405,0 -3.17597,-1.42192 -3.17597,-3.17597z" fill="#ffffff" stroke-width="0.5"/><path d="M-303.29041,-241.77895c0,-1.75405 1.42192,-3.17597 3.17597,-3.17597c1.75405,0 3.17597,1.42192 3.17597,3.17597c0,1.75405 -1.42192,3.17597 -3.17597,3.17597c-1.75405,0 -3.17597,-1.42192 -3.17597,-3.17597z" fill="#ffffff" stroke-width="0.5"/><path d="M-363.64823,-248.67699c0,-1.75405 1.42192,-3.17597 3.17597,-3.17597c1.75405,0 3.17597,1.42192 3.17597,3.17597c0,1.75405 -1.42192,3.17597 -3.17597,3.17597c-1.75405,0 -3.17597,-1.42192 -3.17597,-3.17597z" fill="#ffffff" stroke-width="0.5"/><path d="M-356.7502,-269.94594c0,-1.75405 1.42192,-3.17597 3.17597,-3.17597c1.75405,0 3.17597,1.42192 3.17597,3.17597c0,1.75405 -1.42192,3.17597 -3.17597,3.17597c-1.75405,0 -3.17597,-1.42192 -3.17597,-3.17597z" fill="#ffffff" stroke-width="0.5"/><path d="M-391.81524,-249.25184c0,-1.75405 1.42192,-3.17597 3.17597,-3.17597c1.75405,0 3.17597,1.42192 3.17597,3.17597c0,1.75405 -1.42192,3.17597 -3.17597,3.17597c-1.75405,0 -3.17597,-1.42192 -3.17597,-3.17597z" fill="#ffffff" stroke-width="0.5"/><path d="M103.56576,12.61064v-118.78958h47.84581v118.78958z" fill="#f7f7f7" stroke-width="0"/><path d="M228.37996,-92.73003c0,18.67939 -44.86177,12.37392 -98.1664,12.37392c-53.30462,0 -96.51654,3.00577 -96.51654,-15.67363c0,-18.67939 43.21192,-51.97044 96.51654,-51.97044c53.30462,0 98.1664,36.59078 98.1664,55.27014z" fill="#ff0000" stroke-width="0"/><path d="M75.58438,-115.25743c0,-1.75405 1.42192,-3.17597 3.17597,-3.17597c1.75405,0 3.17597,1.42192 3.17597,3.17597c0,1.75403 -1.42192,3.17597 -3.17597,3.17597c-1.75405,0 -3.17597,-1.42195 -3.17597,-3.17597z" fill="#ffffff" stroke-width="0.5"/><path d="M112.94875,-108.93422c0,-1.75405 1.42192,-3.17597 3.17597,-3.17597c1.75405,0 3.17597,1.42192 3.17597,3.17597c0,1.75403 -1.42192,3.17597 -3.17597,3.17597c-1.75405,0 -3.17597,-1.42195 -3.17597,-3.17597z" fill="#ffffff" stroke-width="0.5"/><path d="M162.38468,-136.52638c0,-1.75405 1.42192,-3.17597 3.17597,-3.17597c1.75405,0 3.17597,1.42192 3.17597,3.17597c0,1.75403 -1.42192,3.17597 -3.17597,3.17597c-1.75405,0 -3.17597,-1.42195 -3.17597,-3.17597z" fill="#ffffff" stroke-width="0.5"/><path d="M150.31312,-112.95807c0,-1.75405 1.42192,-3.17597 3.17597,-3.17597c1.75405,0 3.17597,1.42192 3.17597,3.17597c0,1.75405 -1.42192,3.17597 -3.17597,3.17597c-1.75405,0 -3.17597,-1.42192 -3.17597,-3.17597z" fill="#ffffff" stroke-width="0.5"/><path d="M187.67749,-98.01233c0,-1.75405 1.42192,-3.17597 3.17597,-3.17597c1.75403,0 3.17597,1.42192 3.17597,3.17597c0,1.75405 -1.42195,3.17597 -3.17597,3.17597c-1.75405,0 -3.17597,-1.42192 -3.17597,-3.17597z" fill="#ffffff" stroke-width="0.5"/><path d="M132.4932,-134.22703c0,-1.75403 1.42192,-3.17597 3.17597,-3.17597c1.75405,0 3.17597,1.42195 3.17597,3.17597c0,1.75405 -1.42192,3.17597 -3.17597,3.17597c-1.75405,0 -3.17597,-1.42192 -3.17597,-3.17597z" fill="#ffffff" stroke-width="0.5"/><path d="M143.41508,-98.01233c0,-1.75405 1.42192,-3.17597 3.17597,-3.17597c1.75405,0 3.17597,1.42192 3.17597,3.17597c0,1.75405 -1.42192,3.17597 -3.17597,3.17597c-1.75405,0 -3.17597,-1.42192 -3.17597,-3.17597z" fill="#ffffff" stroke-width="0.5"/><path d="M83.05724,-104.91036c0,-1.75403 1.42192,-3.17597 3.17597,-3.17597c1.75405,0 3.17597,1.42195 3.17597,3.17597c0,1.75403 -1.42192,3.17597 -3.17597,3.17597c-1.75405,0 -3.17597,-1.42195 -3.17597,-3.17597z" fill="#ffffff" stroke-width="0.5"/><path d="M89.95529,-126.17932c0,-1.75403 1.42195,-3.17597 3.17597,-3.17597c1.75403,0 3.17597,1.42195 3.17597,3.17597c0,1.75405 -1.42195,3.17597 -3.17597,3.17597c-1.75403,0 -3.17597,-1.42192 -3.17597,-3.17597z" fill="#ffffff" stroke-width="0.5"/><path d="M54.89025,-105.48522c0,-1.75403 1.42192,-3.17597 3.17597,-3.17597c1.75405,0 3.17597,1.42195 3.17597,3.17597c0,1.75403 -1.42192,3.17597 -3.17597,3.17597c-1.75405,0 -3.17597,-1.42195 -3.17597,-3.17597z" fill="#ffffff" stroke-width="0.5"/><path d="M-206.71055,363.36714v-118.78961h47.84581v118.78961z" fill="#f7f7f7" stroke-width="0"/><path d="M-81.89635,258.02648c0,18.67939 -44.86177,12.37392 -98.1664,12.37392c-53.30462,0 -96.51654,3.00577 -96.51654,-15.67363c0,-18.67939 43.21192,-51.97044 96.51654,-51.97044c53.30462,0 98.1664,36.59075 98.1664,55.27014z" fill="#ff0000" stroke-width="0"/><path d="M-234.69193,235.49908c0,-1.75405 1.42192,-3.17597 3.17597,-3.17597c1.75405,0 3.17597,1.42192 3.17597,3.17597c0,1.75405 -1.42192,3.17597 -3.17597,3.17597c-1.75405,0 -3.17597,-1.42192 -3.17597,-3.17597z" fill="#ffffff" stroke-width="0.5"/><path d="M-197.32756,241.82226c0,-1.75405 1.42192,-3.17597 3.17597,-3.17597c1.75405,0 3.17597,1.42192 3.17597,3.17597c0,1.75405 -1.42192,3.17597 -3.17597,3.17597c-1.75405,0 -3.17597,-1.42192 -3.17597,-3.17597z" fill="#ffffff" stroke-width="0.5"/><path d="M-147.89162,214.2301c0,-1.75405 1.42192,-3.17597 3.17597,-3.17597c1.75405,0 3.17597,1.42192 3.17597,3.17597c0,1.75405 -1.42192,3.17597 -3.17597,3.17597c-1.75405,0 -3.17597,-1.42192 -3.17597,-3.17597z" fill="#ffffff" stroke-width="0.5"/><path d="M-159.96319,237.79841c0,-1.75405 1.42192,-3.17597 3.17597,-3.17597c1.75405,0 3.17597,1.42192 3.17597,3.17597c0,1.75405 -1.42192,3.17597 -3.17597,3.17597c-1.75405,0 -3.17597,-1.42192 -3.17597,-3.17597z" fill="#ffffff" stroke-width="0.5"/><path d="M-122.59882,252.74418c0,-1.75405 1.42192,-3.17597 3.17597,-3.17597c1.75405,0 3.17597,1.42192 3.17597,3.17597c0,1.75403 -1.42192,3.17597 -3.17597,3.17597c-1.75405,0 -3.17597,-1.42195 -3.17597,-3.17597z" fill="#ffffff" stroke-width="0.5"/><path d="M-177.78311,216.52946c0,-1.75405 1.42192,-3.17597 3.17597,-3.17597c1.75405,0 3.17597,1.42192 3.17597,3.17597c0,1.75405 -1.42192,3.17597 -3.17597,3.17597c-1.75405,0 -3.17597,-1.42192 -3.17597,-3.17597z" fill="#ffffff" stroke-width="0.5"/><path d="M-166.86122,252.74418c0,-1.75405 1.42192,-3.17597 3.17597,-3.17597c1.75405,0 3.17597,1.42192 3.17597,3.17597c0,1.75403 -1.42192,3.17597 -3.17597,3.17597c-1.75405,0 -3.17597,-1.42195 -3.17597,-3.17597z" fill="#ffffff" stroke-width="0.5"/><path d="M-227.21907,245.84612c0,-1.75405 1.42192,-3.17597 3.17597,-3.17597c1.75405,0 3.17597,1.42192 3.17597,3.17597c0,1.75405 -1.42192,3.17597 -3.17597,3.17597c-1.75405,0 -3.17597,-1.42192 -3.17597,-3.17597z" fill="#ffffff" stroke-width="0.5"/><path d="M-220.32101,224.57717c0,-1.75405 1.42192,-3.17597 3.17597,-3.17597c1.75405,0 3.17597,1.42192 3.17597,3.17597c0,1.75405 -1.42192,3.17597 -3.17597,3.17597c-1.75405,0 -3.17597,-1.42192 -3.17597,-3.17597z" fill="#ffffff" stroke-width="0.5"/><path d="M-255.38605,245.27129c0,-1.75405 1.42192,-3.17597 3.17597,-3.17597c1.75405,0 3.17597,1.42192 3.17597,3.17597c0,1.75405 -1.42192,3.17597 -3.17597,3.17597c-1.75405,0 -3.17597,-1.42192 -3.17597,-3.17597z" fill="#ffffff" stroke-width="0.5"/><path d="M-580.71334,-238.04536c-2.19033,-2.29984 0.10951,-4.49016 0.10951,-4.49016l4.45119,-3.02934c0.68238,0.00152 1.35007,-0.01824 2.00625,-0.05498c0.56972,-0.70875 1.0934,-1.43193 1.37349,-2.1947c0.35251,-0.96003 0.67717,-2.00074 0.99085,-3.09535c-2.72442,2.85111 -5.75753,5.52281 -10.48434,2.59108c-9.06389,-5.6217 1.21861,-19.18117 -11.21949,-18.8857c0,0 -3.17597,0 -3.17597,-3.17597c0,-3.17597 3.17597,-3.17597 3.17597,-3.17597c1.67869,0.02833 3.43165,-0.4096 5.0361,0.08496c11.93596,3.6792 3.73319,12.83067 9.58282,19.78697c1.30065,1.5467 3.26607,-2.41315 4.66733,-3.8693c2.48536,-2.58268 4.96374,-5.40622 7.21914,-8.38558c0.88122,-1.75461 1.93137,-3.34011 3.22684,-4.63517c0.84608,-1.3352 1.6311,-2.69109 2.33805,-4.06098l0.7976,-0.27316l-0.17836,-0.26754l5.24902,-3.49934c0.51118,-0.35164 1.13047,-0.5575 1.79785,-0.5575c1.75405,0 3.17597,1.42192 3.17597,3.17597c0,0.85586 -0.33853,1.63263 -0.88899,2.20374l-4.39758,4.57706l-0.54329,-0.52198c-3.03613,4.46422 -6.18806,8.79686 -8.38332,13.71649c-1.29699,2.9066 -0.66591,6.43419 -1.62015,9.44074c2.32166,-0.39456 4.66543,-0.78137 7.20186,-0.93125c6.27943,-0.37103 12.8696,0.69183 19.19103,2.24462l0.00429,-0.1991l6.34196,0.13674c1.72636,0.03196 3.11601,1.44141 3.11601,3.17541c0,1.43409 -0.95048,2.64617 -2.25585,3.04065l-5.96643,1.95622l-0.05305,-0.16185l-0.43541,0.28015c-3.71149,0.02144 -7.49585,-0.57256 -11.13343,0.16472c-5.22712,1.05945 -12.83532,4.22699 -18.31967,1.79102c-2.36737,-1.05153 -5.37222,-2.08229 -6.91501,-4.07409c-0.1732,0.0029 -0.34717,0.00455 -0.522,0.0049l-0.07053,1.27707c0,0 -2.29984,2.19033 -4.49016,-0.10951z" fill="#000000" stroke-width="0.5"/><path d="M-503.04639,-235.44683c-2.19033,-2.29984 0.10951,-4.49016 0.10951,-4.49016l4.45119,-3.02932c0.68238,0.00152 1.35007,-0.01824 2.00625,-0.05501c0.56972,-0.70875 1.0934,-1.43193 1.37347,-2.1947c0.35251,-0.96001 0.67717,-2.00074 0.99085,-3.09535c-2.72442,2.85111 -5.75755,5.52279 -10.48437,2.59108c-9.06387,-5.6217 1.21861,-19.18114 -11.21949,-18.8857c0,0 -3.17597,0 -3.17597,-3.17597c0,-3.17597 3.17597,-3.17597 3.17597,-3.17597c1.67869,0.0283 3.43165,-0.4096 5.03608,0.08496c11.93596,3.67917 3.73319,12.83065 9.58282,19.78694c1.30062,1.5467 3.26607,-2.41313 4.66736,-3.86927c2.48536,-2.58268 4.96374,-5.40624 7.21911,-8.38558c0.88122,-1.75461 1.9314,-3.34013 3.22684,-4.63517c0.84608,-1.33518 1.6311,-2.69109 2.33805,-4.06098l0.7976,-0.27316l-0.17839,-0.26754l5.24902,-3.49934c0.51118,-0.35167 1.13047,-0.5575 1.79783,-0.5575c1.75403,0 3.17597,1.42195 3.17597,3.17597c0,0.85584 -0.33853,1.63265 -0.88899,2.20377l-4.39758,4.57706l-0.54329,-0.522c-3.03613,4.46422 -6.18806,8.79686 -8.38332,13.71649c-1.29699,2.9066 -0.66589,6.43419 -1.62015,9.44072c2.32166,-0.39456 4.66543,-0.78137 7.20186,-0.93122c6.27943,-0.37103 12.8696,0.6918 19.19103,2.2446l0.00429,-0.1991l6.34196,0.13674c1.72638,0.03196 3.11598,1.44143 3.11598,3.17544c0,1.43407 -0.95048,2.64617 -2.25585,3.04065l-5.96646,1.95622l-0.05305,-0.16185l-0.43541,0.28015c-3.71149,0.02144 -7.49585,-0.57256 -11.13343,0.16472c-5.22712,1.05943 -12.83532,4.22699 -18.31967,1.79099c-2.36737,-1.0515 -5.37222,-2.08229 -6.91501,-4.07409c-0.1732,0.0029 -0.34717,0.00457 -0.52198,0.00493l-0.07053,1.27707c0,0 -2.29984,2.19033 -4.49019,-0.10951z" fill="#000000" stroke-width="0.5"/><path d="M-516.32775,-294.20231c-2.19033,-2.29984 0.10951,-4.49016 0.10951,-4.49016l4.45119,-3.02934c0.68238,0.00152 1.35007,-0.01822 2.00625,-0.05498c0.56972,-0.70875 1.0934,-1.43193 1.37349,-2.1947c0.35251,-0.96001 0.67717,-2.00074 0.99083,-3.09535c-2.7244,2.85111 -5.75755,5.52279 -10.48437,2.59108c-9.06389,-5.6217 1.21861,-19.18117 -11.21949,-18.8857c0,0 -3.17597,0 -3.17597,-3.17597c0,-3.17597 3.17597,-3.17597 3.17597,-3.17597c1.67869,0.0283 3.43165,-0.4096 5.03608,0.08496c11.93596,3.67917 3.73319,12.83067 9.58285,19.78697c1.30062,1.5467 3.26607,-2.41313 4.66733,-3.86927c2.48536,-2.58268 4.96374,-5.40624 7.21914,-8.38558c0.88119,-1.75461 1.93137,-3.34013 3.22684,-4.63517c0.84608,-1.33518 1.6311,-2.69109 2.33805,-4.06098l0.7976,-0.27316l-0.17836,-0.26754l5.24902,-3.49934c0.51118,-0.35167 1.13047,-0.5575 1.79783,-0.5575c1.75403,0 3.17597,1.42195 3.17597,3.17597c0,0.85584 -0.33853,1.63265 -0.88899,2.20377l-4.39758,4.57706l-0.54329,-0.52198c-3.03613,4.46422 -6.18806,8.79686 -8.38332,13.71649c-1.29699,2.9066 -0.66589,6.43421 -1.62015,9.44074c2.32166,-0.39456 4.66543,-0.78137 7.20186,-0.93125c6.27943,-0.37103 12.8696,0.69183 19.19103,2.24462l0.00429,-0.1991l6.34198,0.13674c1.72636,0.03196 3.11598,1.44143 3.11598,3.17544c0,1.43407 -0.95048,2.64614 -2.25585,3.04062l-5.96646,1.95622l-0.05305,-0.16185l-0.43541,0.28015c-3.71149,0.02144 -7.49585,-0.57256 -11.13343,0.16472c-5.22709,1.05943 -12.83532,4.22699 -18.31967,1.79099c-2.36737,-1.0515 -5.37222,-2.08227 -6.91501,-4.07406c-0.1732,0.0029 -0.34717,0.00455 -0.52198,0.0049l-0.07053,1.27707c0,0 -2.29984,2.1903 -4.49016,-0.10953z" fill="#000000" stroke-width="0.5"/><path d="M-440.10442,-287.27292c-2.19033,-2.29984 0.10953,-4.49016 0.10953,-4.49016l4.45119,-3.02934c0.68238,0.00152 1.35007,-0.01822 2.00625,-0.05498c0.56972,-0.70875 1.0934,-1.43193 1.37349,-2.1947c0.35251,-0.96001 0.67717,-2.00074 0.99085,-3.09535c-2.72442,2.85111 -5.75755,5.52279 -10.48437,2.59108c-9.06387,-5.6217 1.21861,-19.18114 -11.21949,-18.8857c0,0 -3.17597,0 -3.17597,-3.17597c0,-3.17597 3.17597,-3.17597 3.17597,-3.17597c1.67869,0.0283 3.43165,-0.4096 5.0361,0.08496c11.93596,3.67917 3.73319,12.83067 9.58285,19.78697c1.30062,1.5467 3.26607,-2.41313 4.66733,-3.86927c2.48536,-2.58268 4.96376,-5.40624 7.21914,-8.38558c0.88119,-1.75461 1.93137,-3.34013 3.22681,-4.63517c0.84608,-1.33518 1.6311,-2.69106 2.33805,-4.06098l0.7976,-0.27316l-0.17836,-0.26754l5.24902,-3.49934c0.51118,-0.35164 1.13047,-0.5575 1.79783,-0.5575c1.75403,0 3.17597,1.42195 3.17597,3.17597c0,0.85584 -0.33853,1.63263 -0.88899,2.20374l-4.39758,4.57706l-0.54329,-0.52198c-3.03613,4.46422 -6.18806,8.79683 -8.38332,13.71649c-1.29699,2.9066 -0.66591,6.43421 -1.62015,9.44074c2.32166,-0.39456 4.66543,-0.78137 7.20186,-0.93125c6.27943,-0.37103 12.8696,0.69183 19.19103,2.24462l0.00429,-0.1991l6.34198,0.13674c1.72636,0.03196 3.11598,1.44143 3.11598,3.17544c0,1.43407 -0.95048,2.64614 -2.25585,3.04062l-5.96643,1.95622l-0.05308,-0.16185l-0.43539,0.28015c-3.71149,0.02144 -7.49585,-0.57256 -11.13343,0.16472c-5.22712,1.05943 -12.83532,4.22699 -18.31969,1.79099c-2.36737,-1.0515 -5.37222,-2.08227 -6.91501,-4.07406c-0.1732,0.0029 -0.34717,0.00455 -0.52198,0.0049l-0.07053,1.27707c0,0 -2.29984,2.1903 -4.49019,-0.10953z" fill="#000000" stroke-width="0.5"/><path d="M-464.17961,-347.49423c-2.19033,-2.29984 0.10951,-4.49016 0.10951,-4.49016l4.45119,-3.02932c0.68238,0.00152 1.35007,-0.01824 2.00625,-0.05501c0.56972,-0.70875 1.0934,-1.43193 1.37349,-2.1947c0.35251,-0.96001 0.67717,-2.00074 0.99085,-3.09535c-2.72442,2.85111 -5.75755,5.52279 -10.48437,2.59108c-9.06389,-5.6217 1.21861,-19.18114 -11.21949,-18.8857c0,0 -3.17597,0 -3.17597,-3.17597c0,-3.17597 3.17597,-3.17597 3.17597,-3.17597c1.67869,0.0283 3.43165,-0.4096 5.03608,0.08496c11.93596,3.67917 3.73319,12.83065 9.58282,19.78694c1.30062,1.5467 3.26607,-2.41313 4.66733,-3.86927c2.48536,-2.58268 4.96376,-5.40624 7.21914,-8.38558c0.88119,-1.75461 1.93137,-3.34013 3.22684,-4.63517c0.84608,-1.33518 1.6311,-2.69109 2.33805,-4.06098l0.79763,-0.27316l-0.17839,-0.26754l5.24902,-3.49934c0.5112,-0.35167 1.13049,-0.5575 1.79783,-0.5575c1.75405,0 3.17597,1.42195 3.17597,3.17597c0,0.85584 -0.33853,1.63265 -0.88899,2.20377l-4.39758,4.57706l-0.54329,-0.522c-3.03613,4.46422 -6.18809,8.79686 -8.38332,13.71649c-1.29699,2.9066 -0.66589,6.43419 -1.62015,9.44072c2.32166,-0.39456 4.66543,-0.78137 7.20186,-0.93122c6.27943,-0.37103 12.8696,0.6918 19.19103,2.2446l0.00429,-0.1991l6.34196,0.13674c1.72638,0.03196 3.11598,1.44143 3.11598,3.17544c0,1.43407 -0.95048,2.64617 -2.25585,3.04065l-5.96646,1.95622l-0.05305,-0.16185l-0.43541,0.28015c-3.71149,0.02142 -7.49585,-0.57256 -11.13343,0.16472c-5.22712,1.05943 -12.83532,4.22699 -18.31967,1.79099c-2.36737,-1.05153 -5.37222,-2.08229 -6.91501,-4.07409c-0.1732,0.0029 -0.34717,0.00457 -0.52198,0.00493l-0.07053,1.27707c0,0 -2.29986,2.19033 -4.49019,-0.10951z" fill="#000000" stroke-width="0.5"/><path d="M-386.51266,-344.8957c-2.19033,-2.29984 0.10951,-4.49016 0.10951,-4.49016l4.45119,-3.02934c0.68238,0.00152 1.35007,-0.01822 2.00625,-0.05498c0.56972,-0.70875 1.0934,-1.43193 1.37349,-2.1947c0.35251,-0.96001 0.67717,-2.00074 0.99083,-3.09535c-2.7244,2.85111 -5.75755,5.52279 -10.48437,2.59108c-9.06387,-5.6217 1.21861,-19.18117 -11.21949,-18.8857c0,0 -3.17597,0 -3.17597,-3.17597c0,-3.17597 3.17597,-3.17597 3.17597,-3.17597c1.67869,0.0283 3.43165,-0.4096 5.0361,0.08496c11.93596,3.67917 3.73319,12.83067 9.58285,19.78697c1.30062,1.5467 3.26607,-2.41313 4.66733,-3.86927c2.48536,-2.58268 4.96376,-5.40624 7.21914,-8.38558c0.88119,-1.75461 1.93137,-3.34013 3.22684,-4.63517c0.84608,-1.33518 1.6311,-2.69109 2.33805,-4.06098l0.7976,-0.27316l-0.17836,-0.26754l5.24902,-3.49934c0.51118,-0.35167 1.13049,-0.5575 1.79783,-0.5575c1.75403,0 3.17597,1.42195 3.17597,3.17597c0,0.85584 -0.33853,1.63265 -0.88899,2.20377l-4.39758,4.57706l-0.54329,-0.52198c-3.03613,4.46422 -6.18806,8.79686 -8.38332,13.71649c-1.29699,2.9066 -0.66589,6.43421 -1.62015,9.44074c2.32166,-0.39456 4.66543,-0.78137 7.20186,-0.93125c6.27943,-0.37103 12.8696,0.69183 19.19103,2.24462l0.00429,-0.1991l6.34198,0.13674c1.72638,0.03196 3.11598,1.44143 3.11598,3.17544c0,1.43407 -0.95048,2.64614 -2.25585,3.04062l-5.96646,1.95622l-0.05305,-0.16185l-0.43541,0.28015c-3.71149,0.02142 -7.49585,-0.57256 -11.13343,0.16472c-5.22709,1.05943 -12.83532,4.22699 -18.31967,1.79099c-2.36737,-1.05153 -5.37222,-2.08227 -6.91501,-4.07406c-0.1732,0.0029 -0.34717,0.00455 -0.52198,0.00493l-0.07053,1.27707c0,0 -2.29984,2.1903 -4.49019,-0.10953z" fill="#000000" stroke-width="0.5"/><path d="M-399.79402,-403.65118c-2.19033,-2.29984 0.10951,-4.49016 0.10951,-4.49016l4.45119,-3.02934c0.68238,0.00152 1.35007,-0.01822 2.00625,-0.05498c0.56972,-0.70875 1.0934,-1.43193 1.37349,-2.1947c0.35251,-0.96001 0.67717,-2.00074 0.99085,-3.09535c-2.72442,2.85111 -5.75753,5.52279 -10.48437,2.59108c-9.06389,-5.6217 1.21861,-19.18114 -11.21949,-18.8857c0,0 -3.17597,0 -3.17597,-3.17597c0,-3.17597 3.17597,-3.17597 3.17597,-3.17597c1.67869,0.0283 3.43165,-0.4096 5.03608,0.08496c11.93596,3.67917 3.73319,12.83067 9.58282,19.78697c1.30065,1.5467 3.26607,-2.41313 4.66733,-3.86927c2.48536,-2.58268 4.96376,-5.40624 7.21914,-8.38558c0.88122,-1.75461 1.93137,-3.34013 3.22684,-4.63517c0.84608,-1.33518 1.6311,-2.69106 2.33805,-4.06098l0.79763,-0.27316l-0.17839,-0.26754l5.24902,-3.49934c0.5112,-0.35164 1.13049,-0.5575 1.79783,-0.5575c1.75405,0 3.17597,1.42195 3.17597,3.17597c0,0.85584 -0.33853,1.63263 -0.88899,2.20374l-4.39758,4.57706l-0.54329,-0.52198c-3.03613,4.46422 -6.18809,8.79683 -8.38332,13.71649c-1.29699,2.9066 -0.66589,6.43421 -1.62015,9.44074c2.32166,-0.39456 4.66543,-0.78137 7.20186,-0.93125c6.27943,-0.37103 12.8696,0.69183 19.19103,2.24462l0.00429,-0.1991l6.34196,0.13674c1.72636,0.03196 3.11598,1.44143 3.11598,3.17544c0,1.43407 -0.95048,2.64614 -2.25585,3.04062l-5.96646,1.95622l-0.05305,-0.16185l-0.43541,0.28015c-3.71149,0.02144 -7.49585,-0.57256 -11.13343,0.16472c-5.22709,1.05943 -12.83532,4.22699 -18.31967,1.79099c-2.36737,-1.0515 -5.37222,-2.08227 -6.91501,-4.07406c-0.1732,0.0029 -0.34717,0.00455 -0.52198,0.0049l-0.07053,1.27707c0,0 -2.29986,2.1903 -4.49019,-0.10953z" fill="#000000" stroke-width="0.5"/><path d="M-323.57069,-396.7218c-2.19033,-2.29984 0.10951,-4.49016 0.10951,-4.49016l4.45119,-3.02932c0.68238,0.00152 1.35007,-0.01824 2.00625,-0.05501c0.56972,-0.70875 1.0934,-1.43193 1.37349,-2.1947c0.35251,-0.96001 0.67717,-2.00074 0.99083,-3.09535c-2.72442,2.85111 -5.75753,5.52279 -10.48437,2.59108c-9.06387,-5.6217 1.21861,-19.18114 -11.21949,-18.8857c0,0 -3.17597,0 -3.17597,-3.17597c0,-3.17597 3.17597,-3.17597 3.17597,-3.17597c1.67869,0.0283 3.43165,-0.4096 5.03608,0.08496c11.93596,3.6792 3.73319,12.83067 9.58282,19.78697c1.30062,1.5467 3.26607,-2.41313 4.66733,-3.86927c2.48536,-2.58268 4.96374,-5.40624 7.21914,-8.38558c0.88119,-1.75461 1.93137,-3.34013 3.22684,-4.63517c0.84608,-1.3352 1.6311,-2.69109 2.33805,-4.06098l0.7976,-0.27316l-0.17836,-0.26754l5.24902,-3.49934c0.51118,-0.35167 1.13047,-0.5575 1.79785,-0.5575c1.75403,0 3.17597,1.42195 3.17597,3.17597c0,0.85584 -0.33853,1.63263 -0.88899,2.20374l-4.39758,4.57706l-0.54329,-0.52198c-3.03613,4.46422 -6.18806,8.79686 -8.38332,13.71649c-1.29699,2.9066 -0.66589,6.43419 -1.62015,9.44072c2.32166,-0.39456 4.66543,-0.78137 7.20186,-0.93122c6.27943,-0.37103 12.8696,0.6918 19.19103,2.2446l0.00429,-0.1991l6.34198,0.13674c1.72636,0.03196 3.11598,1.44143 3.11598,3.17544c0,1.43409 -0.95048,2.64614 -2.25585,3.04062l-5.96646,1.95622l-0.05308,-0.16185l-0.43539,0.28015c-3.71149,0.02142 -7.49585,-0.57256 -11.13343,0.16472c-5.22712,1.05943 -12.83532,4.22699 -18.31967,1.79099c-2.36737,-1.05153 -5.37222,-2.08229 -6.91501,-4.07409c-0.1732,0.0029 -0.34717,0.00455 -0.52198,0.00493l-0.07053,1.27707c0,0 -2.29986,2.19033 -4.49019,-0.10951z" fill="#000000" stroke-width="0.5"/><path d="M314.4783,-341.2257c-1.10313,1.46824 -2.34966,2.69482 -3.78772,3.50538c-2.59467,1.4625 -13.04623,1.56677 -16.15693,1.59734c0,0 -3.17597,0 -3.17597,-3.17597c0,-3.17597 3.17597,-3.17597 3.17597,-3.17597c0.37042,0.0048 0.99324,0.00681 1.77283,0.00213c0.4454,-2.44519 3.11327,-2.44519 3.11327,-2.44519l1.67277,0.09482c3.02309,-0.75578 6.09164,-1.44443 9.1953,-2.0624c0.87017,-1.74717 1.58809,-3.65656 2.15877,-4.8025c3.31785,-6.66253 8.56184,-13.21928 10.84272,-20.40133c1.36084,-4.28507 0.75835,-7.08412 2.54266,-11.24787c3.14116,-7.33007 8.73512,-9.04245 14.30166,-13.77211c3.44522,-2.86712 7.80824,-7.24048 12.06415,-8.73347c16.76913,-5.88276 35.72082,-3.4022 52.75249,-1.53402c11.24281,1.23319 19.41017,2.78551 27.67631,11.15465c7.36643,12.18842 11.491,24.62666 15.24604,37.87067c1.2648,4.46089 0.86442,10.7608 5.07719,14.19276c0.9329,0.75997 2.15272,1.24376 3.52523,1.54233c3.49799,-0.48768 6.9659,-0.70654 9.61151,0.26236c0.6701,-0.03687 1.30962,-0.07152 1.90408,-0.09419v-0.02663h4.88612c1.75405,0 3.17597,1.42192 3.17597,3.17597c0,1.75405 -1.42192,3.17597 -3.17597,3.17597h-3.66459c-3.5906,0 -8.04446,0.37098 -12.18382,-0.1339c-0.24397,0.02896 -0.49195,0.05986 -0.74424,0.09289c-9.90687,1.29671 -21.143,2.40401 -31.33216,1.24971c-9.08264,-1.02894 -17.87574,-3.75087 -26.90135,-4.88874c-9.51615,-1.1997 -17.63666,-0.27405 -27.22293,-3.02093c-18.38718,-2.62932 -37.95528,-1.78302 -56.34931,1.59825z" fill="#bf5417" stroke-width="0.5"/><path d="M171.64798,-308.76076c0,-1.75405 1.42192,-3.17597 3.17597,-3.17597c1.75405,0 3.17597,1.42192 3.17597,3.17597c0,1.75405 -1.42192,3.17597 -3.17597,3.17597c-1.75405,0 -3.17597,-1.42192 -3.17597,-3.17597z" fill="#000000" stroke-width="0.5"/><path d="M191.19243,-308.76076c0,-1.75405 1.42192,-3.17597 3.17597,-3.17597c1.75405,0 3.17597,1.42192 3.17597,3.17597c0,1.75405 -1.42192,3.17597 -3.17597,3.17597c-1.75405,0 -3.17597,-1.42192 -3.17597,-3.17597z" fill="#000000" stroke-width="0.5"/><path d="M182.64172,-318.53297c0,-1.75405 1.42192,-3.17597 3.17597,-3.17597c1.75405,0 3.17597,1.42192 3.17597,3.17597c0,1.75405 -1.42192,3.17597 -3.17597,3.17597c-1.75405,0 -3.17597,-1.42192 -3.17597,-3.17597z" fill="#000000" stroke-width="0.5"/><path d="M210.73685,-317.31144c0,-1.75405 1.42192,-3.17597 3.17597,-3.17597c1.75405,0 3.17597,1.42192 3.17597,3.17597c0,1.75405 -1.42192,3.17597 -3.17597,3.17597c-1.75405,0 -3.17597,-1.42192 -3.17597,-3.17597z" fill="#000000" stroke-width="0.5"/><path d="M247.38269,-313.64686c0,-1.75405 1.42192,-3.17597 3.17597,-3.17597c1.75405,0 3.17597,1.42192 3.17597,3.17597c0,1.75405 -1.42192,3.17597 -3.17597,3.17597c-1.75405,0 -3.17597,-1.42192 -3.17597,-3.17597z" fill="#000000" stroke-width="0.5"/><path d="M270.59173,-300.21005c0,-1.75405 1.42192,-3.17597 3.17597,-3.17597c1.75405,0 3.17597,1.42192 3.17597,3.17597c0,1.75405 -1.42192,3.17597 -3.17597,3.17597c-1.75405,0 -3.17597,-1.42192 -3.17597,-3.17597z" fill="#000000" stroke-width="0.5"/><path d="M291.35768,-296.54549c0,-1.75405 1.42192,-3.17597 3.17597,-3.17597c1.75405,0 3.17597,1.42192 3.17597,3.17597c0,1.75405 -1.42192,3.17597 -3.17597,3.17597c-1.75405,0 -3.17597,-1.42192 -3.17597,-3.17597z" fill="#000000" stroke-width="0.5"/><path d="M302.35145,-307.53923c0,-1.75405 1.42192,-3.17597 3.17597,-3.17597c1.75405,0 3.17597,1.42192 3.17597,3.17597c0,1.75405 -1.42192,3.17597 -3.17597,3.17597c-1.75405,0 -3.17597,-1.42192 -3.17597,-3.17597z" fill="#000000" stroke-width="0.5"/><path d="M315.78825,-317.31144c0,-1.75405 1.42192,-3.17597 3.17597,-3.17597c1.75405,0 3.17597,1.42192 3.17597,3.17597c0,1.75405 -1.42192,3.17597 -3.17597,3.17597c-1.75405,0 -3.17597,-1.42192 -3.17597,-3.17597z" fill="#000000" stroke-width="0.5"/><path d="M321.89587,-327.08368c0,-1.75405 1.42192,-3.17597 3.17597,-3.17597c1.75405,0 3.17597,1.42192 3.17597,3.17597c0,1.75405 -1.42192,3.17597 -3.17597,3.17597c-1.75405,0 -3.17597,-1.42192 -3.17597,-3.17597z" fill="#000000" stroke-width="0.5"/><path d="M331.66811,-340.52048c0,-1.75405 1.42192,-3.17597 3.17597,-3.17597c1.75405,0 3.17597,1.42192 3.17597,3.17597c0,1.75405 -1.42192,3.17597 -3.17597,3.17597c-1.75405,0 -3.17597,-1.42192 -3.17597,-3.17597z" fill="#000000" stroke-width="0.5"/><path d="M340.21879,-350.29269c0,-1.75405 1.42192,-3.17597 3.17597,-3.17597c1.75405,0 3.17597,1.42192 3.17597,3.17597c0,1.75405 -1.42192,3.17597 -3.17597,3.17597c-1.75405,0 -3.17597,-1.42192 -3.17597,-3.17597z" fill="#000000" stroke-width="0.5"/><path d="M354.87712,-344.18507c0,-1.75405 1.42192,-3.17597 3.17597,-3.17597c1.75405,0 3.17597,1.42192 3.17597,3.17597c0,1.75405 -1.42192,3.17597 -3.17597,3.17597c-1.75405,0 -3.17597,-1.42192 -3.17597,-3.17597z" fill="#000000" stroke-width="0.5"/><path d="M336.5542,-362.50796c0,-1.75405 1.42192,-3.17597 3.17597,-3.17597c1.75405,0 3.17597,1.42192 3.17597,3.17597c0,1.75405 -1.42192,3.17597 -3.17597,3.17597c-1.75405,0 -3.17597,-1.42192 -3.17597,-3.17597z" fill="#000000" stroke-width="0.5"/><path d="M349.99103,-358.8434c0,-1.75405 1.42192,-3.17597 3.17597,-3.17597c1.75405,0 3.17597,1.42192 3.17597,3.17597c0,1.75405 -1.42192,3.17597 -3.17597,3.17597c-1.75405,0 -3.17597,-1.42192 -3.17597,-3.17597z" fill="#000000" stroke-width="0.5"/><path d="M348.7695,-369.83714c0,-1.75405 1.42192,-3.17597 3.17597,-3.17597c1.75405,0 3.17597,1.42192 3.17597,3.17597c0,1.75405 -1.42192,3.17597 -3.17597,3.17597c-1.75405,0 -3.17597,-1.42192 -3.17597,-3.17597z" fill="#000000" stroke-width="0.5"/><path d="M342.66185,-372.2802c0,-1.75405 1.42192,-3.17597 3.17597,-3.17597c1.75405,0 3.17597,1.42192 3.17597,3.17597c0,1.75405 -1.42192,3.17597 -3.17597,3.17597c-1.75405,0 -3.17597,-1.42192 -3.17597,-3.17597z" fill="#000000" stroke-width="0.5"/><path d="M354.87712,-378.38782c0,-1.75405 1.42192,-3.17597 3.17597,-3.17597c1.75405,0 3.17597,1.42192 3.17597,3.17597c0,1.75405 -1.42192,3.17597 -3.17597,3.17597c-1.75405,0 -3.17597,-1.42192 -3.17597,-3.17597z" fill="#000000" stroke-width="0.5"/><path d="M370.26839,-391.33603c1.75405,0 3.17597,1.42192 3.17597,3.17597c0,1.75405 -1.42192,3.17597 -3.17597,3.17597c-0.74562,0 -1.43119,-0.25692 -1.97309,-0.68708c-0.4894,1.1233 -1.60951,1.90861 -2.91303,1.90861c-1.75405,0 -3.17597,-1.42192 -3.17597,-3.17597c0,-1.75405 1.42192,-3.17597 3.17597,-3.17597c0.74562,0 1.43119,0.25692 1.97309,0.68708c0.4894,-1.1233 1.60951,-1.90861 2.91303,-1.90861z" fill="#000000" stroke-width="0.5"/><path d="M351.21255,-391.82465c0,-1.75405 1.42192,-3.17597 3.17597,-3.17597c1.75405,0 3.17597,1.42192 3.17597,3.17597c0,1.75405 -1.42192,3.17597 -3.17597,3.17597c-1.75405,0 -3.17597,-1.42192 -3.17597,-3.17597z" fill="#000000" stroke-width="0.5"/><path d="M368.31392,-400.37533c0,-1.75405 1.42192,-3.17597 3.17597,-3.17597c1.75405,0 3.17597,1.42192 3.17597,3.17597c0,1.75405 -1.42192,3.17597 -3.17597,3.17597c-1.75405,0 -3.17597,-1.42192 -3.17597,-3.17597z" fill="#000000" stroke-width="0.5"/></g></g></svg>