<svg version="1.1" xmlns="http://www.w3.org/2000/svg" xmlns:xlink="http://www.w3.org/1999/xlink" width="61.92545" height="70.01399" viewBox="0,0,61.92545,70.01399"><g transform="translate(-209.03726,-144.993)"><g data-paper-data="{&quot;isPaintingLayer&quot;:true}" fill-rule="nonzero" stroke-linecap="butt" stroke-linejoin="miter" stroke-miterlimit="10" stroke-dasharray="" stroke-dashoffset="0" style="mix-blend-mode: normal"><path d="M238.87403,144.993c8.15016,0 14.75717,6.24849 14.75717,13.9564c0,7.70791 -6.60701,13.9564 -14.75717,13.9564c-8.15016,0 -14.75718,-6.24849 -14.75718,-13.9564c0,-7.70791 6.60702,-13.9564 14.75718,-13.9564z" data-paper-data="{&quot;index&quot;:null}" fill="#000000" stroke="none" stroke-width="0"/><path d="M224.96703,154.32956c0.07289,-2.59877 4.86137,-3.07613 7.04681,-0.52465c2.43514,2.843 2.48263,8.91728 6.6764,9.0349c4.12256,0.11562 3.72362,-8.04076 6.43721,-11.07985c2.52428,-2.82708 7.37751,0.00526 7.30325,2.6532c-0.07546,2.69044 1.04525,9.38378 -1.45466,12.84227c-2.60544,3.60449 -7.97906,3.25832 -12.04005,3.14442c-3.53399,-0.09912 -9.29443,0.02041 -11.72496,-2.76161c-3.04232,-3.48227 -2.32966,-10.25434 -2.24399,-13.30867z" data-paper-data="{&quot;index&quot;:null}" fill="#ffffff" stroke="none" stroke-width="0"/><path d="M255.91914,186.74781c0,11.81458 -7.42649,21.39219 -16.58753,21.39219c-9.16104,0 -16.58752,-9.57761 -16.58752,-21.39219c0,-11.81458 7.42649,-21.39219 16.58753,-21.39219c9.16104,0 16.58753,9.57761 16.58753,21.39219z" fill="#e7e6e7" stroke="#000000" stroke-width="2"/><path d="M252.74067,185.14625c0,6.38114 -5.94119,11.55407 -13.27003,11.55407c-7.32883,0 -13.27002,-5.17293 -13.27002,-11.55407c0,-2.67313 -1.24533,-8.33735 0.50512,-10.29497c2.42812,-2.7155 8.5062,-1.2591 12.7649,-1.2591c3.41435,0 7.6715,-0.93639 10.02305,0.90822c2.69601,2.1148 3.24697,7.23755 3.24697,10.64585z" fill="#ffffff" stroke="none" stroke-width="0"/><path d="M218.35976,181.12563c0.26932,-0.33972 0.57879,-0.64501 0.95155,-0.84815c1.31823,-0.71838 3.3313,-0.45068 4.80554,-0.45068c0,0 2.00194,0 2.00194,2.00195c0,0.1903 -0.01809,0.36252 -0.05083,0.51836c1.04942,0.06244 1.88118,0.93327 1.88118,1.99836c0,1.10564 -0.89631,2.00195 -2.00195,2.00195h-0.49537c-0.49184,0.14078 -0.96558,0.36041 -1.47188,0.43173c-0.21734,0.03062 -0.44307,-0.11443 -0.65572,-0.06004c-0.14801,0.03786 -0.19855,0.24363 -0.33451,0.3133c-0.30773,0.15768 -0.67245,0.18776 -0.97391,0.35712c-0.2955,0.16602 -0.47736,0.51369 -0.79353,0.63584c-0.37799,0.14604 -0.80864,0.06807 -1.20789,0.13739c-0.42334,0.07351 -0.84903,0.13767 -1.27581,0.19816c-0.03403,0.01275 -0.0671,0.02768 -0.09882,0.04577c-0.66937,0.38183 -1.24484,0.91552 -1.91772,1.29115c-0.07908,0.04415 -0.20369,0.01694 -0.2561,0.09081c-0.19735,0.27817 -0.23823,0.65401 -0.45759,0.91518c-0.20293,0.2416 -0.54765,0.32603 -0.7716,0.54828c-0.14911,0.14799 -0.19375,0.37595 -0.32499,0.54c-0.60856,0.76071 -1.28485,1.25718 -2.13413,1.69033l-0.28641,0.2864c-0.36228,0.36228 -0.86277,0.58636 -1.41559,0.58636c-1.10564,0 -2.00194,-0.89631 -2.00194,-2.00195v-0.68638c-0.08193,-0.21362 0,-0.45759 0,-0.68638c0,-1.11048 -0.07643,-2.14493 0.35315,-3.21129c0.74748,-1.85554 2.26241,-2.80576 3.97234,-3.62054c0.75045,-0.35759 1.38338,-1.05394 2.09696,-1.49484c0.88356,-0.54593 1.85304,-1.10971 2.86363,-1.52818z" fill="#e6e6e6" stroke="none" stroke-width="0.5"/><path d="M268.96036,195.72795c-2.00194,0 -2.00194,-2.00195 -2.00194,-2.00195v-0.15807c-0.29978,-0.09916 -0.56817,-0.26725 -0.78641,-0.48549l-0.15945,-0.15945c-0.26781,-0.05058 -0.54875,-0.06816 -0.78408,-0.20043c-0.46058,-0.25889 -0.72611,-0.77904 -1.16084,-1.07932c-0.60496,-0.41786 -1.29018,-0.71848 -1.86754,-1.17372c-0.31273,-0.24658 -0.40955,-0.49979 -0.75431,-0.66498c-0.31781,-0.15229 -0.70098,-0.18448 -0.97738,-0.40311c-0.31385,-0.24825 -0.41646,-0.7062 -0.73358,-0.95026c-0.23804,-0.1832 -0.58668,-0.14637 -0.85822,-0.2748c-0.27155,-0.12844 -0.46163,-0.46324 -0.76144,-0.48205c-0.46299,-0.02905 -0.91458,-0.1562 -1.37276,-0.22879c-0.64773,-0.10262 -1.31145,0.02585 -1.96726,0.02585c0,0 -2.00195,0 -2.00195,-2.00195c0,-0.40951 0.08377,-0.73525 0.21704,-0.99436c-0.03738,-0.77564 0.15914,-1.62195 0.24864,-2.23821c0.52396,-0.43711 1.00816,-0.92687 1.57189,-1.31133c0.19924,-0.13589 0.46903,-0.12428 0.68638,-0.22879c0.34288,-0.16487 0.62076,-0.4681 0.98581,-0.57525c1.17784,-0.34574 3.34547,-0.14885 4.41482,0.33721c0.41295,0.1877 0.72217,0.55136 1.10728,0.79106c0.92834,0.57783 1.96934,1.04117 2.92666,1.57301c1.20061,0.667 1.33255,0.54258 2.32353,1.32728c0.26982,0.21365 0.40333,0.58334 0.69845,0.76041c0.33429,0.20057 0.79069,0.22459 1.04948,0.51616c0.36124,0.40699 0.49464,0.9702 0.71242,1.4689c0.45475,1.04133 0.66125,2.20413 0.99205,3.28671c0,0.4639 0.15981,0.91402 0.22879,1.37276c0.03172,0.21095 0.02585,1.36952 0.02585,1.69343v0.45759c0,0 0,2.00194 -2.00194,2.00194z" fill="#e6e6e6" stroke="none" stroke-width="0.5"/><path d="M229.66509,205.85206h4.00388l-0.08095,0.22704c0.02408,-0.00812 0.05078,-0.00827 0.08095,0.00175c0,0.22879 0,0.45759 0,0.68638c0,0.83891 0.30115,1.73374 0,2.51673c-0.40108,1.04281 -1.33462,1.79221 -2.00194,2.68832l-2.00195,-2.68832c-0.71936,-0.43161 0,-1.67782 0,-2.51673c0,-0.34017 0.00497,-0.66314 0.025,-0.96578c0.01435,-0.21673 0.03643,-0.42306 0.06994,-0.61781c0.21032,-1.22213 0.87105,-1.98889 2.899,-2.01844c0.77495,-0.01129 1.62801,0.33957 2.13153,0.92874c0.53368,0.62446 0.50442,1.56584 0.68521,2.36714c0.29739,1.31805 0.34922,2.83577 0.25234,4.19563c-0.0346,0.48559 0.08731,1.02876 -0.15239,1.45249c-0.35768,0.63229 -0.86872,1.26586 -1.54103,1.54103c-0.80237,0.3284 -1.73138,0.20966 -2.59646,0.15239c-0.66772,-0.04421 -1.48576,0.02275 -1.95559,-0.45376c-0.62494,-0.63381 -0.73537,-1.63151 -0.95178,-2.49489c-0.1087,-0.43367 -0.0106,-0.89414 -0.00975,-1.34123c0.00322,-1.67222 0.30327,-2.65615 1.06426,-4.14487c0.05821,-0.06141 0.11643,-0.12282 0.17465,-0.18423c0.1638,-0.1728 0.32761,-0.34559 0.49141,-0.51838z" fill="#000000" stroke="none" stroke-width="0.5"/><path d="M245.04288,207.76367c-0.59115,-0.16341 -1.42139,-0.62239 -1.42139,-1.91161c0,-2.00195 2.00195,-2.00195 2.00195,-2.00195l0.86186,0.10274c0.48963,0.23747 1.0619,0.35118 1.4689,0.71241c0.29156,0.25879 0.30725,0.72034 0.51616,1.04949c0.06912,0.10889 0.22275,0.13975 0.30282,0.24086c0.48747,0.61553 1.11615,1.69755 1.31538,2.41081c0.18186,0.65106 0.08877,1.81328 0.05355,2.51909c-0.09289,1.86169 0.30933,2.93912 -1.69341,3.90869c-1.14357,0.55363 -3.36795,-0.05975 -4.1744,-0.84632c-0.39291,-0.38323 -0.25066,-1.06906 -0.39815,-1.59773c-0.49069,-1.7589 -0.92382,-3.27076 -0.94102,-5.12534c0,0 0,-2.00195 2.00194,-2.00195c2.00195,0 2.00194,2.00195 2.00194,2.00195c-0.01408,1.05941 0.13626,1.88717 0.39052,2.91807c0.08226,0.33349 0.52363,1.35811 0.4988,1.56592c-0.01809,0.15136 -0.28597,-0.12175 -0.39815,-0.22497c-0.16485,-0.15168 -0.23953,-0.39094 -0.41817,-0.52612c-0.04448,-0.03366 -0.05722,0.09685 -0.09554,0.13738c-0.20266,0.21442 -0.34098,0.70258 -0.62586,0.62586c-0.27334,-0.07361 -0.12418,-0.55378 -0.15239,-0.83544c-0.04215,-0.42092 0.17088,-1.22509 0.05356,-1.59919c-0.18228,-0.58121 -0.85372,-0.97373 -1.12733,-1.46661c-0.00914,-0.01648 -0.01638,-0.03554 -0.02157,-0.05605z" fill="#000000" stroke="none" stroke-width="0.5"/><path d="M249.93075,169.26499c0.8953,1.79059 -0.89529,2.68589 -0.89529,2.68589l-1.35289,0.44014c0.22379,-0.42774 -0.07676,0.14933 -0.09149,0.1586c-0.2041,0.12847 -0.47797,0.10743 -0.68638,0.2288c-0.27606,0.16077 -0.44629,0.48822 -0.74396,0.60419c-0.35373,0.1378 -0.75923,0.05373 -1.13181,0.12654c-0.82039,0.16033 -1.52541,0.25464 -2.37982,0.25464c-1.37276,0 -2.74552,0 -4.11828,0c-0.75908,0 -1.63421,0.09323 -2.37982,-0.02585c-0.60352,-0.09639 -1.1735,-0.34328 -1.76642,-0.49151c-0.86131,-0.21533 -1.88327,-0.425 -2.68195,-0.83017c-0.15311,-0.07767 -0.22657,-0.27866 -0.38696,-0.33992c-0.09744,-0.03722 -0.19978,0.0871 -0.30351,0.07615c-0.54621,-0.05759 -1.08396,-0.22999 -1.63309,-0.21905c0,0 -2.00194,0 -2.00194,-2.00194c0,-2.00195 2.00194,-2.00194 2.00194,-2.00194c0.68049,0.0075 1.35345,0.14565 2.02761,0.23854c0.35397,0.04878 0.72863,-0.03181 1.06925,0.07616c0.36267,0.11496 0.6446,0.40696 0.9858,0.57525c0.9385,0.46291 2.31956,0.78102 3.33061,0.96625c0.51568,0.09448 1.21036,-0.02585 1.73847,-0.02585c1.37276,0 2.74552,0 4.11828,0c0.3508,0 0.70764,0.09229 1.05209,0.02585c0.23681,-0.04568 0.44666,-0.20236 0.68638,-0.22879c0.09017,-0.00994 0.15814,0.1636 0.24095,0.12654c0.10801,-0.04834 0.07107,-0.24795 0.17121,-0.31099c0.2041,-0.12847 0.47798,-0.10742 0.68638,-0.22879c0.27606,-0.16077 0.44191,-0.50015 0.74396,-0.60419c0.46028,-0.15855 0.96833,-0.10159 1.45249,-0.15239l-0.43771,-0.01745c0,0 1.79059,-0.89529 2.68589,0.8953z" fill="#000000" stroke="none" stroke-width="0.5"/><path d="M235.69965,162.94515c0.19278,-0.64501 1.0839,-1.25239 1.1608,-1.88329l0.21419,-0.64258c0.25158,-0.81804 1.01326,-1.41267 1.91381,-1.41267c0.48768,0 0.93464,0.17439 1.28191,0.4642c0.30308,-0.0059 0.60191,0.00151 0.85695,0.14578c0.63229,0.35768 1.18335,0.90874 1.54103,1.54103c0.29913,0.52879 0.02447,1.21931 0.12654,1.8182c0.08103,0.47548 0.38151,0.89646 0.45758,1.37276c0.08505,0.53252 0.05826,1.08995 0.22879,1.60155l-0.11427,0.26979c0.00668,0.01685 0.01313,0.03381 0.01936,0.05088h0.12076v0.68638c0,1.10564 -0.8963,2.00194 -2.00194,2.00194c-0.35648,0 -0.6912,-0.09318 -0.98114,-0.25651c-0.35068,0.30243 -0.80738,0.4853 -1.30679,0.4853c-0.55282,0 -1.05331,-0.22407 -1.41559,-0.58635l-0.45759,-0.45759l0.07566,-0.07566c-0.01304,-0.02652 -0.0255,-0.05337 -0.03739,-0.08053c-0.11135,-0.06395 -0.22009,-0.13258 -0.32564,-0.20691c-0.32286,-0.22738 -0.29552,-0.73276 -0.42505,-1.1058c-0.03215,-0.09261 -0.06159,-0.18623 -0.08845,-0.28068c-0.81534,-0.85264 -1.17799,-2.33033 -0.84356,-3.44925z" data-paper-data="{&quot;index&quot;:null}" fill="#000000" stroke="none" stroke-width="0.5"/><path d="M247.45377,164.61205c-1.10564,0 -2.00194,-0.89631 -2.00194,-2.00195c0,-1.10564 0.8963,-2.00194 2.00194,-2.00194c1.10564,0 2.00195,0.8963 2.00195,2.00194c0,1.10564 -0.89631,2.00195 -2.00195,2.00195z" data-paper-data="{&quot;index&quot;:null}" fill="#0043fd" stroke="none" stroke-width="0.5"/><path d="M231.43823,165.29842c-1.10564,0 -2.00194,-0.89631 -2.00194,-2.00195c0,-1.10564 0.8963,-2.00194 2.00194,-2.00194c1.10564,0 2.00195,0.8963 2.00195,2.00194c0,1.10564 -0.89631,2.00195 -2.00195,2.00195z" data-paper-data="{&quot;index&quot;:null}" fill="#0043fd" stroke="none" stroke-width="0.5"/><path d="M247.45378,163.86846c-0.56862,0 -1.02957,-0.46096 -1.02957,-1.02957c0,-0.56862 0.46096,-1.02957 1.02957,-1.02957c0.56861,0 1.02957,0.46096 1.02957,1.02957c0,0.56861 -0.46096,1.02957 -1.02957,1.02957z" data-paper-data="{&quot;index&quot;:null}" fill="#000000" stroke="none" stroke-width="0.5"/><path d="M231.66703,164.32604c-0.56862,0 -1.02957,-0.46096 -1.02957,-1.02957c0,-0.56862 0.46096,-1.02957 1.02957,-1.02957c0.56861,0 1.02957,0.46096 1.02957,1.02957c0,0.56861 -0.46096,1.02957 -1.02957,1.02957z" data-paper-data="{&quot;index&quot;:null}" fill="#000000" stroke="none" stroke-width="0.5"/></g></g></svg>