<svg version="1.1" xmlns="http://www.w3.org/2000/svg" xmlns:xlink="http://www.w3.org/1999/xlink" width="1393.82865" height="978.43621" viewBox="0,0,1393.82865,978.43621"><defs><radialGradient cx="-98.27949" cy="-69.64706" r="696.91433" gradientUnits="userSpaceOnUse" id="color-1"><stop offset="0" stop-color="#6bff66"/><stop offset="1" stop-color="#66e5ff"/></radialGradient></defs><g transform="translate(795.19382,558.86517)"><g data-paper-data="{&quot;isPaintingLayer&quot;:true}" fill-rule="nonzero" stroke-linecap="butt" stroke-linejoin="miter" stroke-miterlimit="10" stroke-dasharray="" stroke-dashoffset="0" style="mix-blend-mode: normal"><path d="M-795.19382,419.57105v-978.43621h1393.82865v978.43621z" fill="url(#color-1)" stroke="none" stroke-width="0"/><path d="M114.71795,5.32419c-17.68672,12.61797 -66.1835,-25.03392 -108.32056,-84.09787c-42.13706,-59.06395 -61.95802,-117.17362 -44.2713,-129.7916c17.68672,-12.61797 66.1835,25.03392 108.32062,84.09787c42.13706,59.06395 61.95802,117.17362 44.2713,129.7916z" data-paper-data="{&quot;index&quot;:null}" fill="#ffffff" stroke="none" stroke-width="0"/><path d="M-298.37301,2.32592c-17.68672,-12.61797 2.13424,-70.72764 44.2713,-129.7916c42.13711,-59.06395 90.6339,-96.71584 108.32062,-84.09787c17.68672,12.61797 -2.13424,70.72764 -44.2713,129.7916c-42.13706,59.06395 -90.63384,96.71584 -108.32056,84.09787z" fill="#ffffff" stroke="none" stroke-width="0"/><path d="M-199.83292,-116.31902c0,-55.52178 45.00933,-100.53111 100.53111,-100.53111c55.52178,0 100.53111,45.00933 100.53111,100.53111c0,55.52178 -45.00933,100.53111 -100.53111,100.53111c-55.52178,0 -100.53111,-45.00933 -100.53111,-100.53111z" fill="#ffffff" stroke="#ffffff" stroke-width="2"/><path d="M-71.11164,-94.91845c0,9.74069 -12.04197,24.69188 -26.89648,24.69188c-14.85451,0 -26.89648,-14.95119 -26.89648,-24.69188c0,-9.74069 12.04197,-17.63702 26.89648,-17.63702c14.85451,0 26.89648,7.89638 26.89648,17.63702z" fill="#ffa4a4" stroke="none" stroke-width="0"/><path d="M-152.24203,-145.18401c0,-6.33144 4.14559,-11.46406 9.25946,-11.46406c5.11387,0 9.25946,5.13262 9.25946,11.46406c0,6.33144 -4.14559,11.46406 -9.25946,11.46406c-5.11387,0 -9.25946,-5.13262 -9.25946,-11.46406z" fill="#c49191" stroke="none" stroke-width="0"/><path d="M-67.23152,-145.71308c0,-6.81844 4.14559,-12.34591 9.25946,-12.34591c5.11387,0 9.25946,5.52747 9.25946,12.34591c0,6.81844 -4.14559,12.34591 -9.25946,12.34591c-5.11387,0 -9.25946,-5.52747 -9.25946,-12.34591z" fill="#c49191" stroke="none" stroke-width="0"/><path d="M-13.79019,61.71502c0,25.71575 1.14132,55.21168 -18.73692,70.66557c-16.09022,12.50897 -50.69375,13.58642 -73.47587,13.58642c-23.93407,0 -64.34285,0.56652 -80.73309,-13.095c-18.48546,-15.40789 -11.47976,-46.49372 -11.47976,-71.15699c0,-26.77271 6.38763,-56.29098 27.69555,-71.72351c15.72535,-11.38923 42.89198,-12.52848 64.51725,-12.52848c24.29654,0 53.67835,1.30547 70.14957,15.3371c18.05394,15.37988 22.06322,44.58282 22.06322,68.91489z" fill="#ffffff" stroke="none" stroke-width="0"/><path d="M-305.25342,158.08626c-4.9846,-21.4452 29.95301,-47.88988 78.03538,-59.06591c48.08237,-11.17603 91.10161,-2.85123 96.08621,18.59397c4.9846,21.4452 -29.95301,47.88988 -78.03538,59.06591c-48.08237,11.17603 -91.10161,2.85123 -96.08621,-18.59397z" fill="#ffffff" stroke="none" stroke-width="0"/><path d="M-313.06272,138.47375c0,-22.5257 18.26071,-40.78635 40.78635,-40.78635c22.5257,0 40.78635,18.26071 40.78635,40.78635c0,22.5257 -18.26065,40.78635 -40.78635,40.78635c-22.5257,0 -40.78635,-18.26065 -40.78635,-40.78635z" fill="#ffffff" stroke="none" stroke-width="0"/><path d="M-4.46336,173.61688c-48.08237,-11.17603 -83.01998,-37.62071 -78.03538,-59.06591c4.9846,-21.4452 48.00389,-29.77 96.08621,-18.59397c48.08237,11.17603 83.01998,37.62071 78.03538,59.06591c-4.9846,21.4452 -48.00389,29.77 -96.08621,18.59397z" data-paper-data="{&quot;index&quot;:null}" fill="#ffffff" stroke="none" stroke-width="0"/><path d="M58.64579,176.19676c-22.5257,0 -40.78635,-18.26065 -40.78635,-40.78635c0,-22.5257 18.26065,-40.78635 40.78635,-40.78635c22.5257,0 40.78635,18.26071 40.78635,40.78635c0,22.5257 -18.26071,40.78635 -40.78635,40.78635z" data-paper-data="{&quot;index&quot;:null}" fill="#ffffff" stroke="none" stroke-width="0"/><path d="M-288.14826,83.83312c-8.02435,-13.27109 18.72362,-44.13598 59.74339,-68.9386c41.01972,-24.80268 80.77783,-34.15081 88.80224,-20.87972c8.02435,13.27109 -18.72362,44.13592 -59.74339,68.93855c-41.01972,24.80262 -80.77783,34.15081 -88.80224,20.87972z" fill="#ffffff" stroke="none" stroke-width="0"/><path d="M88.97157,84.29718c-8.0244,13.27109 -47.78252,3.9229 -88.80224,-20.87972c-41.01977,-24.80262 -67.76774,-55.66746 -59.74339,-68.93855c8.0244,-13.27109 47.78252,-3.92296 88.80224,20.87972c41.01977,24.80262 67.76774,55.66751 59.74339,68.9386z" data-paper-data="{&quot;index&quot;:null}" fill="#ffffff" stroke="none" stroke-width="0"/></g></g></svg>