<svg version="1.1" xmlns="http://www.w3.org/2000/svg" xmlns:xlink="http://www.w3.org/1999/xlink" width="67.37643" height="75.86001" viewBox="0,0,67.37643,75.86001"><g transform="translate(-206.18679,-141.945)"><g data-paper-data="{&quot;isPaintingLayer&quot;:true}" fill-rule="nonzero" stroke-linecap="butt" stroke-linejoin="miter" stroke-miterlimit="10" stroke-dasharray="" stroke-dashoffset="0" style="mix-blend-mode: normal"><path d="M251.7903,146.67221c3.93754,-1.21481 9.2885,10.07802 11.95171,25.22324c2.66321,15.14521 1.63014,28.40763 -2.3074,29.62244c-3.93754,1.21481 -9.2885,-10.07802 -11.9517,-25.22324c-2.66321,-15.14521 -1.63014,-28.40763 2.3074,-29.62244z" data-paper-data="{&quot;index&quot;:null}" fill="#66e5ff" stroke="#000000" stroke-width="0.5"/><path d="M227.23612,179.463c-2.66321,15.14521 -8.01416,26.43804 -11.9517,25.22324c-3.93754,-1.21481 -4.9706,-14.47723 -2.3074,-29.62244c2.66321,-15.14521 8.01416,-26.43804 11.9517,-25.22324c3.93754,1.21481 4.9706,14.47723 2.3074,29.62244z" fill="#66e5ff" stroke="#000000" stroke-width="0.5"/><path d="M220.7532,157.82553c0,-8.63251 8.29395,-15.63053 18.52507,-15.63053c10.23111,0 18.52507,6.99803 18.52507,15.63053c0,8.63251 -8.29396,15.63053 -18.52507,15.63053c-10.23111,0 -18.52507,-6.99803 -18.52507,-15.63053z" fill="#66e5ff" stroke="#000000" stroke-width="0.5"/><path d="M261.28654,196.71577c0,1.78956 0.54321,7.63166 -0.19937,11.1149c-0.94227,4.41987 -3.27713,6.40409 -3.98131,6.44385c-1.65873,0.09365 -2.82899,2.11528 -6.03589,-2.55762c-3.16952,-4.61845 -5.30614,-9.23273 -9.49897,-9.23273c-3.0227,0 -4.7855,1.0235 -6.87644,3.80452c-0.86198,1.14647 -2.01023,2.28272 -2.9617,4.25663c-0.4876,1.01155 0.32788,3.71995 -1.02884,4.47108c-0.70679,0.3913 -2.14274,1.25092 -3.31245,1.07463c-0.85349,-0.12863 -1.56524,-1.33084 -1.74853,-1.0906c-1.1815,1.54857 -2.36346,0.59397 -3.11175,-0.9803c-0.91414,-1.92321 -1.31781,-4.77122 -1.98742,-5.11003c-0.94466,-0.47797 -1.46526,-8.79437 -1.46526,-12.19434c0,-1.95778 0.16769,-3.86619 0.48595,-5.70361c0.21952,-1.26735 -7.41731,-0.85577 -10.78045,-3.36557c-3.28818,-2.45385 -2.30746,-7.83155 -1.8373,-8.91298c0.31946,-0.73481 -0.02848,-3.88507 2.41339,-3.8426c5.13808,0.08938 15.01394,4.1101 16.00166,2.88148c3.81073,-4.74015 9.04474,-7.66584 14.82072,-7.66584c5.99656,0 11.40898,3.15342 15.25105,8.21681c0.56092,0.73923 9.80178,-6.64898 14.18278,-6.77063c3.27349,-0.09091 1.99391,6.99834 2.31865,7.64817c0.31219,0.62473 2.59164,5.9531 0.01678,7.29796c-3.54766,1.85296 -12.31914,-0.17857 -12.02917,0.78581c0.8814,2.93134 1.36389,6.11013 1.36389,9.431z" fill="#66e5ff" stroke="#000000" stroke-width="0.5"/><path d="M253.15196,187.41189c0,7.7076 -6.41486,13.95583 -14.32799,13.95583c-7.91313,0 -14.32799,-6.24824 -14.32799,-13.95583c0,-7.7076 6.41486,-13.95583 14.32799,-13.95583c7.91313,0 14.32799,6.24824 14.32799,13.95583z" fill="#ebf160" stroke="none" stroke-width="0"/><path d="M211.41366,175.11821c0.32303,0.57427 0.0858,2.00179 0.10722,2.27712c0.19067,2.4509 -1.17695,5.16252 -1.21548,7.64568c-0.01321,0.85158 0.08859,3.22852 -1.11407,3.22852c-1.3099,0 -0.89676,-1.48097 -0.80793,-2.21618c0.30468,-2.522 1.05126,-5.19297 1.1021,-7.71939c0.01864,-0.92631 0.13158,-1.81133 0.18368,-2.75056c0.00119,-0.02145 0.00184,-0.04403 0.00239,-0.06727c0.03447,-0.48244 0.43677,-0.86312 0.928,-0.86312c0.30277,0 0.57177,0.14463 0.74167,0.36857c0.02773,0.02864 0.05214,0.06058 0.07242,0.09662z" fill="#ffffff" stroke="none" stroke-width="0.5"/><path d="M211.24762,185.75913c0.33865,-1.30602 0.94242,-2.28762 0.99313,-3.71411c0.05521,-1.55314 0.11291,-3.2017 0.4848,-4.6893c0.19192,-0.76769 0.99359,-3.09114 2.20557,-1.87916c0.70925,0.70925 -0.26675,1.45931 -0.33978,2.18142c-0.24474,2.41994 -0.3439,5.20887 -1.14567,7.48073c-0.40447,1.14608 0.04265,2.78202 -0.60801,3.77826c-0.15586,0.23864 -1.12264,0.68598 -1.36329,0.26484c-0.27423,-0.16184 -0.45818,-0.46035 -0.45818,-0.80182c0,-0.14441 0.0329,-0.28113 0.09161,-0.40308c0.11131,-0.73974 -0.04961,-1.48726 0.13982,-2.21779z" fill="#ffffff" stroke="none" stroke-width="0.5"/><path d="M216.90602,176.24494c0.68258,0.39004 0.87719,0.76401 0.89069,1.2001c0.01525,0.4925 -0.20048,1.06422 -0.20522,1.82781c-0.00097,0.15698 0.48843,5.8063 -0.19634,7.97433c-0.2644,0.8371 -0.34279,2.2232 -0.88153,2.89592c-0.50295,0.62804 -1.59603,0.52438 -1.76835,-0.36407c-0.23797,-1.22694 0.97564,-2.6884 0.98544,-3.96728c0.0171,-2.23039 -0.16511,-4.46848 0.01886,-6.69134c0.03921,-0.47374 -0.04798,-2.18723 0.35462,-2.41728z" fill="#ffffff" stroke="none" stroke-width="0.5"/><path d="M216.77435,180.4994c-0.6509,0.03048 -1.72502,-0.48973 -2.35316,-0.64088c-1.5579,-0.37487 -3.19209,-0.33587 -4.72811,-0.75967c-0.73523,-0.20285 -3.06685,-0.15951 -2.31356,-1.66609c0.3664,-0.73279 1.4126,-0.45153 2.04421,-0.29363c2.00871,0.50218 4.11162,0.49745 6.10259,1.12633c0.34726,0.10969 1.9469,0.25059 1.97697,0.79183c0.09453,0.14563 0.14945,0.31936 0.14945,0.50592c0,0.45692 -0.32937,0.83691 -0.76364,0.91548c-0.03606,0.01165 -0.07419,0.0188 -0.11474,0.0207z" fill="#3826ff" stroke="none" stroke-width="0.5"/><path d="M217.83641,182.99197c-0.13455,0.23545 -0.18075,0.55985 -0.36857,0.74167c-0.02864,0.02773 -0.06058,0.05214 -0.09662,0.07242c-0.73323,0.41245 -1.93498,-0.06641 -2.6769,-0.29807c-1.77759,-0.55506 -3.6552,-0.78829 -5.42254,-1.40433c-0.72942,-0.25426 -2.60412,-0.11548 -2.33978,-1.43713c0.20957,-1.04783 1.26345,-0.71468 1.92246,-0.55158c2.14136,0.52996 4.37995,0.91493 6.45778,1.65264c0.38554,0.13689 1.90324,0.13774 2.06599,0.42256z" fill="#3826ff" stroke="none" stroke-width="0.5"/><path d="M217.83641,186.48195c-0.38045,0.66579 -0.72462,0.8955 -1.08292,0.91795c-0.55753,0.03493 -1.14927,-0.43197 -1.96517,-0.5386c-1.9349,-0.25289 -3.63893,-0.58812 -5.49698,-1.20257c-0.71831,-0.23754 -2.42942,-0.76367 -2.08476,-1.79764c0.23602,-0.70806 0.6847,-0.66131 1.17686,-0.58843c0.93027,0.13777 2.02649,0.7902 2.93588,1.11558c1.18883,0.42537 2.52587,0.44625 3.7725,0.64855c0.37802,0.06134 0.83825,0.5113 1.17158,0.51477c0.06759,0.00071 1.00536,-0.06298 1.11481,0.12856z" fill="#3826ff" stroke="none" stroke-width="0.5"/><path d="M263.86238,173.07203c0.48783,0.44289 0.71349,1.87229 0.82075,2.12676c0.9548,2.26531 0.51336,5.27004 1.26088,7.63832c0.25635,0.81218 1.10348,3.03537 -0.03765,3.41513c-1.24289,0.41361 -1.3185,-1.12204 -1.46637,-1.84769c-0.50724,-2.48918 -0.64223,-5.25924 -1.39173,-7.67246c-0.2748,-0.88481 -0.44709,-1.76021 -0.69422,-2.66784c-0.00565,-0.02073 -0.01216,-0.04236 -0.01897,-0.06458c-0.11963,-0.46864 0.14189,-0.95688 0.60798,-1.11198c0.28728,-0.0956 0.58819,-0.04331 0.82011,0.11553c0.03535,0.01842 0.0686,0.04102 0.09922,0.06882z" fill="#ffffff" stroke="none" stroke-width="0.5"/><path d="M267.06477,183.22101c-0.09106,-1.34614 0.17187,-2.46817 -0.23044,-3.83768c-0.43803,-1.49112 -0.90382,-3.07355 -1.02067,-4.60247c-0.0603,-0.78902 -0.03328,-3.24673 1.49938,-2.47944c0.89692,0.44902 0.20769,1.46888 0.36641,2.17711c0.53188,2.37341 1.31843,5.05098 1.27502,7.45978c-0.0219,1.21515 0.91892,2.62623 0.61611,3.77695c-0.07253,0.27564 -0.8486,1.00536 -1.20992,0.68176c-0.3113,-0.06697 -0.58011,-0.29212 -0.68793,-0.61613c-0.04559,-0.13702 -0.05755,-0.27713 -0.04035,-0.41138c-0.12796,-0.73704 -0.51668,-1.39552 -0.56761,-2.14848z" fill="#ffffff" stroke="none" stroke-width="0.5"/><path d="M269.42953,172.40687c0.77081,0.15456 1.07356,0.44794 1.22407,0.85745c0.16999,0.46248 0.14581,1.07308 0.38242,1.7991c0.04865,0.14925 2.29681,5.35502 2.33165,7.62836c0.01345,0.87776 0.37673,2.2177 0.07798,3.02611c-0.27891,0.75472 -1.3488,1.00151 -1.79284,0.21292c-0.6132,-1.08903 0.07685,-2.85893 -0.31767,-4.07548c-0.68803,-2.12168 -1.56761,-4.18774 -2.09494,-6.35496c-0.11238,-0.46188 -0.73616,-2.06018 -0.4268,-2.40558z" fill="#ffffff" stroke="none" stroke-width="0.5"/><path d="M270.64796,176.48525c-0.60798,0.23445 -1.79141,0.08 -2.43514,0.13493c-1.59656,0.13622 -3.13483,0.68923 -4.7261,0.77213c-0.76166,0.03968 -2.96031,0.81703 -2.72127,-0.85034c0.11627,-0.811 1.19776,-0.87447 1.84691,-0.92407c2.06451,-0.15778 4.05834,-0.82627 6.14603,-0.85822c0.36413,-0.00557 1.92642,-0.37698 2.12586,0.12709c0.13568,0.10833 0.24264,0.25584 0.30155,0.43285c0.14428,0.43354 -0.04826,0.89809 -0.4355,1.10977c-0.03053,0.02244 -0.06446,0.04126 -0.10233,0.05587z" fill="#3826ff" stroke="none" stroke-width="0.5"/><path d="M272.44273,178.51494c-0.05331,0.2659 0.00527,0.58828 -0.11553,0.82011c-0.01842,0.03535 -0.04102,0.0686 -0.06882,0.09922c-0.56548,0.62287 -1.85696,0.54797 -2.63406,0.56243c-1.86192,0.03463 -3.71712,0.40619 -5.58855,0.37972c-0.77239,-0.01092 -2.50735,0.71269 -2.67386,-0.6248c-0.13201,-1.06039 0.97315,-1.07706 1.64995,-1.13039c2.19914,-0.1733 4.44477,-0.51487 6.64923,-0.47099c0.40904,0.00814 1.84937,-0.47027 2.09371,-0.25141z" fill="#3826ff" stroke="none" stroke-width="0.5"/><path d="M273.54471,181.82638c-0.15076,0.75186 -0.40479,1.07849 -0.73767,1.21292c-0.51798,0.20918 -1.22687,-0.04698 -2.0347,0.10946c-1.91576,0.371 -3.63847,0.59098 -5.59547,0.59466c-0.75657,0.00143 -2.54627,0.0425 -2.54573,-1.0474c0.00037,-0.74635 0.44086,-0.84368 0.93085,-0.92992c0.92618,-0.16302 2.17233,0.1099 3.13794,0.13149c1.26232,0.02822 2.53755,-0.37414 3.78429,-0.57582c0.37805,-0.06116 0.95681,0.22046 1.27419,0.11851c0.06435,-0.02068 0.93404,-0.3772 1.09837,-0.23002z" fill="#3826ff" stroke="none" stroke-width="0.5"/><path d="M224.45381,211.0402c2.04067,-0.00987 4.13743,-0.39784 6.12156,0.0793c1.92046,0.46182 3.27344,2.89317 2.80387,4.77147c-0.2491,0.9964 -3.81463,1.8549 -4.4341,1.78868l-0.30882,0.04752l-0.07166,-0.00663l-0.06981,0.01746h-0.92172l-0.43235,0.05404l-0.05837,-0.00707l-0.05704,0.01426h-3.18437l-0.00869,0.0058l-0.02608,-0.0058h-0.02593l-0.2074,-0.05185l-0.20869,-0.04637l-0.02319,-0.01159l-0.02593,-0.00648l-0.00519,-0.00907l-0.06816,-0.03408l-0.04464,-0.03826l-0.05537,-0.01978l-0.18368,-0.12246l-0.0277,-0.03046l-0.03743,-0.01715l-0.14757,-0.11806l-0.04792,-0.01198l-0.22206,-0.11843l-0.07239,-0.00402l-0.05402,-0.06303l-0.08802,-0.04169l-0.12131,-0.02696l-0.24491,-0.12246l-0.05768,-0.04944l-0.04634,-0.00258l-0.12002,-0.14003l-0.14003,-0.12002l-0.00257,-0.04635l-0.04944,-0.05768l-0.02423,-0.04847l-0.0692,-0.0519l-0.04223,-0.05197l-0.05743,-0.03445l-0.04147,-0.04147l-0.20792,-0.12475l-0.01625,-0.01625l-0.02518,-0.0014l-0.14265,-0.16642l-0.13466,-0.13466l-0.16642,-0.14265l-0.00079,-0.01424l-0.11564,-0.17346l-0.01259,-0.03525l-0.02737,-0.01564l-0.05083,-0.20332l-0.07049,-0.19737l0.0141,-0.02819l-0.00908,-0.03632v-0.36737l0.03627,-0.1451l0.01147,-0.14912l0.06123,-0.18368l0.17163,-0.2697l0.01226,-0.06129l0.01328,-0.00845v-0.10107l0.04452,-0.17807l-0.01872,-0.06864l0.06151,-0.10251l0.02899,-0.11597l0.06177,-0.03529l0.09443,-0.1574l0.38567,-0.38567l0.00205,-0.01025l0.02255,-0.01435l0.01833,-0.01833l0.18332,-0.10999l0.0691,-0.04397l0.13028,-0.152l0.02517,-0.0014l0.01625,-0.01625l0.59329,-0.35597l0.16526,-0.11017l0.03525,-0.01259l0.01564,-0.02737l0.0337,-0.00843c0.08344,-0.08832 0.18399,-0.1603 0.29635,-0.21065c0.42836,-0.34441 1.02852,-0.50672 1.60461,-0.5095zM222.39302,214.81238l0.0039,0.00234c0.00131,-0.01183 0.00278,-0.02365 0.00439,-0.03546z" fill="#eaf060" stroke="none" stroke-width="0.5"/><path d="M254.01889,211.15996c2.45684,-1.323 9.12575,-3.28272 8.95915,1.42291c-0.02148,0.6065 -0.46734,1.42591 -0.85997,1.85763c-0.39748,0.43705 -0.35706,0.90947 -0.94012,1.30119c-1.27774,0.85843 -3.77857,0.72558 -5.30646,0.89419c-0.94381,0.10415 -2.14988,0.50626 -2.98338,0.00616c-1.42782,-0.85669 -1.12956,-1.60461 -1.22848,-3.03909c-0.06014,-0.12314 -0.09389,-0.26152 -0.09389,-0.40779c0,-0.2954 0.13766,-0.55865 0.35234,-0.72908c0.50407,-0.62823 1.38517,-0.92074 2.10081,-1.30611z" fill="#eaf060" stroke="none" stroke-width="0.5"/><path d="M238.28631,166.29735c-0.00968,0.0242 -0.01952,0.04789 -0.02951,0.07109h0.32665c-0.08502,-0.08303 -0.17879,-0.12976 -0.29302,-0.1012zM233.07529,166.26992c-0.34148,0 -0.63998,-0.18396 -0.80182,-0.45818l-0.01226,-0.00701l-0.00666,-0.02663c-0.06996,-0.13066 -0.10964,-0.27998 -0.10964,-0.43856v-0.30614l0.03627,-0.1451l0.01147,-0.14912l0.04203,-0.12609l-0.00275,-0.01008l0.01375,-0.02292l0.0082,-0.02459l0.11477,-0.18036l0.10999,-0.18332l0.01833,-0.01834l0.01435,-0.02254l0.01025,-0.00205l0.14076,-0.14075l0.07946,-0.04768l0.02989,-0.03288l0.14496,-0.28992l0.02979,-0.03476l0.11074,-0.44295l0.42243,-0.24139l0.08367,-0.13947l0.06188,-0.06188l0.04054,-0.07755l0.48982,-0.55105l0.0231,-0.01578l0.0144,-0.02399l0.30614,-0.30614l0.12825,-0.07695l0.10107,-0.08663l0.05454,-0.13635l0.28075,-0.38873l0.07855,-0.01096l0.03935,-0.06886l0.19486,-0.04872l0.0125,-0.01964l0.03578,-0.00715l0.0312,-0.0384l0.24491,-0.18368l0.13784,-0.05804l0.12618,-0.0803l0.12096,-0.04031l0.27627,-0.13813l0.2755,-0.1653l0.13162,-0.04006l0.1214,-0.06475l0.21024,-0.05256l0.33347,-0.11116l0.03638,-0.0028l0.03219,-0.01717l0.21024,-0.05256l0.08706,-0.02902l0.13147,-0.06574l0.00519,-0.00907l0.02593,-0.00648l0.02319,-0.01159l0.20869,-0.04637l0.2074,-0.05185h0.02593l0.02608,-0.0058l0.00869,0.0058h0.09208l0.159,-0.0318l0.12873,-0.04291l0.14912,-0.01147l0.1451,-0.03627h0.27524l0.2158,-0.04316l0.09256,0.00441l0.0899,-0.02248h0.15279l0.2158,-0.04316l0.09256,0.00441l0.0899,-0.02248h2.51086l0.00869,-0.0058l0.02608,0.0058h0.02593l0.2074,0.05185l0.20869,0.04637l0.02319,0.01159l0.02593,0.00648l0.00519,0.00907l0.06816,0.03408l0.04464,0.03826l0.05537,0.01978l0.18368,0.12246l0.0277,0.03046l0.03743,0.01715l0.19847,0.15878l0.17812,0.07125l0.032,0.02312l0.03854,0.00856l0.24491,0.12246l0.13936,0.11945l0.06976,0.01395l0.06418,0.10086l0.09077,0.0778l0.00395,0.07104l0.06448,0.10133l0.017,0.01457l0.09741,0.04703l0.36737,0.30614l0.00861,0.01179l0.02097,0.00419l0.12069,0.18966l0.06996,0.09573l0.01038,0.00058l0.01739,0.02029l0.02074,0.01556l0.13481,0.16592l0.13913,0.16232l0.01159,0.02319l0.01685,0.02074l-0.0013,0.01037l0.06816,0.13632l0.00907,0.00519l0.00648,0.02593l0.01159,0.02319l0.04637,0.20869l0.02333,0.09329l0.22569,0.67708l0.01147,0.14912l0.03627,0.1451v0.89108l0.05962,1.01358l-0.00518,0.0275l0.00678,0.02714v0.6128l0.0058,0.00869l-0.0058,0.02608v0.02593l-0.05185,0.2074l-0.0356,0.16021l0.00042,0.00156l-0.00122,0.00204l-0.00997,0.04488l-0.01159,0.02319l-0.00648,0.02593l-0.00907,0.00519l-0.03408,0.06816l-0.09733,0.11355l-0.07695,0.12825l-0.30614,0.30614l-0.15739,0.09443l-0.03529,0.06177l-0.11598,0.02899l-0.10251,0.06151l-0.06864,-0.01872l-0.17807,0.04452h-0.04546l-0.21941,0.03657l-0.08849,0.0295l-0.28075,0.1123l-0.02772,0.00378l-0.02361,0.01502l-0.48832,0.16278l-0.18577,0.09289l-0.10002,0.02223l-0.09041,0.04821l-0.21024,0.05256l-0.14979,0.04993l-0.14912,0.01147l-0.1451,0.03627h-0.27761l-0.04045,0.01348l-0.02066,0.00159l-0.01795,0.01036l-0.40916,0.1169l-0.34819,0.11606l-0.14912,0.01147l-0.1451,0.03627h-0.21401l-0.2158,0.04316l-0.09256,-0.00441l-0.0899,0.02248h-3.24507l-0.11112,-0.02778h-0.11453l-0.48982,-0.12246l-0.07535,-0.04018l-0.08399,-0.01543l-0.6735,-0.30614l-0.01383,-0.011l-0.01725,-0.00383l-0.18577,-0.09289l-0.48832,-0.16278l-0.13814,-0.08791l-0.14886,-0.06822l-0.17434,-0.13947l-0.0039,-0.00233l-0.02459,-0.0082l-0.18036,-0.11477l-0.18332,-0.10999l-0.01833,-0.01834l-0.02255,-0.01435l-0.00205,-0.01025l-0.14076,-0.14075l-0.04767,-0.07946l-0.06857,-0.06234l-0.07413,-0.11119l-0.04775,-0.0388l-0.17012,-0.10825l-0.00716,-0.03578l-0.0384,-0.0312l-0.18368,-0.24491l-0.02745,-0.06518c-0.17048,0.1931 -0.41987,0.31488 -0.69771,0.31488zM234.8942,164.1236l-0.02163,0.03606l0.01453,0.02906l0.02222,0.10002l0.01571,0.02946c-0.004,-0.07454 -0.00501,-0.14883 -0.00284,-0.2226z" fill="#eaf060" stroke="none" stroke-width="0.5"/><path d="M239.9328,168.24905c-0.09304,0 -0.09304,-0.09304 -0.09304,-0.09304v-0.06123c0,-0.6901 -0.06123,-1.33535 -0.06123,-2.02052c0,-1.06128 0,-2.12256 0,-3.18384c0,0 0,-0.012 0.00431,-0.02738l-0.07204,-0.11331c-0.17163,-0.11672 -0.3158,-0.26723 -0.46576,-0.41719c-0.43576,-0.87015 -1.45622,-1.45452 -2.13328,-2.13159c0,0 -0.06579,-0.06579 0,-0.13157c0.06579,-0.06579 0.13157,0 0.13157,0c0.68271,0.68271 1.71398,1.27562 2.15266,2.15436c0.14183,0.14183 0.28716,0.29025 0.45198,0.39869l0.0003,0.00286l0.01095,0.00364c0.03197,-0.28896 0.33088,-0.54684 0.53796,-0.71061c0.65602,-0.51879 1.23834,-1.18116 1.83444,-1.76698c0.22058,-0.21487 0.30792,-0.37913 0.50641,-0.62559l0.13369,-0.03468c0,0 0.09304,0 0.09304,0.09304c0,0.09304 -0.09304,0.09304 -0.09304,0.09304l0.01123,-0.03468c-0.19639,0.24386 -0.30029,0.42257 -0.5209,0.64159c-0.80048,0.78668 -1.74792,1.49476 -2.3556,2.43466l-0.04595,0.13784c-0.00035,0.00115 -0.00073,0.00228 -0.00112,0.0034c0.00521,0.01682 0.00521,0.03045 0.00521,0.03045c0,1.06128 0,2.12256 0,3.18384c0,0.68452 0.06123,1.33052 0.06123,2.02052v0.06123c0,0 0,0.09304 -0.09304,0.09304z" fill="#c7cb51" stroke="none" stroke-width="0.5"/><path d="M227.86683,154.47961c0,-1.49014 1.208,-2.69813 2.69813,-2.69813c1.49014,0 2.69813,1.208 2.69813,2.69813c0,1.49014 -1.208,2.69813 -2.69813,2.69813c-1.49014,0 -2.69813,-1.208 -2.69813,-2.69813z" fill="#000000" stroke="none" stroke-width="0.5"/><path d="M245.31674,153.92856c0,-1.49014 1.208,-2.69813 2.69813,-2.69813c1.49014,0 2.69813,1.208 2.69813,2.69813c0,1.49014 -1.208,2.69813 -2.69813,2.69813c-1.49014,0 -2.69813,-1.208 -2.69813,-2.69813z" fill="#000000" stroke="none" stroke-width="0.5"/><path d="M230.55059,153.92856c0,-0.6166 0.49986,-1.11646 1.11646,-1.11646c0.6166,0 1.11646,0.49986 1.11646,1.11646c0,0.6166 -0.49986,1.11646 -1.11646,1.11646c-0.6166,0 -1.11646,-0.49986 -1.11646,-1.11646z" fill="#ffffff" stroke="none" stroke-width="0.5"/><path d="M247.38822,153.43874c0,-0.6166 0.49986,-1.11646 1.11646,-1.11646c0.6166,0 1.11646,0.49986 1.11646,1.11646c0,0.6166 -0.49986,1.11646 -1.11646,1.11646c-0.6166,0 -1.11646,-0.49986 -1.11646,-1.11646z" fill="#ffffff" stroke="none" stroke-width="0.5"/><path d="M238.60832,195.99208c-0.09219,-0.24998 -0.09662,-0.61748 -0.07723,-0.96369c-0.22666,-0.1119 -0.51271,-0.32773 -0.58877,-0.72096c-0.19431,0.33824 -0.36423,0.67301 -0.47941,0.854c-0.1481,0.23271 -0.2578,0.491 -0.42707,0.7088c-0.04155,0.05346 -0.24806,0.05251 -0.18644,0.08057c0.33421,0.15219 1.37422,0.04954 1.75892,0.04129zM239.56205,193.17894l1.26792,0.99548c0,0.47174 0.05683,1.17578 0.03558,1.86508c0.17789,-0.04792 0.31476,-0.04792 0.31476,-0.04792c0.17518,0.04665 0.3567,0.20596 0.52554,0.13995c0.36034,-0.14085 0.10138,-0.77028 0.0915,-1.15704c-0.02178,-0.85191 0.43461,-1.61043 -0.63855,-1.6946c-0.3514,-0.02756 -1.02294,-0.1081 -1.59676,-0.10096zM240.36132,197.90162c-0.01374,0.01492 -0.02783,0.02939 -0.04229,0.0434c-0.40584,0.39333 -1.11487,0.18632 -1.67231,0.27948c-1.22838,-0.00341 -3.10103,0.06356 -3.80321,-1.29268c-0.27404,-0.52929 -0.06132,-1.20731 0.08025,-1.78628c0.26162,-1.06993 1.84113,-3.33969 2.82363,-3.83658c0.40935,-0.20703 0.89715,-0.20253 1.35358,-0.2484c1.66763,-0.16761 3.9881,-0.18296 4.84432,1.61983c0.19497,0.4105 0.06816,0.90655 0.08499,1.36068c0.05479,1.479 0.25213,3.04511 -1.24197,4.04348c-0.44735,0.29892 -1.072,0.0933 -1.608,0.13995c0,0 -0.48825,0 -0.81899,-0.32288z" fill="#67e4ff" stroke="none" stroke-width="0.5"/></g></g></svg>